<svg width="35" height="27" viewBox="0 0 35 27" fill="none" xmlns="http://www.w3.org/2000/svg">
<mask id="path-1-inside-1_47_20728" fill="white">
<path fill-rule="evenodd" clip-rule="evenodd" d="M17.6802 26.9483C21.7013 26.9303 26.4876 24.4783 30.1638 20.1431C35.5805 13.7555 36.5361 5.69848 32.2983 2.14723C28.7135 -0.856749 22.5608 0.325556 17.4711 4.6275C12.3807 0.326225 6.22898 -0.856102 2.64495 2.14724C-1.59291 5.69848 -0.635955 13.7571 4.78238 20.1467C8.58607 24.6321 13.5772 27.1027 17.6802 26.9483Z"/>
</mask>
<path fill-rule="evenodd" clip-rule="evenodd" d="M17.6802 26.9483C21.7013 26.9303 26.4876 24.4783 30.1638 20.1431C35.5805 13.7555 36.5361 5.69848 32.2983 2.14723C28.7135 -0.856749 22.5608 0.325556 17.4711 4.6275C12.3807 0.326225 6.22898 -0.856102 2.64495 2.14724C-1.59291 5.69848 -0.635955 13.7571 4.78238 20.1467C8.58607 24.6321 13.5772 27.1027 17.6802 26.9483Z" fill="white"/>
<path d="M30.1638 20.1431L31.6892 21.4366V21.4366L30.1638 20.1431ZM17.6802 26.9483L17.6713 24.9483L17.6381 24.9484L17.605 24.9497L17.6802 26.9483ZM32.2983 2.14723L31.0137 3.68017H31.0137L32.2983 2.14723ZM17.4711 4.6275L16.1803 6.15516L17.4713 7.24605L18.7622 6.15498L17.4711 4.6275ZM2.64495 2.14724L1.36038 0.614304L2.64495 2.14724ZM4.78238 20.1467L6.30777 18.8531L4.78238 20.1467ZM28.6384 18.8495C25.2272 22.8722 20.9534 24.9336 17.6713 24.9483L17.6892 28.9483C22.4492 28.927 27.7479 26.0843 31.6892 21.4366L28.6384 18.8495ZM31.0137 3.68017C32.4518 4.88526 33.2011 7.01548 32.8654 9.84597C32.5318 12.659 31.1297 15.9118 28.6384 18.8495L31.6892 21.4366C34.6146 17.9868 36.3987 14.0172 36.8376 10.3171C37.2744 6.63437 36.3826 2.96045 33.5828 0.614302L31.0137 3.68017ZM18.7622 6.15498C21.0871 4.18989 23.5802 3.00415 25.793 2.61785C28.0026 2.2321 29.7893 2.65412 31.0137 3.68017L33.5828 0.614302C31.2225 -1.36364 28.1404 -1.85245 25.1051 -1.32256C22.0729 -0.793214 18.9449 0.763172 16.1801 3.10003L18.7622 6.15498ZM3.92952 3.68017C5.1535 2.6545 6.93969 2.23258 9.14917 2.61834C11.3618 3.00464 13.8549 4.19028 16.1803 6.15516L18.762 3.09985C15.9969 0.763451 12.869 -0.792718 9.83713 -1.32206C6.80213 -1.85195 3.72043 -1.36337 1.36038 0.614304L3.92952 3.68017ZM6.30777 18.8531C3.81563 15.9143 2.41278 12.6605 2.07864 9.84673C1.74242 7.01545 2.49164 4.88508 3.92952 3.68017L1.36038 0.614304C-1.43961 2.96064 -2.33084 6.6352 -1.89346 10.3184C-1.454 14.0191 0.3308 17.9895 3.257 21.4402L6.30777 18.8531ZM17.605 24.9497C14.2906 25.0744 9.84356 23.0227 6.30777 18.8531L3.257 21.4402C7.32858 26.2416 12.8638 29.131 17.7555 28.9469L17.605 24.9497Z" fill="#FF8C16" mask="url(#path-1-inside-1_47_20728)"/>
</svg>
