<svg width="675" height="42" viewBox="0 0 675 42" fill="none" xmlns="http://www.w3.org/2000/svg">
<path d="M3 10.568C2.552 10.568 2.136 10.4613 1.752 10.248C1.37867 10.024 1.08 9.72533 0.856 9.352C0.642667 8.968 0.536 8.55733 0.536 8.12C0.536 7.672 0.642667 7.26133 0.856 6.888C1.08 6.504 1.37867 6.20533 1.752 5.992C2.136 5.768 2.552 5.656 3 5.656C3.448 5.656 3.85867 5.768 4.232 5.992C4.616 6.20533 4.91467 6.504 5.128 6.888C5.352 7.26133 5.464 7.672 5.464 8.12C5.464 8.55733 5.352 8.968 5.128 9.352C4.91467 9.72533 4.616 10.024 4.232 10.248C3.85867 10.4613 3.448 10.568 3 10.568ZM23.208 1.784H28.184V2.712H16.984V1.784H22.072V0.407999H23.208V1.784ZM23.16 8.952H29.496V9.912H15.672V8.952H22.024V7.64H21.096C20.0293 7.64 19.192 7.46933 18.584 7.128C17.976 6.776 17.672 6.28533 17.672 5.656C17.672 5.016 17.9707 4.52533 18.568 4.184C19.176 3.832 20.0187 3.656 21.096 3.656H24.088C25.1547 3.656 25.9867 3.832 26.584 4.184C27.192 4.52533 27.496 5.016 27.496 5.656C27.496 6.28533 27.192 6.776 26.584 7.128C25.9867 7.46933 25.1547 7.64 24.088 7.64H23.16V8.952ZM18.808 5.656C18.808 5.99733 19.0213 6.25867 19.448 6.44C19.8853 6.61067 20.52 6.696 21.352 6.696H23.816C24.648 6.696 25.2773 6.61067 25.704 6.44C26.1413 6.25867 26.36 5.99733 26.36 5.656C26.36 5.31467 26.1413 5.05333 25.704 4.872C25.2773 4.69067 24.648 4.6 23.816 4.6H21.352C20.52 4.6 19.8853 4.69067 19.448 4.872C19.0213 5.05333 18.808 5.31467 18.808 5.656ZM27.736 15.384H17.464V11.144H27.736V15.384ZM26.584 12.072H18.6V14.44H26.584V12.072ZM42.5079 4.088H44.9559V5.144H42.5079V8.952H41.3559V0.648H42.5079V4.088ZM39.8039 7.736C38.9079 7.896 37.9052 8.024 36.7959 8.12C35.6972 8.20533 34.6252 8.248 33.5799 8.248H31.2759V1.432H38.2199V2.472H32.4279V7.224H33.7719C34.6359 7.224 35.5959 7.18133 36.6519 7.096C37.7185 7.01067 38.7265 6.89333 39.6759 6.744L39.8039 7.736ZM41.3559 11.032H33.1479V9.992H42.5079V15.544H41.3559V11.032ZM57.3598 6.568V0.631999H58.4958V15.4H57.3598V7.608H54.6398V6.568H57.3598ZM49.5677 12.216C50.4744 12.216 51.4611 12.1733 52.5278 12.088C53.6051 11.992 54.5971 11.8693 55.5038 11.72L55.6478 12.728C54.7944 12.888 53.8024 13.016 52.6718 13.112C51.5518 13.208 50.4531 13.256 49.3758 13.256H46.8958V1.816H53.9678V2.856H48.0318V6.936H53.7917V7.976H48.0318V12.216H49.5677ZM64.2596 5.72H73.2036V6.776H63.1236V0.999999H64.2596V5.72ZM75.0116 9.72H61.1876V8.664H75.0116V9.72ZM73.4756 15.4H63.1236V11.112H64.2596V14.344H73.4756V15.4ZM91.5621 5.944V0.631999H92.7141V15.4H91.5621V7H87.7701V5.944H91.5621ZM85.4661 3.384C85.4661 4.664 85.3061 5.88 84.9861 7.032L89.5781 12.44L88.7301 13.192L84.5701 8.28C83.8661 10.04 82.6928 11.7307 81.0501 13.352L80.2501 12.568C81.6368 11.2027 82.6661 9.78933 83.3381 8.328C84.0101 6.856 84.3461 5.208 84.3461 3.384V1.544H85.4661V3.384ZM106.766 15.4V0.631999H107.902V15.4H106.766ZM97.342 6.04H102.142V1.656H103.278V12.968H96.222V1.656H97.342V6.04ZM97.342 7.08V11.912H102.142V7.08H97.342ZM117.202 5.768C116.21 7.25067 114.461 8.58933 111.954 9.784L111.426 8.808C113.325 7.89067 114.727 6.93067 115.634 5.928C116.551 4.91467 117.01 3.82667 117.01 2.664V1.48H118.146V2.664C118.146 3.38933 118.002 4.09867 117.714 4.792L123.586 8.856L122.946 9.784L117.202 5.768ZM110.594 14.2V13.16H124.418V14.2H110.594ZM128.838 5.72H137.782V6.776H127.702V0.999999H128.838V5.72ZM139.59 9.72H125.766V8.664H139.59V9.72ZM138.054 15.4H127.702V11.112H128.838V14.344H138.054V15.4ZM156.476 6.408H158.94V7.464H156.476V15.4H155.34V0.631999H156.476V6.408ZM148.748 1.432C149.847 1.432 150.738 1.832 151.42 2.632C152.114 3.432 152.46 4.664 152.46 6.328V8.536C152.46 10.2 152.114 11.432 151.42 12.232C150.738 13.032 149.847 13.432 148.748 13.432C147.639 13.432 146.738 13.032 146.044 12.232C145.362 11.432 145.02 10.2 145.02 8.536V6.328C145.02 4.664 145.362 3.432 146.044 2.632C146.738 1.832 147.639 1.432 148.748 1.432ZM151.308 6.328C151.308 5.016 151.074 4.05067 150.604 3.432C150.146 2.80267 149.527 2.488 148.748 2.488C147.959 2.488 147.33 2.80267 146.86 3.432C146.391 4.05067 146.156 5.016 146.156 6.328V8.52C146.156 9.832 146.391 10.8027 146.86 11.432C147.33 12.0613 147.959 12.376 148.748 12.376C149.527 12.376 150.146 12.0613 150.604 11.432C151.074 10.8027 151.308 9.832 151.308 8.52V6.328ZM171.328 8.952V0.648H172.464V8.952H171.328ZM164.544 5.64C163.819 6.83467 162.56 7.93867 160.768 8.952L160.208 8.024C161.573 7.21333 162.587 6.38667 163.248 5.544C163.92 4.70133 164.256 3.74667 164.256 2.68V2.472H160.8V1.432H168.848V2.472H165.376V2.68C165.376 3.39467 165.259 4.06667 165.024 4.696L169.44 7.704L168.848 8.648L164.544 5.64ZM171.328 11.032H162.816V9.992H172.464V15.544H171.328V11.032ZM192.887 8.6V9.656H186.551V15.576H185.415V9.656H179.063V8.6H189.143C189.335 7.544 189.489 6.488 189.607 5.432C189.724 4.36533 189.783 3.50667 189.783 2.856V2.52H180.647V1.464H190.919V2.6C190.919 4.232 190.711 6.232 190.295 8.6H192.887ZM199.339 2.28H202.875V3.272H194.651V2.28H198.171V0.44H199.339V2.28ZM202.859 5.48V4.52H205.579V0.631999H206.715V11.992H205.579V8.488H202.859V7.544H205.579V5.48H202.859ZM202.187 7.288C202.187 8.14133 201.867 8.81333 201.227 9.304C200.597 9.79467 199.781 10.04 198.779 10.04C197.776 10.04 196.949 9.79467 196.299 9.304C195.659 8.81333 195.339 8.14133 195.339 7.288V7.032C195.339 6.17867 195.659 5.512 196.299 5.032C196.939 4.54133 197.765 4.296 198.779 4.296C199.781 4.296 200.597 4.54133 201.227 5.032C201.867 5.512 202.187 6.17867 202.187 7.032V7.288ZM196.443 7.272C196.443 7.80533 196.661 8.232 197.099 8.552C197.536 8.872 198.096 9.032 198.779 9.032C199.451 9.032 200.005 8.872 200.443 8.552C200.88 8.232 201.099 7.80533 201.099 7.272V7.064C201.099 6.53067 200.88 6.104 200.443 5.784C200.005 5.45333 199.451 5.288 198.779 5.288C198.107 5.288 197.547 5.45333 197.099 5.784C196.661 6.104 196.443 6.53067 196.443 7.064V7.272ZM198.363 11.368V14.344H207.419V15.384H197.227V11.368H198.363ZM220.734 15.4V0.631999H221.87V15.4H220.734ZM214.83 11.832C216.537 11.736 218.036 11.608 219.326 11.448L219.454 12.456C218.356 12.616 217.14 12.744 215.806 12.84C214.484 12.9253 213.268 12.968 212.158 12.968H209.598L209.534 11.912H212.222C212.489 11.912 212.974 11.9013 213.678 11.88V9.096H210.606V1.816H217.806V2.856H211.758V8.072H217.95V9.096H214.83V11.832ZM235.906 15.4V0.631999H237.042V15.4H235.906ZM229.954 3.768C229.954 4.94133 229.8 6.06667 229.49 7.144L234.018 12.424L233.186 13.192L229.058 8.36C228.706 9.21333 228.248 10.0453 227.682 10.856C227.117 11.6667 226.429 12.4987 225.618 13.352L224.786 12.568C226.141 11.16 227.149 9.77333 227.81 8.408C228.482 7.04267 228.818 5.496 228.818 3.768V2.936H225.378V1.896H233.426V2.936H229.954V3.768ZM255.289 0.648V3.784H257.753V4.84H255.289V8.184H254.153V0.648H255.289ZM251.353 4.616C251.353 5.32 251.187 5.91733 250.857 6.408C250.526 6.89867 250.078 7.272 249.513 7.528C248.947 7.77333 248.313 7.896 247.609 7.896C246.499 7.896 245.593 7.61333 244.889 7.048C244.185 6.472 243.833 5.66133 243.833 4.616V4.328C243.833 3.272 244.185 2.46133 244.889 1.896C245.593 1.33067 246.499 1.048 247.609 1.048C248.697 1.048 249.593 1.33067 250.297 1.896C251.001 2.46133 251.353 3.272 251.353 4.328V4.616ZM244.969 4.6C244.969 5.31467 245.209 5.86933 245.689 6.264C246.179 6.65867 246.819 6.856 247.609 6.856C248.387 6.856 249.011 6.65867 249.481 6.264C249.961 5.86933 250.201 5.31467 250.201 4.6V4.344C250.201 3.62933 249.961 3.07467 249.481 2.68C249.011 2.27467 248.387 2.072 247.609 2.072C246.819 2.072 246.179 2.27467 245.689 2.68C245.209 3.07467 244.969 3.62933 244.969 4.344V4.6ZM252.457 8.76H253.609V10.2H256.217V11.176H249.833V10.2H252.457V8.76ZM246.681 14.376C247.065 14.376 247.529 14.3547 248.073 14.312C248.627 14.28 249.123 14.232 249.561 14.168L249.657 15.192C248.601 15.3307 247.454 15.4 246.217 15.4H245.257V9.688H246.377V14.376H246.681ZM253.721 11.912C254.393 11.912 254.931 12.088 255.337 12.44C255.742 12.7813 255.945 13.2293 255.945 13.784C255.945 14.328 255.742 14.7707 255.337 15.112C254.931 15.4533 254.393 15.624 253.721 15.624H252.329C251.657 15.624 251.118 15.4533 250.713 15.112C250.307 14.7707 250.105 14.328 250.105 13.784C250.105 13.2293 250.307 12.7813 250.713 12.44C251.118 12.088 251.657 11.912 252.329 11.912H253.721ZM253.545 14.68C253.971 14.68 254.297 14.5947 254.521 14.424C254.755 14.264 254.873 14.0507 254.873 13.784C254.873 13.496 254.755 13.2667 254.521 13.096C254.297 12.936 253.971 12.856 253.545 12.856H252.505C252.089 12.856 251.763 12.936 251.529 13.096C251.294 13.2667 251.177 13.496 251.177 13.784C251.177 14.0507 251.294 14.264 251.529 14.424C251.763 14.5947 252.089 14.68 252.505 14.68H253.545ZM270.461 0.648V3.944H272.925V4.984H270.461V8.712H269.325V0.648H270.461ZM262.781 8.04C261.671 8.04 260.765 7.752 260.061 7.176C259.357 6.6 259.005 5.77333 259.005 4.696V4.392C259.005 3.31467 259.357 2.488 260.061 1.912C260.765 1.336 261.671 1.048 262.781 1.048C263.485 1.048 264.119 1.176 264.685 1.432C265.25 1.67733 265.698 2.05067 266.029 2.552C266.359 3.05333 266.525 3.66667 266.525 4.392V4.696C266.525 5.42133 266.359 6.03467 266.029 6.536C265.698 7.03733 265.25 7.416 264.685 7.672C264.119 7.91733 263.485 8.04 262.781 8.04ZM260.141 4.664C260.141 5.41067 260.381 5.992 260.861 6.408C261.351 6.81333 261.991 7.016 262.781 7.016C263.559 7.016 264.183 6.81333 264.653 6.408C265.133 5.992 265.373 5.41067 265.373 4.664V4.424C265.373 3.67733 265.133 3.10133 264.653 2.696C264.183 2.28 263.559 2.072 262.781 2.072C261.991 2.072 261.351 2.28 260.861 2.696C260.381 3.10133 260.141 3.67733 260.141 4.424V4.664ZM269.197 10.456C269.197 10.9787 269.106 11.512 268.925 12.056L272.061 14.712L271.373 15.544L268.445 13.032C267.869 13.9707 266.994 14.808 265.821 15.544L262.909 13.032C262.322 13.96 261.442 14.7973 260.269 15.544L259.661 14.68C261.591 13.4 262.557 11.992 262.557 10.456V9.688H263.677V10.456C263.677 11 263.581 11.528 263.389 12.04L265.885 14.184C267.346 13.0533 268.077 11.8107 268.077 10.456V9.688H269.197V10.456ZM280.481 3.928C279.51 4.87733 277.873 5.66133 275.569 6.28L275.233 5.272C276.929 4.81333 278.214 4.264 279.089 3.624C279.974 2.984 280.417 2.28533 280.417 1.528V0.839999H281.536V1.528C281.536 2.06133 281.409 2.56267 281.153 3.032L286.561 5.304L286.113 6.28L280.481 3.928ZM273.985 8.392V7.4H287.809V8.392H273.985ZM276.913 11.56H284.881V9.832H286.033V15.4H275.777V9.832H276.913V11.56ZM276.913 12.536V14.424H284.881V12.536H276.913ZM301.636 15.4H300.5V0.631999H301.636V15.4ZM290.196 12.936V1.816H291.332V11.896H292.66C293.546 11.896 294.538 11.848 295.636 11.752C296.735 11.656 297.77 11.5333 298.74 11.384L298.868 12.392C297.962 12.552 296.932 12.6853 295.78 12.792C294.628 12.888 293.519 12.936 292.452 12.936H290.196ZM315.992 6.408H318.44V7.464H315.992V15.4H314.84V0.631999H315.992V6.408ZM307.256 11.896C308.099 11.896 309.048 11.8533 310.104 11.768C311.16 11.672 312.179 11.5547 313.16 11.416L313.288 12.424C312.392 12.584 311.39 12.712 310.28 12.808C309.182 12.8933 308.11 12.936 307.064 12.936H304.76V1.816H311.704V2.872H305.912V11.896H307.256ZM320.716 14.792C320.471 14.792 320.263 14.7013 320.092 14.52C319.921 14.3493 319.836 14.1413 319.836 13.896C319.836 13.6507 319.921 13.4427 320.092 13.272C320.263 13.1013 320.471 13.016 320.716 13.016C320.961 13.016 321.169 13.1013 321.34 13.272C321.521 13.4427 321.612 13.6507 321.612 13.896C321.612 14.1413 321.521 14.3493 321.34 14.52C321.169 14.7013 320.961 14.792 320.716 14.792ZM338.836 6.408H341.3V7.464H338.836V15.4H337.7V0.631999H338.836V6.408ZM331.108 1.432C332.206 1.432 333.097 1.832 333.78 2.632C334.473 3.432 334.82 4.664 334.82 6.328V8.536C334.82 10.2 334.473 11.432 333.78 12.232C333.097 13.032 332.206 13.432 331.108 13.432C329.998 13.432 329.097 13.032 328.404 12.232C327.721 11.432 327.38 10.2 327.38 8.536V6.328C327.38 4.664 327.721 3.432 328.404 2.632C329.097 1.832 329.998 1.432 331.108 1.432ZM333.668 6.328C333.668 5.016 333.433 4.05067 332.964 3.432C332.505 2.80267 331.886 2.488 331.108 2.488C330.318 2.488 329.689 2.80267 329.22 3.432C328.75 4.05067 328.516 5.016 328.516 6.328V8.52C328.516 9.832 328.75 10.8027 329.22 11.432C329.689 12.0613 330.318 12.376 331.108 12.376C331.886 12.376 332.505 12.0613 332.964 11.432C333.433 10.8027 333.668 9.832 333.668 8.52V6.328ZM353.912 6.408V0.631999H355.032V15.4H353.912V7.464H351.624V15.128H350.503V0.872H351.624V6.408H353.912ZM345 12.216C345.778 12.216 346.493 12.1893 347.144 12.136C347.794 12.0827 348.504 11.992 349.272 11.864L349.4 12.872C348.674 13.0107 347.965 13.1067 347.272 13.16C346.578 13.224 345.757 13.256 344.808 13.256H342.888V6.936H347.24V2.856H342.888V1.816H348.36V7.976H343.992V12.216H345ZM372.974 15.4V0.631999H374.094V15.4H372.974ZM369.79 4.264V0.872H370.894V15.128H369.79V9.928H367.694C367.545 11.112 367.209 11.992 366.686 12.568C366.163 13.144 365.518 13.432 364.75 13.432C363.833 13.432 363.097 13.032 362.542 12.232C361.987 11.432 361.71 10.2 361.71 8.536V6.328C361.71 4.664 361.987 3.432 362.542 2.632C363.097 1.832 363.833 1.432 364.75 1.432C365.443 1.432 366.035 1.66667 366.526 2.136C367.027 2.59467 367.379 3.304 367.582 4.264H369.79ZM366.67 6.328C366.67 5.016 366.494 4.05067 366.142 3.432C365.801 2.80267 365.331 2.488 364.734 2.488C364.137 2.488 363.667 2.80267 363.326 3.432C362.985 4.05067 362.814 5.016 362.814 6.328V8.52C362.814 9.832 362.985 10.8027 363.326 11.432C363.667 12.0613 364.137 12.376 364.734 12.376C365.331 12.376 365.801 12.0667 366.142 11.448C366.494 10.8187 366.67 9.84267 366.67 8.52V6.328ZM369.79 8.888V5.288H367.726C367.758 5.608 367.774 5.95467 367.774 6.328V8.536V8.888H369.79ZM387.906 15.4V0.631999H389.058V15.4H387.906ZM381.81 3.384C381.81 4.664 381.65 5.88 381.33 7.032L385.922 12.44L385.074 13.192L380.914 8.28C380.21 10.04 379.037 11.7307 377.394 13.352L376.594 12.568C377.981 11.2027 379.01 9.78933 379.682 8.328C380.354 6.856 380.69 5.208 380.69 3.384V1.544H381.81V3.384ZM407.304 6.408H409.752V7.464H407.304V15.4H406.152V0.631999H407.304V6.408ZM400.36 3.4C400.36 4.648 400.206 5.85867 399.896 7.032L404.312 12.456L403.464 13.192L399.48 8.296C398.798 10.0453 397.672 11.7307 396.104 13.352L395.304 12.584C396.638 11.2187 397.624 9.8 398.264 8.328C398.915 6.856 399.24 5.21333 399.24 3.4V1.544H400.36V3.4ZM422.172 0.631999H423.308V11.848H422.172V0.631999ZM415.388 6.184C414.663 7.47467 413.42 8.70667 411.66 9.88L411.052 8.984C412.407 8.03467 413.42 7.08533 414.092 6.136C414.764 5.176 415.1 4.09333 415.1 2.888V2.536H411.628V1.512H419.692V2.536H416.22V2.888C416.22 3.69867 416.092 4.46667 415.836 5.192L420.268 8.664L419.628 9.56L415.388 6.184ZM414.956 10.904V14.344H423.996V15.4H413.82V10.904H414.956ZM438.464 15.4H437.328V0.631999H438.464V15.4ZM430.848 9.416C430.112 9.416 429.451 9.27733 428.864 9C428.288 8.712 427.829 8.28 427.488 7.704C427.147 7.128 426.976 6.424 426.976 5.592V5.256C426.976 4.424 427.147 3.72 427.488 3.144C427.829 2.568 428.288 2.14133 428.864 1.864C429.451 1.576 430.112 1.432 430.848 1.432C431.573 1.432 432.224 1.576 432.8 1.864C433.387 2.14133 433.851 2.568 434.192 3.144C434.533 3.72 434.704 4.424 434.704 5.256V5.592C434.704 6.424 434.533 7.128 434.192 7.704C433.851 8.28 433.387 8.712 432.8 9C432.224 9.27733 431.573 9.416 430.848 9.416ZM430.848 8.36C431.648 8.36 432.299 8.12 432.8 7.64C433.301 7.16 433.552 6.472 433.552 5.576V5.272C433.552 4.376 433.301 3.688 432.8 3.208C432.309 2.71733 431.659 2.472 430.848 2.472C430.037 2.472 429.381 2.71733 428.88 3.208C428.379 3.688 428.128 4.376 428.128 5.272V5.576C428.128 6.472 428.379 7.16 428.88 7.64C429.381 8.12 430.037 8.36 430.848 8.36ZM426.192 12.968L426.128 11.912H428.816C429.765 11.912 430.901 11.8693 432.224 11.784C433.557 11.6987 434.789 11.5867 435.92 11.448L436.048 12.456C434.949 12.616 433.733 12.744 432.4 12.84C431.077 12.9253 429.861 12.968 428.752 12.968H426.192ZM447.991 8.392H457.223V9.448H446.855V1.72H447.991V8.392ZM458.887 14.216H445.063V13.16H458.887V14.216ZM471.579 8.632V0.631999H472.699V8.632H471.579ZM464.715 1.512V2.216C464.715 3.34667 464.437 4.45067 463.883 5.528C463.328 6.60533 462.507 7.58667 461.419 8.472L460.715 7.592C461.632 6.84533 462.331 6.03467 462.811 5.16C463.291 4.27467 463.541 3.40533 463.562 2.552H461.131V1.512H464.715ZM465.083 8.024C466 7.27733 466.699 6.41333 467.179 5.432C467.669 4.45067 467.92 3.49067 467.931 2.552H465.563V1.512H469.067V2.232C469.067 3.45867 468.789 4.65867 468.235 5.832C467.691 7.00533 466.88 8.02933 465.803 8.904L465.083 8.024ZM472.699 15.4H463.211V9.688H472.699V15.4ZM471.563 10.712H464.363V14.36H471.563V10.712ZM486.734 6.568V0.631999H487.87V15.4H486.734V7.608H483.246V6.568H486.734ZM480.766 4.424C480.766 5.384 480.633 6.34933 480.366 7.32L484.814 12.424L483.982 13.192L479.918 8.536C479.225 10.1147 478.057 11.7253 476.414 13.368L475.614 12.568C476.948 11.224 477.95 9.912 478.622 8.632C479.294 7.352 479.63 5.94933 479.63 4.424V4.2H476.126V3.16H479.63V0.648H480.766V3.16H484.302V4.2H480.766V4.424ZM501.922 3.96V0.631999H503.058V8.952H501.922V4.968H499.202V3.96H501.922ZM500.21 7.96C499.325 8.12 498.317 8.248 497.186 8.344C496.066 8.44 494.984 8.488 493.938 8.488H491.458V4.392H497.01V2.44H491.458V1.432H498.13V5.384H492.578V7.464H494.13C495.016 7.464 495.997 7.42133 497.074 7.336C498.152 7.25067 499.154 7.13333 500.082 6.984L500.21 7.96ZM503.058 15.4H493.57V9.992H503.058V15.4ZM501.922 11.016H494.706V14.36H501.922V11.016ZM521.193 6.408V0.631999H522.313V15.4H521.193V7.464H518.905V15.128H517.785V0.872H518.905V6.408H521.193ZM510.281 2.936V1.896H515.785V3.032C515.785 5.048 515.347 6.94133 514.473 8.712C513.598 10.4827 512.382 12.088 510.825 13.528L510.009 12.696C511.449 11.4053 512.579 9.93333 513.401 8.28C514.233 6.62667 514.649 4.952 514.649 3.256V2.936H510.281ZM536.477 0.631999V3.624H538.925V4.68H536.477V7.944H535.325V0.631999H536.477ZM530.957 1.272H532.077V7.352H525.165V1.272H526.285V3.256H530.957V1.272ZM526.285 4.264V6.344H530.957V4.264H526.285ZM536.477 12.68H528.429V14.472H537.085V15.48H527.277V11.704H535.325V9.976H527.197V8.984H536.477V12.68ZM555.427 15.4V0.631999H556.547V15.4H555.427ZM552.243 4.264V0.872H553.347V15.128H552.243V9.928H550.147C549.998 11.112 549.662 11.992 549.139 12.568C548.616 13.144 547.971 13.432 547.203 13.432C546.286 13.432 545.55 13.032 544.995 12.232C544.44 11.432 544.163 10.2 544.163 8.536V6.328C544.163 4.664 544.44 3.432 544.995 2.632C545.55 1.832 546.286 1.432 547.203 1.432C547.896 1.432 548.488 1.66667 548.979 2.136C549.48 2.59467 549.832 3.304 550.035 4.264H552.243ZM549.123 6.328C549.123 5.016 548.947 4.05067 548.595 3.432C548.254 2.80267 547.784 2.488 547.187 2.488C546.59 2.488 546.12 2.80267 545.779 3.432C545.438 4.05067 545.267 5.016 545.267 6.328V8.52C545.267 9.832 545.438 10.8027 545.779 11.432C546.12 12.0613 546.59 12.376 547.187 12.376C547.784 12.376 548.254 12.0667 548.595 11.448C548.947 10.8187 549.123 9.84267 549.123 8.52V6.328ZM552.243 8.888V5.288H550.179C550.211 5.608 550.227 5.95467 550.227 6.328V8.536V8.888H552.243ZM567.191 5.016V4.008H570.375V0.648H571.511V8.712H570.375V5.016H567.191ZM563.479 5.624C562.775 6.744 561.554 7.8 559.815 8.792L559.255 7.88C560.588 7.09067 561.58 6.29067 562.231 5.48C562.882 4.65867 563.207 3.72533 563.207 2.68V2.456H559.847V1.432H567.719V2.456H564.327V2.68C564.327 3.40533 564.21 4.072 563.975 4.68L568.295 7.624L567.703 8.568L563.479 5.624ZM568.279 9.608C568.983 9.608 569.596 9.74133 570.119 10.008C570.642 10.264 571.042 10.6213 571.319 11.08C571.596 11.528 571.735 12.0293 571.735 12.584C571.735 13.1493 571.596 13.656 571.319 14.104C571.042 14.552 570.642 14.904 570.119 15.16C569.596 15.416 568.983 15.544 568.279 15.544H565.175C564.471 15.544 563.858 15.416 563.335 15.16C562.812 14.904 562.412 14.552 562.135 14.104C561.858 13.656 561.719 13.1493 561.719 12.584C561.719 12.0293 561.858 11.528 562.135 11.08C562.412 10.6213 562.812 10.264 563.335 10.008C563.858 9.74133 564.471 9.608 565.175 9.608H568.279ZM568.055 14.52C568.876 14.52 569.5 14.3387 569.927 13.976C570.364 13.624 570.583 13.1547 570.583 12.568C570.583 12.0027 570.364 11.5387 569.927 11.176C569.5 10.8133 568.876 10.632 568.055 10.632H565.399C564.578 10.632 563.948 10.8133 563.511 11.176C563.074 11.5387 562.855 12.0027 562.855 12.568C562.855 13.1547 563.074 13.624 563.511 13.976C563.948 14.3387 564.578 14.52 565.399 14.52H568.055ZM585.547 8.328V0.631999H586.699V8.328H585.547ZM582.523 4.6C582.523 5.304 582.352 5.90667 582.011 6.408C581.68 6.89867 581.222 7.272 580.635 7.528C580.059 7.77333 579.414 7.896 578.699 7.896C577.974 7.896 577.318 7.77333 576.731 7.528C576.155 7.272 575.696 6.89867 575.355 6.408C575.024 5.90667 574.859 5.304 574.859 4.6V4.328C574.859 3.272 575.216 2.46133 575.931 1.896C576.656 1.32 577.579 1.032 578.699 1.032C579.808 1.032 580.72 1.32 581.435 1.896C582.16 2.46133 582.523 3.272 582.523 4.328V4.6ZM576.011 4.584C576.011 5.29867 576.256 5.85867 576.747 6.264C577.238 6.65867 577.888 6.856 578.699 6.856C579.499 6.856 580.144 6.65867 580.635 6.264C581.136 5.85867 581.387 5.29867 581.387 4.584V4.344C581.387 3.61867 581.136 3.05867 580.635 2.664C580.144 2.26933 579.499 2.072 578.699 2.072C577.888 2.072 577.238 2.26933 576.747 2.664C576.256 3.05867 576.011 3.61867 576.011 4.344V4.584ZM578.347 11.192H585.547V9.224H586.699V15.4H577.211V9.224H578.347V11.192ZM578.347 12.216V14.36H585.547V12.216H578.347ZM601.871 15.4H600.735V0.631999H601.871V15.4ZM590.431 12.936V1.816H591.567V11.896H592.895C593.78 11.896 594.772 11.848 595.871 11.752C596.969 11.656 598.004 11.5333 598.975 11.384L599.103 12.392C598.196 12.552 597.167 12.6853 596.015 12.792C594.863 12.888 593.753 12.936 592.687 12.936H590.431ZM616.227 6.408H618.675V7.464H616.227V15.4H615.075V0.631999H616.227V6.408ZM607.491 11.896C608.333 11.896 609.283 11.8533 610.339 11.768C611.395 11.672 612.413 11.5547 613.395 11.416L613.523 12.424C612.627 12.584 611.624 12.712 610.515 12.808C609.416 12.8933 608.344 12.936 607.299 12.936H604.995V1.816H611.939V2.872H606.147V11.896H607.491ZM620.951 14.792C620.705 14.792 620.497 14.7013 620.327 14.52C620.156 14.3493 620.071 14.1413 620.071 13.896C620.071 13.6507 620.156 13.4427 620.327 13.272C620.497 13.1013 620.705 13.016 620.951 13.016C621.196 13.016 621.404 13.1013 621.575 13.272C621.756 13.4427 621.847 13.6507 621.847 13.896C621.847 14.1413 621.756 14.3493 621.575 14.52C621.404 14.7013 621.196 14.792 620.951 14.792ZM3 34.568C2.552 34.568 2.136 34.4613 1.752 34.248C1.37867 34.024 1.08 33.7253 0.856 33.352C0.642667 32.968 0.536 32.5573 0.536 32.12C0.536 31.672 0.642667 31.2613 0.856 30.888C1.08 30.504 1.37867 30.2053 1.752 29.992C2.136 29.768 2.552 29.656 3 29.656C3.448 29.656 3.85867 29.768 4.232 29.992C4.616 30.2053 4.91467 30.504 5.128 30.888C5.352 31.2613 5.464 31.672 5.464 32.12C5.464 32.5573 5.352 32.968 5.128 33.352C4.91467 33.7253 4.616 34.024 4.232 34.248C3.85867 34.4613 3.448 34.568 3 34.568ZM27.016 39.4V24.632H28.152V39.4H27.016ZM17.592 30.04H22.392V25.656H23.528V36.968H16.472V25.656H17.592V30.04ZM17.592 31.08V35.912H22.392V31.08H17.592ZM42.3959 30.408V24.632H43.5159V39.4H42.3959V31.464H40.1079V39.128H39.0039V24.872H40.1079V30.408H42.3959ZM33.3879 35.896C34.8492 35.896 36.3105 35.784 37.7719 35.56L37.8999 36.584C36.5559 36.8187 34.9932 36.936 33.2119 36.936H31.4519V25.816H36.8919V26.872H32.6039V35.896H33.3879ZM57.3598 30.952H53.8558V32.808H46.8158V25.512H53.8558V26.888H57.3598V24.632H58.5118V35.848H57.3598V30.952ZM47.9358 31.784H52.7358V26.536H47.9358V31.784ZM57.3598 29.992V27.88H53.8558V29.992H57.3598ZM50.1598 34.904V38.344H59.1998V39.4H49.0238V34.904H50.1598ZM76.4223 24.632H77.5583V35.848H76.4223V24.632ZM69.6383 30.184C68.9129 31.4747 67.6703 32.7067 65.9103 33.88L65.3023 32.984C66.6569 32.0347 67.6703 31.0853 68.3423 30.136C69.0143 29.176 69.3503 28.0933 69.3503 26.888V26.536H65.8783V25.512H73.9423V26.536H70.4703V26.888C70.4703 27.6987 70.3423 28.4667 70.0863 29.192L74.5183 32.664L73.8783 33.56L69.6383 30.184ZM69.2063 34.904V38.344H78.2463V39.4H68.0703V34.904H69.2063ZM82.0421 29.16H91.1461V26.76H81.9621V25.72H92.2981V30.184H83.1781V32.664H92.6181V33.688H82.0421V29.16ZM90.2021 34.568V37.16H94.0741V38.216H80.2501V37.16H84.1381V34.568H85.2581V37.16H89.0821V34.568H90.2021ZM107.214 30.568H109.518V31.608H107.214V39.4H106.078V24.632H107.214V30.568ZM100.286 35.832C101.854 35.7573 103.315 35.6347 104.67 35.464L104.798 36.472C103.731 36.6213 102.542 36.744 101.23 36.84C99.9287 36.9253 98.7447 36.968 97.678 36.968H95.246L95.198 35.912H97.742C97.9873 35.912 98.4513 35.9013 99.134 35.88V33.384C98.1527 33.288 97.358 32.92 96.75 32.28C96.142 31.6293 95.838 30.7333 95.838 29.592V29.256C95.838 28.424 96.0033 27.72 96.334 27.144C96.6753 26.568 97.1287 26.1413 97.694 25.864C98.27 25.576 98.9153 25.432 99.63 25.432C100.345 25.432 100.985 25.576 101.55 25.864C102.126 26.1413 102.579 26.568 102.91 27.144C103.251 27.72 103.422 28.424 103.422 29.256V29.592C103.422 30.7013 103.134 31.576 102.558 32.216C101.982 32.856 101.225 33.24 100.286 33.368V35.832ZM96.99 29.576C96.99 30.472 97.23 31.16 97.71 31.64C98.2007 32.12 98.8407 32.36 99.63 32.36C100.419 32.36 101.054 32.12 101.534 31.64C102.025 31.16 102.27 30.472 102.27 29.576V29.272C102.27 28.376 102.025 27.688 101.534 27.208C101.054 26.7173 100.419 26.472 99.63 26.472C98.8407 26.472 98.2007 26.7173 97.71 27.208C97.23 27.688 96.99 28.376 96.99 29.272V29.576ZM125.237 24.84H126.389V29.768H116.421V24.84H117.557V26.344H125.237V24.84ZM117.557 27.304V28.808H125.237V27.304H117.557ZM114.485 32.072V31.096H128.309V32.072H114.485ZM126.533 36.872H117.413V38.504H126.933V39.48H116.277V35.912H125.381V34.328H116.197V33.368H126.533V36.872ZM131.448 28.44H140.552V26.424H131.368V25.416H141.704V29.416H132.584V31.48H142.024V32.456H131.448V28.44ZM129.656 34.312H143.48V35.336H137.144V39.576H136.008V35.336H129.656V34.312ZM147.756 31.48H157.196V32.456H146.62V25.416H156.876V26.424H147.756V28.424H156.876V29.416H147.756V31.48ZM144.828 34.312H158.652V35.336H152.316V39.576H151.18V35.336H144.828V34.312ZM166.608 29.768C165.616 31.2507 163.867 32.5893 161.36 33.784L160.832 32.808C162.731 31.8907 164.133 30.9307 165.04 29.928C165.957 28.9147 166.416 27.8267 166.416 26.664V25.48H167.552V26.664C167.552 27.3893 167.408 28.0987 167.12 28.792L172.992 32.856L172.352 33.784L166.608 29.768ZM160 38.2V37.16H173.824V38.2H160ZM184.167 26.024H187.703V26.984H179.479V26.024H182.999V24.44H184.167V26.024ZM187.687 28.616V27.688H190.407V24.632H191.543V32.328H190.407V31.16H187.687V30.232H190.407V28.616H187.687ZM187.015 30.168C187.015 30.8613 186.695 31.4053 186.055 31.8C185.425 32.184 184.609 32.376 183.607 32.376C182.593 32.376 181.767 32.184 181.127 31.8C180.487 31.4053 180.167 30.8613 180.167 30.168V29.976C180.167 29.2827 180.487 28.744 181.127 28.36C181.767 27.976 182.593 27.784 183.607 27.784C184.609 27.784 185.425 27.976 186.055 28.36C186.695 28.744 187.015 29.2827 187.015 29.976V30.168ZM181.271 30.152C181.271 30.5253 181.489 30.8293 181.927 31.064C182.375 31.2987 182.935 31.416 183.607 31.416C184.279 31.416 184.833 31.2987 185.271 31.064C185.708 30.8293 185.927 30.5253 185.927 30.152V30.024C185.927 29.64 185.703 29.3307 185.255 29.096C184.817 28.8613 184.268 28.744 183.607 28.744C182.935 28.744 182.375 28.8613 181.927 29.096C181.489 29.3307 181.271 29.64 181.271 30.024V30.152ZM183.191 36.872V38.488H192.167V39.464H182.055V35.912H190.407V34.328H181.975V33.368H191.543V36.872H183.191ZM205.883 27.784H208.347V28.824H205.883V32.328H204.747V24.632H205.883V27.784ZM201.947 28.6C201.947 29.304 201.781 29.9067 201.451 30.408C201.12 30.8987 200.672 31.272 200.107 31.528C199.541 31.7733 198.907 31.896 198.203 31.896C197.093 31.896 196.187 31.6133 195.483 31.048C194.779 30.472 194.427 29.656 194.427 28.6V28.328C194.427 27.2613 194.779 26.4453 195.483 25.88C196.187 25.3147 197.093 25.032 198.203 25.032C199.301 25.032 200.197 25.32 200.891 25.896C201.595 26.4613 201.947 27.272 201.947 28.328V28.6ZM195.562 28.584C195.562 29.2987 195.803 29.8587 196.283 30.264C196.773 30.6587 197.413 30.856 198.203 30.856C198.981 30.856 199.605 30.6587 200.075 30.264C200.555 29.8587 200.795 29.2987 200.795 28.584V28.344C200.795 27.6187 200.555 27.0587 200.075 26.664C199.605 26.2693 198.981 26.072 198.203 26.072C197.413 26.072 196.773 26.2693 196.283 26.664C195.803 27.0587 195.562 27.6187 195.562 28.344V28.584ZM197.851 35.192H204.747V33.224H205.883V39.4H196.699V33.224H197.851V35.192ZM197.851 36.216V38.36H204.747V36.216H197.851ZM220.958 39.4V24.632H222.078V39.4H220.958ZM217.774 28.408V24.872H218.878V39.128H217.774V34.072H215.006V33.048H217.774V29.448H215.31C215.022 30.9733 214.473 32.4133 213.662 33.768C212.852 35.1227 211.828 36.376 210.59 37.528L209.774 36.696C211.214 35.416 212.345 33.9493 213.166 32.296C213.988 30.6427 214.398 28.9627 214.398 27.256V26.936H210.046V25.896H215.534V27.032C215.534 27.352 215.513 27.8107 215.47 28.408H217.774ZM225.858 41.352H224.914L225.25 37.112H226.402L225.858 41.352ZM237.214 26.024H240.75V26.984H232.526V26.024H236.046V24.44H237.214V26.024ZM240.734 28.616V27.688H243.454V24.632H244.59V32.328H243.454V31.16H240.734V30.232H243.454V28.616H240.734ZM240.062 30.168C240.062 30.8613 239.742 31.4053 239.102 31.8C238.472 32.184 237.656 32.376 236.654 32.376C235.64 32.376 234.814 32.184 234.174 31.8C233.534 31.4053 233.214 30.8613 233.214 30.168V29.976C233.214 29.2827 233.534 28.744 234.174 28.36C234.814 27.976 235.64 27.784 236.654 27.784C237.656 27.784 238.472 27.976 239.102 28.36C239.742 28.744 240.062 29.2827 240.062 29.976V30.168ZM234.318 30.152C234.318 30.5253 234.536 30.8293 234.974 31.064C235.422 31.2987 235.982 31.416 236.654 31.416C237.326 31.416 237.88 31.2987 238.318 31.064C238.755 30.8293 238.974 30.5253 238.974 30.152V30.024C238.974 29.64 238.75 29.3307 238.302 29.096C237.864 28.8613 237.315 28.744 236.654 28.744C235.982 28.744 235.422 28.8613 234.974 29.096C234.536 29.3307 234.318 29.64 234.318 30.024V30.152ZM236.238 36.872V38.488H245.214V39.464H235.102V35.912H243.454V34.328H235.022V33.368H244.59V36.872H236.238ZM258.945 24.648V27.944H261.393V28.984H258.945V32.712H257.793V24.648H258.945ZM256.241 31.592C255.345 31.752 254.343 31.88 253.233 31.976C252.135 32.0613 251.063 32.104 250.017 32.104H247.713V25.432H254.657V26.472H248.865V31.064H250.209C251.073 31.064 252.033 31.0213 253.089 30.936C254.156 30.8507 255.164 30.7333 256.113 30.584L256.241 31.592ZM255.857 33.608C256.561 33.608 257.175 33.7413 257.697 34.008C258.22 34.264 258.62 34.6213 258.897 35.08C259.175 35.528 259.313 36.0293 259.313 36.584C259.313 37.1493 259.175 37.656 258.897 38.104C258.62 38.552 258.22 38.904 257.697 39.16C257.175 39.416 256.561 39.544 255.857 39.544H252.881C252.177 39.544 251.564 39.416 251.041 39.16C250.529 38.904 250.135 38.552 249.857 38.104C249.58 37.656 249.441 37.1493 249.441 36.584C249.441 36.0293 249.58 35.528 249.857 35.08C250.135 34.6213 250.529 34.264 251.041 34.008C251.564 33.7413 252.177 33.608 252.881 33.608H255.857ZM255.649 38.52C256.46 38.52 257.079 38.3387 257.505 37.976C257.932 37.624 258.145 37.1547 258.145 36.568C258.145 36.0027 257.932 35.5387 257.505 35.176C257.079 34.8133 256.46 34.632 255.649 34.632H253.105C252.295 34.632 251.671 34.8133 251.233 35.176C250.807 35.5387 250.593 36.0027 250.593 36.568C250.593 37.1547 250.807 37.624 251.233 37.976C251.66 38.3387 252.284 38.52 253.105 38.52H255.649ZM267.496 30.616C270.952 29.6453 272.712 28.4453 272.776 27.016H268.28V25.976H272.76V24.408H273.88V25.976H278.248V27.016H273.88C273.869 27.4747 273.757 27.912 273.544 28.328L279 30.648L278.552 31.592L272.92 29.16C271.992 30.0987 270.301 30.9093 267.848 31.592L267.496 30.616ZM266.344 33.656V32.664H280.168V33.656H266.344ZM277.24 36.376H268.136V35.368H278.392V39.544H277.24V36.376ZM289.66 29.016V28.008H292.844V24.648H293.98V32.712H292.844V29.016H289.66ZM285.948 29.624C285.244 30.744 284.022 31.8 282.284 32.792L281.724 31.88C283.057 31.0907 284.049 30.2907 284.7 29.48C285.35 28.6587 285.676 27.7253 285.676 26.68V26.456H282.316V25.432H290.188V26.456H286.796V26.68C286.796 27.4053 286.678 28.072 286.444 28.68L290.764 31.624L290.172 32.568L285.948 29.624ZM290.748 33.608C291.452 33.608 292.065 33.7413 292.588 34.008C293.11 34.264 293.51 34.6213 293.788 35.08C294.065 35.528 294.204 36.0293 294.204 36.584C294.204 37.1493 294.065 37.656 293.788 38.104C293.51 38.552 293.11 38.904 292.588 39.16C292.065 39.416 291.452 39.544 290.748 39.544H287.644C286.94 39.544 286.326 39.416 285.804 39.16C285.281 38.904 284.881 38.552 284.604 38.104C284.326 37.656 284.188 37.1493 284.188 36.584C284.188 36.0293 284.326 35.528 284.604 35.08C284.881 34.6213 285.281 34.264 285.804 34.008C286.326 33.7413 286.94 33.608 287.644 33.608H290.748ZM290.524 38.52C291.345 38.52 291.969 38.3387 292.396 37.976C292.833 37.624 293.052 37.1547 293.052 36.568C293.052 36.0027 292.833 35.5387 292.396 35.176C291.969 34.8133 291.345 34.632 290.524 34.632H287.868C287.046 34.632 286.417 34.8133 285.98 35.176C285.542 35.5387 285.324 36.0027 285.324 36.568C285.324 37.1547 285.542 37.624 285.98 37.976C286.417 38.3387 287.046 38.52 287.868 38.52H290.524ZM308.032 39.4V24.632H309.168V39.4H308.032ZM297.696 26.936V25.896H304.672V27.032C304.672 29.08 304.101 31 302.96 32.792C301.818 34.584 300.213 36.1627 298.144 37.528L297.472 36.632C299.36 35.4053 300.837 33.9653 301.904 32.312C302.981 30.6587 303.52 28.9733 303.52 27.256V26.936H297.696ZM317.686 25H327.494V25.992H318.822V29.08H327.654V30.088H317.686V25ZM329.574 32.648H315.75V31.624H329.574V32.648ZM321.046 39.56C319.873 39.56 318.966 39.3147 318.326 38.824C317.697 38.344 317.382 37.7093 317.382 36.92C317.382 36.1413 317.702 35.512 318.342 35.032C318.982 34.5413 319.883 34.296 321.046 34.296H324.278C325.451 34.296 326.358 34.5413 326.998 35.032C327.638 35.512 327.958 36.1413 327.958 36.92C327.958 37.7093 327.638 38.344 326.998 38.824C326.358 39.3147 325.451 39.56 324.278 39.56H321.046ZM324.022 38.552C324.939 38.552 325.633 38.4027 326.102 38.104C326.571 37.816 326.806 37.4213 326.806 36.92C326.806 36.4187 326.571 36.0293 326.102 35.752C325.633 35.464 324.939 35.32 324.022 35.32H321.302C320.385 35.32 319.691 35.464 319.222 35.752C318.753 36.0293 318.518 36.4187 318.518 36.92C318.518 37.4213 318.753 37.816 319.222 38.104C319.691 38.4027 320.385 38.552 321.302 38.552H324.022ZM336.794 29.528C335.471 29.528 334.447 29.3307 333.722 28.936C332.997 28.5413 332.634 27.9387 332.634 27.128C332.634 26.3173 332.997 25.72 333.722 25.336C334.447 24.952 335.471 24.76 336.794 24.76H338.874C340.207 24.76 341.237 24.952 341.962 25.336C342.687 25.72 343.05 26.3173 343.05 27.128C343.05 27.9387 342.682 28.5413 341.946 28.936C341.221 29.3307 340.197 29.528 338.874 29.528H336.794ZM338.698 28.552C339.743 28.552 340.538 28.4347 341.082 28.2C341.626 27.9547 341.898 27.5973 341.898 27.128C341.898 26.2 340.831 25.736 338.698 25.736H336.986C334.842 25.736 333.77 26.2 333.77 27.128C333.77 28.0773 334.842 28.552 336.986 28.552H338.698ZM344.746 31.768H330.922V30.792H344.746V31.768ZM343.37 39.48H332.714V35.832H341.818V34.168H332.634V33.208H342.97V36.792H333.85V38.504H343.37V39.48ZM357.985 30.952C357.718 31.6773 357.27 32.232 356.641 32.616C356.011 33 355.286 33.192 354.465 33.192C353.739 33.192 353.083 33.048 352.497 32.76C351.921 32.472 351.462 32.04 351.121 31.464C350.79 30.888 350.625 30.1787 350.625 29.336V29C350.625 28.1573 350.79 27.4427 351.121 26.856C351.462 26.2693 351.921 25.832 352.497 25.544C353.083 25.256 353.739 25.112 354.465 25.112C355.19 25.112 355.841 25.2613 356.417 25.56C357.003 25.8587 357.457 26.3013 357.777 26.888H361.329V24.632H362.481V35.848H361.329V30.952H357.985ZM351.777 29.32C351.777 30.2373 352.022 30.9413 352.513 31.432C353.014 31.9227 353.665 32.168 354.465 32.168C355.254 32.168 355.894 31.9227 356.385 31.432C356.875 30.9413 357.121 30.2373 357.121 29.32V29C357.121 28.0827 356.875 27.3787 356.385 26.888C355.894 26.3867 355.254 26.136 354.465 26.136C353.665 26.136 353.014 26.3867 352.513 26.888C352.022 27.3787 351.777 28.0827 351.777 29V29.32ZM361.329 27.88H358.145C358.219 28.2747 358.257 28.648 358.257 29V29.336C358.257 29.496 358.246 29.7147 358.225 29.992H361.329V27.88ZM354.129 34.68V38.344H363.169V39.4H352.977V34.68H354.129ZM372.836 27.8C372.431 28.7493 371.679 29.5813 370.58 30.296C369.482 31 368.09 31.592 366.404 32.072L366.004 31.08C367.828 30.5573 369.274 29.896 370.34 29.096C371.418 28.2853 371.978 27.4107 372.02 26.472H366.244V25.432H373.172V26.104C373.172 26.3707 373.151 26.6107 373.108 26.824H376.5V24.632H377.652V31.864H376.5V30.424H372.788V29.448H376.5V27.8H372.836ZM369.3 36.648V38.472H378.26V39.48H368.164V35.656H376.5V33.896H368.084V32.92H377.652V36.648H369.3ZM391.976 30.408H394.44V31.464H391.976V39.4H390.84V24.632H391.976V30.408ZM384.12 24.648H385.256V26.984H388.968V28.024H380.408V26.984H384.12V24.648ZM384.712 29.544C385.374 29.544 385.971 29.688 386.504 29.976C387.048 30.2533 387.475 30.6533 387.784 31.176C388.104 31.6987 388.264 32.3067 388.264 33V33.848C388.264 34.5413 388.104 35.1547 387.784 35.688C387.475 36.2107 387.048 36.616 386.504 36.904C385.971 37.1813 385.374 37.32 384.712 37.32C384.04 37.32 383.432 37.1813 382.888 36.904C382.344 36.616 381.912 36.2107 381.592 35.688C381.283 35.1547 381.128 34.5413 381.128 33.848V33C381.128 32.3067 381.283 31.6987 381.592 31.176C381.912 30.6533 382.344 30.2533 382.888 29.976C383.432 29.688 384.04 29.544 384.712 29.544ZM387.128 33.048C387.128 32.3013 386.899 31.7093 386.44 31.272C385.982 30.824 385.406 30.6 384.712 30.6C384.008 30.6 383.427 30.824 382.968 31.272C382.51 31.7093 382.28 32.3013 382.28 33.048V33.8C382.28 34.5573 382.51 35.16 382.968 35.608C383.427 36.056 384.008 36.28 384.712 36.28C385.406 36.28 385.982 36.056 386.44 35.608C386.899 35.1493 387.128 34.5467 387.128 33.8V33.048ZM398.572 29.72H407.516V30.776H397.436V25H398.572V29.72ZM409.324 33.72H395.5V32.664H409.324V33.72ZM407.788 39.4H397.436V35.112H398.572V38.344H407.788V39.4ZM426.115 39.4V24.632H427.235V39.4H426.115ZM419.331 30.408H422.931V24.872H424.035V39.128H422.931V31.464H419.331V30.408ZM417.107 35.896C418.568 35.896 420.029 35.784 421.491 35.56L421.619 36.584C420.275 36.8187 418.712 36.936 416.931 36.936H415.171V25.816H420.611V26.872H416.323V35.896H417.107ZM442.215 31.864H441.079V24.632H442.215V31.864ZM434.231 31.432C433.111 31.432 432.188 31.1653 431.463 30.632C430.737 30.088 430.375 29.32 430.375 28.328V28.072C430.375 27.0693 430.732 26.3013 431.447 25.768C432.172 25.2347 433.1 24.968 434.231 24.968C435.34 24.968 436.252 25.2347 436.967 25.768C437.692 26.3013 438.055 27.0693 438.055 28.072V28.328C438.055 29.32 437.692 30.088 436.967 30.632C436.252 31.1653 435.34 31.432 434.231 31.432ZM434.231 30.392C435.031 30.392 435.676 30.2107 436.167 29.848C436.668 29.4853 436.919 28.968 436.919 28.296V28.088C436.919 27.4267 436.668 26.9147 436.167 26.552C435.676 26.1787 435.031 25.992 434.231 25.992C433.42 25.992 432.764 26.1787 432.263 26.552C431.772 26.9147 431.527 27.4267 431.527 28.088V28.296C431.527 28.968 431.772 29.4853 432.263 29.848C432.764 30.2107 433.42 30.392 434.231 30.392ZM442.839 39.48H432.727V35.656H441.079V33.896H432.663V32.92H442.215V36.648H433.879V38.472H442.839V39.48ZM457.386 39.4H456.25V24.632H457.386V39.4ZM445.786 37.256V30.936H451.514V26.856H445.786V25.816H452.666V31.976H446.922V36.216H448.474C449.36 36.216 450.341 36.1733 451.418 36.088C452.506 35.992 453.525 35.8693 454.474 35.72L454.618 36.712C453.744 36.8827 452.741 37.016 451.61 37.112C450.48 37.208 449.37 37.256 448.282 37.256H445.786ZM468.113 26.024H471.041V26.984H464.033V26.024H466.945V24.44H468.113V26.024ZM475.537 24.632H476.657V32.328H475.537V24.632ZM470.465 30.168C470.465 30.872 470.198 31.416 469.665 31.8C469.132 32.184 468.428 32.376 467.553 32.376C466.668 32.376 465.958 32.184 465.425 31.8C464.902 31.416 464.641 30.872 464.641 30.168V29.976C464.641 29.272 464.902 28.7333 465.425 28.36C465.958 27.976 466.668 27.784 467.553 27.784C468.641 27.784 469.441 28.0613 469.953 28.616V28.568H472.433V24.792H473.521V32.328H472.433V29.576H470.433C470.454 29.7467 470.465 29.88 470.465 29.976V30.168ZM465.697 30.136C465.697 30.5307 465.868 30.8453 466.209 31.08C466.55 31.3147 466.998 31.432 467.553 31.432C468.108 31.432 468.55 31.3147 468.881 31.08C469.222 30.8453 469.393 30.5307 469.393 30.136V30.024C469.393 29.6293 469.222 29.3147 468.881 29.08C468.54 28.8453 468.097 28.728 467.553 28.728C466.998 28.728 466.55 28.8453 466.209 29.08C465.868 29.3147 465.697 29.6293 465.697 30.024V30.136ZM468.257 36.872V38.488H477.265V39.464H467.105V35.912H475.505V34.328H467.041V33.368H476.657V36.872H468.257ZM485.749 29.768C484.757 31.2507 483.007 32.5893 480.501 33.784L479.973 32.808C481.871 31.8907 483.274 30.9307 484.181 29.928C485.098 28.9147 485.557 27.8267 485.557 26.664V25.48H486.693V26.664C486.693 27.3893 486.549 28.0987 486.261 28.792L492.133 32.856L491.493 33.784L485.749 29.768ZM479.141 38.2V37.16H492.965V38.2H479.141ZM509.739 39.4V24.632H510.859V39.4H509.739ZM502.267 28.424C502.267 29.4267 502.161 30.4133 501.947 31.384L505.467 36.504L504.555 37.176L501.547 32.76C501.025 34.264 500.139 35.7947 498.891 37.352L498.043 36.648C499.11 35.304 499.894 33.9867 500.395 32.696C500.907 31.4053 501.163 29.9813 501.163 28.424V28.2H498.491V27.16H501.163V24.648H502.283V27.16H505.003V28.2H502.267V28.424ZM503.947 30.568H506.555V24.872H507.659V39.128H506.555V31.608H503.947V30.568ZM524.143 29.992C524.239 29 524.287 28.152 524.287 27.448V26.92H515.087V25.88H525.423V27.192C525.423 28.2693 525.343 29.5387 525.183 31C525.023 32.4613 524.815 33.8747 524.559 35.24L523.439 35.032C523.684 33.7413 523.882 32.4133 524.031 31.048C522.975 31.1653 521.684 31.256 520.159 31.32C518.634 31.384 517.279 31.416 516.095 31.416H515.055L515.007 30.376H516.159C517.226 30.376 518.548 30.344 520.127 30.28C521.706 30.2053 523.044 30.1093 524.143 29.992ZM513.375 38.216V37.16H527.199V38.216H513.375ZM543.782 39.4V24.632H544.918V39.4H543.782ZM533.446 26.936V25.896H540.422V27.032C540.422 29.08 539.851 31 538.71 32.792C537.568 34.584 535.963 36.1627 533.894 37.528L533.222 36.632C535.11 35.4053 536.587 33.9653 537.654 32.312C538.731 30.6587 539.27 28.9733 539.27 27.256V26.936H533.446ZM550.682 29.032H559.626V30.088H549.546V25H550.682V29.032ZM561.434 32.648H547.61V31.624H561.434V32.648ZM552.906 39.56C551.732 39.56 550.826 39.3147 550.186 38.824C549.556 38.344 549.242 37.7093 549.242 36.92C549.242 36.1413 549.562 35.512 550.202 35.032C550.842 34.5413 551.743 34.296 552.906 34.296H556.138C557.311 34.296 558.218 34.5413 558.858 35.032C559.498 35.512 559.818 36.1413 559.818 36.92C559.818 37.7093 559.498 38.344 558.858 38.824C558.218 39.3147 557.311 39.56 556.138 39.56H552.906ZM555.882 38.552C556.799 38.552 557.492 38.4027 557.962 38.104C558.431 37.816 558.666 37.4213 558.666 36.92C558.666 36.4187 558.431 36.0293 557.962 35.752C557.492 35.464 556.799 35.32 555.882 35.32H553.162C552.244 35.32 551.551 35.464 551.082 35.752C550.612 36.0293 550.378 36.4187 550.378 36.92C550.378 37.4213 550.612 37.816 551.082 38.104C551.551 38.4027 552.244 38.552 553.162 38.552H555.882ZM575.245 39.4H574.109V24.632H575.245V39.4ZM567.629 33.416C566.893 33.416 566.232 33.2773 565.645 33C565.069 32.712 564.611 32.28 564.269 31.704C563.928 31.128 563.757 30.424 563.757 29.592V29.256C563.757 28.424 563.928 27.72 564.269 27.144C564.611 26.568 565.069 26.1413 565.645 25.864C566.232 25.576 566.893 25.432 567.629 25.432C568.355 25.432 569.005 25.576 569.581 25.864C570.168 26.1413 570.632 26.568 570.973 27.144C571.315 27.72 571.485 28.424 571.485 29.256V29.592C571.485 30.424 571.315 31.128 570.973 31.704C570.632 32.28 570.168 32.712 569.581 33C569.005 33.2773 568.355 33.416 567.629 33.416ZM567.629 32.36C568.429 32.36 569.08 32.12 569.581 31.64C570.083 31.16 570.333 30.472 570.333 29.576V29.272C570.333 28.376 570.083 27.688 569.581 27.208C569.091 26.7173 568.44 26.472 567.629 26.472C566.819 26.472 566.163 26.7173 565.661 27.208C565.16 27.688 564.909 28.376 564.909 29.272V29.576C564.909 30.472 565.16 31.16 565.661 31.64C566.163 32.12 566.819 32.36 567.629 32.36ZM562.973 36.968L562.909 35.912H565.597C566.547 35.912 567.683 35.8693 569.005 35.784C570.339 35.6987 571.571 35.5867 572.701 35.448L572.829 36.456C571.731 36.616 570.515 36.744 569.181 36.84C567.859 36.9253 566.643 36.968 565.533 36.968H562.973ZM593.156 29.944V24.632H594.308V39.4H593.156V31H589.364V29.944H593.156ZM587.06 27.384C587.06 28.664 586.9 29.88 586.58 31.032L591.172 36.44L590.324 37.192L586.164 32.28C585.46 34.04 584.287 35.7307 582.644 37.352L581.844 36.568C583.231 35.2027 584.26 33.7893 584.932 32.328C585.604 30.856 585.94 29.208 585.94 27.384V25.544H587.06V27.384ZM608.36 39.4V24.632H609.496V39.4H608.36ZM598.936 30.04H603.736V25.656H604.872V36.968H597.816V25.656H598.936V30.04ZM598.936 31.08V35.912H603.736V31.08H598.936ZM618.796 29.768C617.804 31.2507 616.054 32.5893 613.548 33.784L613.02 32.808C614.918 31.8907 616.321 30.9307 617.228 29.928C618.145 28.9147 618.604 27.8267 618.604 26.664V25.48H619.74V26.664C619.74 27.3893 619.596 28.0987 619.308 28.792L625.18 32.856L624.54 33.784L618.796 29.768ZM612.188 38.2V37.16H626.012V38.2H612.188ZM638.688 32.328V24.632H639.84V32.328H638.688ZM635.664 28.6C635.664 29.304 635.493 29.9067 635.152 30.408C634.821 30.8987 634.362 31.272 633.776 31.528C633.2 31.7733 632.554 31.896 631.84 31.896C631.114 31.896 630.458 31.7733 629.872 31.528C629.296 31.272 628.837 30.8987 628.496 30.408C628.165 29.9067 628 29.304 628 28.6V28.328C628 27.272 628.357 26.4613 629.072 25.896C629.797 25.32 630.72 25.032 631.84 25.032C632.949 25.032 633.861 25.32 634.576 25.896C635.301 26.4613 635.664 27.272 635.664 28.328V28.6ZM629.152 28.584C629.152 29.2987 629.397 29.8587 629.888 30.264C630.378 30.6587 631.029 30.856 631.84 30.856C632.64 30.856 633.285 30.6587 633.776 30.264C634.277 29.8587 634.528 29.2987 634.528 28.584V28.344C634.528 27.6187 634.277 27.0587 633.776 26.664C633.285 26.2693 632.64 26.072 631.84 26.072C631.029 26.072 630.378 26.2693 629.888 26.664C629.397 27.0587 629.152 27.6187 629.152 28.344V28.584ZM631.488 35.192H638.688V33.224H639.84V39.4H630.352V33.224H631.488V35.192ZM631.488 36.216V38.36H638.688V36.216H631.488ZM655.011 39.4H653.875V24.632H655.011V39.4ZM643.571 36.936V25.816H644.707V35.896H646.035C646.921 35.896 647.913 35.848 649.011 35.752C650.11 35.656 651.145 35.5333 652.115 35.384L652.243 36.392C651.337 36.552 650.307 36.6853 649.155 36.792C648.003 36.888 646.894 36.936 645.827 36.936H643.571ZM669.367 30.408H671.815V31.464H669.367V39.4H668.215V24.632H669.367V30.408ZM660.631 35.896C661.474 35.896 662.423 35.8533 663.479 35.768C664.535 35.672 665.554 35.5547 666.535 35.416L666.663 36.424C665.767 36.584 664.765 36.712 663.655 36.808C662.557 36.8933 661.485 36.936 660.439 36.936H658.135V25.816H665.079V26.872H659.287V35.896H660.631ZM674.091 38.792C673.846 38.792 673.638 38.7013 673.467 38.52C673.296 38.3493 673.211 38.1413 673.211 37.896C673.211 37.6507 673.296 37.4427 673.467 37.272C673.638 37.1013 673.846 37.016 674.091 37.016C674.336 37.016 674.544 37.1013 674.715 37.272C674.896 37.4427 674.987 37.6507 674.987 37.896C674.987 38.1413 674.896 38.3493 674.715 38.52C674.544 38.7013 674.336 38.792 674.091 38.792Z" fill="#292929"/>
</svg>
