<svg width="18" height="20" viewBox="0 0 18 20" fill="none" xmlns="http://www.w3.org/2000/svg">
<path d="M16.1053 3.36841H2C1.44772 3.36841 1 3.81612 1 4.36841V4.73683C1 5.28911 1.44772 5.73683 2 5.73683H16.1053C16.6575 5.73683 17.1053 5.28911 17.1053 4.73683V4.36841C17.1053 3.81612 16.6575 3.36841 16.1053 3.36841Z" stroke="#565659"/>
<path d="M5.73669 3.36842V2C5.73669 1.44772 6.1844 1 6.73669 1H11.3683C11.9206 1 12.3683 1.44772 12.3683 2V3.36842M2.4209 5.73684L3.30193 18.0712C3.33931 18.5946 3.77475 19 4.29939 19H13.8056C14.3302 19 14.7656 18.5946 14.803 18.0712L15.6841 5.73684M5.73669 7.63158L6.21037 16.6316M9.05248 7.63158V16.6316M12.3683 7.63158L11.8946 16.6316" stroke="#565659" stroke-linecap="round"/>
</svg>
