<svg width="410" height="728" viewBox="0 0 410 728" fill="none" xmlns="http://www.w3.org/2000/svg">
<g clip-path="url(#clip0_9_1937)">
<rect width="410" height="728" rx="10" fill="white" fill-opacity="0.8"/>
<rect x="244" y="271" width="36" height="48" rx="5" fill="#4264D0"/>
<path d="M39.6776 104.58H37.6976V95.52H39.6776V104.58ZM29.4776 104.16C28.0109 104.16 26.8109 103.813 25.8776 103.12C24.9576 102.427 24.4976 101.433 24.4976 100.14V99.84C24.4976 98.5467 24.9576 97.5533 25.8776 96.86C26.8109 96.1667 28.0109 95.82 29.4776 95.82C30.9309 95.82 32.1176 96.1667 33.0376 96.86C33.9709 97.5533 34.4376 98.5467 34.4376 99.84V100.14C34.4376 101.433 33.9709 102.427 33.0376 103.12C32.1176 103.813 30.9309 104.16 29.4776 104.16ZM29.4776 102.4C30.3576 102.4 31.0709 102.2 31.6176 101.8C32.1642 101.4 32.4376 100.833 32.4376 100.1V99.88C32.4376 99.1467 32.1642 98.58 31.6176 98.18C31.0709 97.78 30.3576 97.58 29.4776 97.58C28.5842 97.58 27.8642 97.78 27.3176 98.18C26.7709 98.58 26.4976 99.1467 26.4976 99.88V100.1C26.4976 100.833 26.7709 101.4 27.3176 101.8C27.8642 102.2 28.5842 102.4 29.4776 102.4ZM40.3776 114.18H27.4176V109.08H37.6976V107.4H27.3176V105.74H39.6776V110.72H29.4176V112.48H40.3776V114.18Z" fill="#EA1A21"/>
<path d="M90.0176 105.44V104.06H95.1776V95.52H97.1776V106.04H95.1776V105.44H90.0176ZM87.3776 101.16C85.9109 101.16 84.7109 100.927 83.7776 100.46C82.8442 99.98 82.3776 99.3267 82.3776 98.5V98.38C82.3776 97.54 82.8376 96.8933 83.7576 96.44C84.6909 95.9733 85.8976 95.74 87.3776 95.74C88.8442 95.74 90.0376 95.9733 90.9576 96.44C91.8909 96.8933 92.3576 97.54 92.3576 98.38V98.5C92.3576 99.3267 91.8909 99.98 90.9576 100.46C90.0242 100.927 88.8309 101.16 87.3776 101.16ZM84.2776 98.46C84.2776 98.82 84.5576 99.1067 85.1176 99.32C85.6909 99.52 86.4442 99.62 87.3776 99.62C88.2976 99.62 89.0376 99.52 89.5976 99.32C90.1709 99.1067 90.4576 98.82 90.4576 98.46V98.4C90.4576 98.0533 90.1709 97.78 89.5976 97.58C89.0376 97.3667 88.2976 97.26 87.3776 97.26C86.4442 97.26 85.6909 97.3667 85.1176 97.58C84.5576 97.78 84.2776 98.0533 84.2776 98.4V98.46ZM86.1776 103.64C85.8176 103.653 85.3109 103.66 84.6576 103.66H81.5376L81.4576 102.18H84.8176C86.0176 102.18 87.4376 102.133 89.0776 102.04C90.7309 101.933 92.2642 101.793 93.6776 101.62L93.8576 103.06C92.2842 103.273 90.3709 103.44 88.1176 103.56C88.0242 104.813 87.9509 105.7 87.8976 106.22L85.9576 106.1C86.0109 105.633 86.0842 104.813 86.1776 103.64ZM86.6576 111.26V112.6H97.8576V114.18H84.7176V109.72H95.2376V108.46H84.6176V106.9H97.1776V111.26H86.6576Z" fill="#565659"/>
<path d="M153.818 102.68H156.518V104.5H153.818V114.08H151.818V95.52H153.818V102.68ZM145.218 97.64H149.578V99.3H138.818V97.64H143.198V95.54H145.218V97.64ZM145.318 109.86C146.944 109.767 148.598 109.62 150.278 109.42L150.498 111.16C149.138 111.347 147.638 111.493 145.998 111.6C144.371 111.707 142.884 111.76 141.538 111.76H138.598L138.498 109.98H141.698C141.978 109.98 142.518 109.967 143.318 109.94V107.72C142.224 107.587 141.338 107.22 140.658 106.62C139.991 106.007 139.658 105.213 139.658 104.24V103.94C139.658 102.833 140.084 101.973 140.938 101.36C141.804 100.733 142.904 100.42 144.238 100.42C145.544 100.42 146.624 100.733 147.478 101.36C148.331 101.973 148.758 102.833 148.758 103.94V104.24C148.758 105.187 148.438 105.96 147.798 106.56C147.171 107.147 146.344 107.527 145.318 107.7V109.86ZM141.618 104.22C141.618 104.82 141.858 105.3 142.338 105.66C142.831 106.007 143.464 106.18 144.238 106.18C144.984 106.18 145.598 106.007 146.078 105.66C146.571 105.3 146.818 104.82 146.818 104.22V103.96C146.818 103.36 146.571 102.887 146.078 102.54C145.598 102.193 144.984 102.02 144.238 102.02C143.464 102.02 142.831 102.193 142.338 102.54C141.858 102.887 141.618 103.36 141.618 103.96V104.22Z" fill="#565659"/>
<path d="M204.558 100.98C203.264 102.473 201.144 103.773 198.198 104.88L197.398 103.14C199.704 102.247 201.398 101.287 202.478 100.26C203.558 99.2333 204.098 98.1333 204.098 96.96V95.82H206.098V96.96C206.098 97.8 205.931 98.5933 205.598 99.34L212.598 103.2L211.638 104.88L204.558 100.98ZM196.278 106.96H213.718V108.76H205.998V114.28H204.018V108.76H196.278V106.96Z" fill="#565659"/>
<path d="M263.498 102.56V104.48H271.218V106.22H253.778V104.48H261.518V102.56H256.098V95.92H268.898V102.56H263.498ZM266.898 97.6H258.098V100.86H266.898V97.6ZM267.098 109.9H255.918V108.12H269.098V114.28H267.098V109.9Z" fill="#565659"/>
<path d="M328.718 102.86V104.62H311.278V102.86H323.678C323.838 101.98 323.964 101.087 324.058 100.18C324.151 99.26 324.204 98.5067 324.218 97.92H313.418V96.1H326.198V97.28C326.198 99.0267 326.024 100.887 325.678 102.86H328.718ZM326.598 114.1H313.418V106.86H326.598V114.1ZM324.598 108.58H315.418V112.34H324.598V108.58Z" fill="#565659"/>
<path d="M378.498 107.38V110.86H386.218V112.7H368.778V110.86H376.518V107.38H370.918V96.76H384.098V98.56H372.918V101.16H384.098V102.92H372.918V105.62H384.478V107.38H378.498Z" fill="#565659"/>
<path d="M22.4306 147.552V146.656L27.2146 141.904C28.036 141.083 28.628 140.368 28.9906 139.76C29.3533 139.152 29.5346 138.523 29.5346 137.872C29.5346 137.147 29.2786 136.571 28.7666 136.144C28.2653 135.717 27.572 135.504 26.6866 135.504C25.1933 135.504 24.1586 136.432 23.5826 138.288L22.4786 138.016C22.7666 136.992 23.2626 136.144 23.9666 135.472C24.6813 134.789 25.588 134.448 26.6866 134.448C27.476 134.448 28.1693 134.587 28.7666 134.864C29.3746 135.141 29.844 135.541 30.1746 136.064C30.5053 136.576 30.6706 137.173 30.6706 137.856C30.6706 138.677 30.4573 139.451 30.0306 140.176C29.604 140.891 28.948 141.691 28.0626 142.576L24.1266 146.496H31.0226V147.552H22.4306ZM37.8843 147.792C36.9883 147.792 36.1883 147.632 35.4843 147.312C34.7909 147.003 34.2523 146.565 33.8683 146C33.4843 145.445 33.2923 144.811 33.2923 144.096C33.2923 143.392 33.5163 142.752 33.9643 142.176C34.4229 141.6 35.0416 141.163 35.8203 140.864C35.1163 140.587 34.5829 140.187 34.2203 139.664C33.8683 139.141 33.6923 138.539 33.6923 137.856C33.6923 137.173 33.8683 136.576 34.2203 136.064C34.5723 135.552 35.0629 135.157 35.6923 134.88C36.3323 134.592 37.0629 134.448 37.8843 134.448C38.7056 134.448 39.4309 134.592 40.0603 134.88C40.7003 135.157 41.1963 135.552 41.5483 136.064C41.9003 136.576 42.0763 137.173 42.0763 137.856C42.0763 138.539 41.8949 139.141 41.5323 139.664C41.1803 140.187 40.6523 140.587 39.9483 140.864C40.7269 141.163 41.3403 141.6 41.7883 142.176C42.2469 142.752 42.4763 143.392 42.4763 144.096C42.4763 144.811 42.2843 145.445 41.9003 146C41.5163 146.565 40.9776 147.003 40.2843 147.312C39.5909 147.632 38.7909 147.792 37.8843 147.792ZM37.8843 140.384C38.8336 140.384 39.5803 140.16 40.1243 139.712C40.6683 139.264 40.9403 138.677 40.9403 137.952C40.9403 137.216 40.6683 136.624 40.1243 136.176C39.5803 135.728 38.8336 135.504 37.8843 135.504C36.9349 135.504 36.1883 135.728 35.6443 136.176C35.1109 136.624 34.8443 137.216 34.8443 137.952C34.8443 138.677 35.1163 139.264 35.6603 139.712C36.2043 140.16 36.9456 140.384 37.8843 140.384ZM37.8843 146.736C38.9509 146.736 39.7883 146.491 40.3963 146C41.0149 145.509 41.3243 144.864 41.3243 144.064C41.3243 143.563 41.1803 143.109 40.8923 142.704C40.6149 142.299 40.2149 141.984 39.6923 141.76C39.1696 141.525 38.5669 141.408 37.8843 141.408C37.2016 141.408 36.5989 141.525 36.0763 141.76C35.5536 141.984 35.1483 142.299 34.8603 142.704C34.5829 143.109 34.4443 143.563 34.4443 144.064C34.4443 144.864 34.7483 145.509 35.3563 146C35.9749 146.491 36.8176 146.736 37.8843 146.736Z" fill="#D9D9D9"/>
<path d="M80.1259 147.552V146.656L84.9099 141.904C85.7313 141.083 86.3233 140.368 86.6859 139.76C87.0486 139.152 87.2299 138.523 87.2299 137.872C87.2299 137.147 86.9739 136.571 86.4619 136.144C85.9606 135.717 85.2673 135.504 84.3819 135.504C82.8886 135.504 81.8539 136.432 81.2779 138.288L80.1739 138.016C80.4619 136.992 80.9579 136.144 81.6619 135.472C82.3766 134.789 83.2833 134.448 84.3819 134.448C85.1713 134.448 85.8646 134.587 86.4619 134.864C87.0699 135.141 87.5393 135.541 87.8699 136.064C88.2006 136.576 88.3659 137.173 88.3659 137.856C88.3659 138.677 88.1526 139.451 87.7259 140.176C87.2993 140.891 86.6433 141.691 85.7579 142.576L81.8219 146.496H88.7179V147.552H80.1259ZM95.3076 134.448C96.1609 134.448 96.9236 134.624 97.5956 134.976C98.2676 135.328 98.7956 135.835 99.1796 136.496C99.5742 137.157 99.7716 137.941 99.7716 138.848V142.064C99.7716 143.376 99.5689 144.464 99.1636 145.328C98.7689 146.181 98.2462 146.805 97.5956 147.2C96.9449 147.595 96.2249 147.792 95.4356 147.792C93.3982 147.792 91.9422 146.864 91.0676 145.008L92.0436 144.48C92.4169 145.248 92.8596 145.819 93.3716 146.192C93.8942 146.565 94.5716 146.752 95.4036 146.752C96.3956 146.752 97.1902 146.357 97.7876 145.568C98.3849 144.768 98.6782 143.584 98.6676 142.016V141.28C98.3156 141.856 97.8249 142.304 97.1956 142.624C96.5662 142.933 95.8942 143.088 95.1796 143.088C94.3902 143.088 93.6649 142.912 93.0036 142.56C92.3422 142.208 91.8142 141.707 91.4196 141.056C91.0249 140.405 90.8276 139.643 90.8276 138.768C90.8276 137.893 91.0249 137.131 91.4196 136.48C91.8249 135.829 92.3636 135.328 93.0356 134.976C93.7182 134.624 94.4756 134.448 95.3076 134.448ZM95.3076 142.064C95.9156 142.064 96.4702 141.936 96.9716 141.68C97.4836 141.424 97.8889 141.051 98.1876 140.56C98.4862 140.059 98.6356 139.467 98.6356 138.784C98.6356 138.101 98.4862 137.509 98.1876 137.008C97.8889 136.507 97.4836 136.128 96.9716 135.872C96.4702 135.616 95.9156 135.488 95.3076 135.488C94.6996 135.488 94.1396 135.616 93.6276 135.872C93.1262 136.128 92.7262 136.507 92.4276 137.008C92.1289 137.509 91.9796 138.101 91.9796 138.784C91.9796 139.467 92.1289 140.059 92.4276 140.56C92.7262 141.051 93.1262 141.424 93.6276 141.68C94.1396 141.936 94.6996 142.064 95.3076 142.064Z" fill="#D9D9D9"/>
<path d="M138.233 144.304C138.5 145.029 138.916 145.616 139.481 146.064C140.057 146.512 140.815 146.736 141.753 146.736C142.756 146.736 143.551 146.496 144.137 146.016C144.735 145.547 145.033 144.923 145.033 144.144C145.033 143.344 144.729 142.693 144.121 142.192C143.513 141.68 142.644 141.424 141.513 141.424H139.945V140.4H141.513C142.537 140.4 143.327 140.171 143.881 139.712C144.436 139.243 144.713 138.629 144.713 137.872C144.713 137.136 144.441 136.56 143.897 136.144C143.364 135.717 142.644 135.504 141.737 135.504C140.265 135.504 139.22 136.261 138.601 137.776L137.561 137.392C137.871 136.549 138.372 135.851 139.065 135.296C139.769 134.731 140.66 134.448 141.737 134.448C142.537 134.448 143.247 134.587 143.865 134.864C144.495 135.141 144.985 135.536 145.337 136.048C145.689 136.56 145.865 137.152 145.865 137.824C145.865 138.592 145.657 139.248 145.241 139.792C144.836 140.325 144.303 140.693 143.641 140.896C144.399 141.12 145.007 141.52 145.465 142.096C145.935 142.672 146.169 143.365 146.169 144.176C146.169 144.88 145.983 145.504 145.609 146.048C145.247 146.603 144.729 147.029 144.057 147.328C143.385 147.637 142.617 147.792 141.753 147.792C140.559 147.792 139.572 147.493 138.793 146.896C138.025 146.309 137.487 145.563 137.177 144.656L138.233 144.304ZM153.025 147.792C152.161 147.792 151.382 147.584 150.689 147.168C149.995 146.752 149.446 146.139 149.041 145.328C148.646 144.517 148.449 143.541 148.449 142.4V139.84C148.449 138.709 148.646 137.739 149.041 136.928C149.446 136.107 149.995 135.488 150.689 135.072C151.382 134.656 152.161 134.448 153.025 134.448C153.878 134.448 154.651 134.656 155.345 135.072C156.038 135.488 156.582 136.107 156.977 136.928C157.382 137.739 157.585 138.709 157.585 139.84V142.4C157.585 143.541 157.382 144.517 156.977 145.328C156.582 146.139 156.038 146.752 155.345 147.168C154.651 147.584 153.878 147.792 153.025 147.792ZM153.025 146.752C153.665 146.752 154.241 146.587 154.753 146.256C155.275 145.936 155.686 145.445 155.985 144.784C156.283 144.112 156.433 143.291 156.433 142.32V139.92C156.433 138.949 156.283 138.133 155.985 137.472C155.686 136.811 155.275 136.315 154.753 135.984C154.241 135.653 153.665 135.488 153.025 135.488C152.385 135.488 151.803 135.653 151.281 135.984C150.769 136.315 150.363 136.811 150.065 137.472C149.766 138.133 149.617 138.949 149.617 139.92V142.32C149.617 143.291 149.766 144.112 150.065 144.784C150.363 145.445 150.769 145.936 151.281 146.256C151.803 146.587 152.385 146.752 153.025 146.752Z" fill="#D9D9D9"/>
<path d="M197.85 144.304C198.117 145.029 198.533 145.616 199.098 146.064C199.674 146.512 200.432 146.736 201.37 146.736C202.373 146.736 203.168 146.496 203.754 146.016C204.352 145.547 204.65 144.923 204.65 144.144C204.65 143.344 204.346 142.693 203.738 142.192C203.13 141.68 202.261 141.424 201.13 141.424H199.562V140.4H201.13C202.154 140.4 202.944 140.171 203.498 139.712C204.053 139.243 204.33 138.629 204.33 137.872C204.33 137.136 204.058 136.56 203.514 136.144C202.981 135.717 202.261 135.504 201.354 135.504C199.882 135.504 198.837 136.261 198.218 137.776L197.178 137.392C197.488 136.549 197.989 135.851 198.682 135.296C199.386 134.731 200.277 134.448 201.354 134.448C202.154 134.448 202.864 134.587 203.482 134.864C204.112 135.141 204.602 135.536 204.954 136.048C205.306 136.56 205.482 137.152 205.482 137.824C205.482 138.592 205.274 139.248 204.858 139.792C204.453 140.325 203.92 140.693 203.258 140.896C204.016 141.12 204.624 141.52 205.082 142.096C205.552 142.672 205.786 143.365 205.786 144.176C205.786 144.88 205.6 145.504 205.226 146.048C204.864 146.603 204.346 147.029 203.674 147.328C203.002 147.637 202.234 147.792 201.37 147.792C200.176 147.792 199.189 147.493 198.41 146.896C197.642 146.309 197.104 145.563 196.794 144.656L197.85 144.304ZM212.325 147.552H211.157V136.192L207.941 138.8L207.269 137.952L211.301 134.688H212.325V147.552Z" fill="#D9D9D9"/>
<path d="M264.388 147.552H263.22V136.192L260.004 138.8L259.332 137.952L263.364 134.688H264.388V147.552Z" fill="#292929"/>
<path d="M315.657 147.552V146.656L320.441 141.904C321.263 141.083 321.855 140.368 322.217 139.76C322.58 139.152 322.761 138.523 322.761 137.872C322.761 137.147 322.505 136.571 321.993 136.144C321.492 135.717 320.799 135.504 319.913 135.504C318.42 135.504 317.385 136.432 316.809 138.288L315.705 138.016C315.993 136.992 316.489 136.144 317.193 135.472C317.908 134.789 318.815 134.448 319.913 134.448C320.703 134.448 321.396 134.587 321.993 134.864C322.601 135.141 323.071 135.541 323.401 136.064C323.732 136.576 323.897 137.173 323.897 137.856C323.897 138.677 323.684 139.451 323.257 140.176C322.831 140.891 322.175 141.691 321.289 142.576L317.353 146.496H324.249V147.552H315.657Z" fill="#292929"/>
<path d="M373.936 144.304C374.203 145.029 374.619 145.616 375.184 146.064C375.76 146.512 376.518 146.736 377.456 146.736C378.459 146.736 379.254 146.496 379.84 146.016C380.438 145.547 380.736 144.923 380.736 144.144C380.736 143.344 380.432 142.693 379.824 142.192C379.216 141.68 378.347 141.424 377.216 141.424H375.648V140.4H377.216C378.24 140.4 379.03 140.171 379.584 139.712C380.139 139.243 380.416 138.629 380.416 137.872C380.416 137.136 380.144 136.56 379.6 136.144C379.067 135.717 378.347 135.504 377.44 135.504C375.968 135.504 374.923 136.261 374.304 137.776L373.264 137.392C373.574 136.549 374.075 135.851 374.768 135.296C375.472 134.731 376.363 134.448 377.44 134.448C378.24 134.448 378.95 134.587 379.568 134.864C380.198 135.141 380.688 135.536 381.04 136.048C381.392 136.56 381.568 137.152 381.568 137.824C381.568 138.592 381.36 139.248 380.944 139.792C380.539 140.325 380.006 140.693 379.344 140.896C380.102 141.12 380.71 141.52 381.168 142.096C381.638 142.672 381.872 143.365 381.872 144.176C381.872 144.88 381.686 145.504 381.312 146.048C380.95 146.603 380.432 147.029 379.76 147.328C379.088 147.637 378.32 147.792 377.456 147.792C376.262 147.792 375.275 147.493 374.496 146.896C373.728 146.309 373.19 145.563 372.88 144.656L373.936 144.304Z" fill="#292929"/>
<path d="M35.3974 191.808H37.5734V192.864H35.3974V195.792H34.2454V192.864H27.5894V191.888L33.8294 182.688H35.3974V191.808ZM34.2454 183.968L28.9814 191.808H34.2454V183.968Z" fill="#EA1A21"/>
<path d="M90.0654 187.392C90.8867 187.392 91.612 187.573 92.2414 187.936C92.8814 188.288 93.372 188.784 93.7134 189.424C94.0654 190.064 94.2414 190.789 94.2414 191.6C94.2414 192.411 94.0547 193.136 93.6814 193.776C93.3187 194.405 92.8014 194.896 92.1294 195.248C91.468 195.611 90.7054 195.792 89.8414 195.792C88.9027 195.792 88.044 195.584 87.2654 195.168C86.4974 194.763 85.9374 194.171 85.5854 193.392L86.5774 192.848C86.844 193.467 87.2654 193.936 87.8414 194.256C88.428 194.576 89.084 194.736 89.8094 194.736C90.4494 194.736 91.02 194.608 91.5214 194.352C92.0227 194.096 92.412 193.733 92.6894 193.264C92.9667 192.784 93.1054 192.229 93.1054 191.6C93.1054 190.64 92.812 189.877 92.2254 189.312C91.6494 188.747 90.8814 188.464 89.9214 188.464C89.228 188.464 88.636 188.645 88.1454 189.008C87.6654 189.371 87.3027 189.872 87.0574 190.512H85.9534L86.8014 182.688H93.7774V183.744H87.7934L87.2334 188.704C87.5534 188.277 87.9587 187.952 88.4494 187.728C88.9507 187.504 89.4894 187.392 90.0654 187.392Z" fill="#292929"/>
<path d="M147.697 187.136C148.486 187.136 149.211 187.312 149.873 187.664C150.545 188.005 151.073 188.507 151.457 189.168C151.851 189.819 152.049 190.581 152.049 191.456C152.049 192.331 151.851 193.099 151.457 193.76C151.062 194.411 150.523 194.912 149.841 195.264C149.158 195.616 148.401 195.792 147.569 195.792C146.715 195.792 145.953 195.616 145.281 195.264C144.609 194.912 144.075 194.405 143.681 193.744C143.297 193.083 143.105 192.299 143.105 191.392V188.176C143.105 186.864 143.302 185.781 143.697 184.928C144.102 184.064 144.63 183.435 145.281 183.04C145.942 182.645 146.667 182.448 147.457 182.448C149.483 182.448 150.939 183.376 151.825 185.232L150.833 185.744C150.459 184.987 150.011 184.421 149.489 184.048C148.977 183.675 148.31 183.488 147.489 183.488C146.497 183.488 145.697 183.888 145.089 184.688C144.491 185.477 144.198 186.656 144.209 188.224V188.96C144.561 188.384 145.046 187.936 145.665 187.616C146.294 187.296 146.971 187.136 147.697 187.136ZM147.569 194.752C148.177 194.752 148.731 194.624 149.233 194.368C149.745 194.112 150.15 193.733 150.449 193.232C150.747 192.731 150.897 192.139 150.897 191.456C150.897 190.773 150.747 190.187 150.449 189.696C150.15 189.195 149.745 188.816 149.233 188.56C148.731 188.304 148.177 188.176 147.569 188.176C146.961 188.176 146.401 188.304 145.889 188.56C145.387 188.816 144.987 189.195 144.689 189.696C144.401 190.187 144.257 190.773 144.257 191.456C144.257 192.139 144.401 192.731 144.689 193.232C144.987 193.733 145.387 194.112 145.889 194.368C146.401 194.624 146.961 194.752 147.569 194.752Z" fill="#292929"/>
<path d="M200.689 182.688H209.393V183.744L202.897 195.792H201.585L208.097 183.744H200.689V182.688Z" fill="#292929"/>
<path d="M262.501 195.792C261.605 195.792 260.805 195.632 260.101 195.312C259.408 195.003 258.869 194.565 258.485 194C258.101 193.445 257.909 192.811 257.909 192.096C257.909 191.392 258.133 190.752 258.581 190.176C259.04 189.6 259.659 189.163 260.437 188.864C259.733 188.587 259.2 188.187 258.837 187.664C258.485 187.141 258.309 186.539 258.309 185.856C258.309 185.173 258.485 184.576 258.837 184.064C259.189 183.552 259.68 183.157 260.309 182.88C260.949 182.592 261.68 182.448 262.501 182.448C263.323 182.448 264.048 182.592 264.677 182.88C265.317 183.157 265.813 183.552 266.165 184.064C266.517 184.576 266.693 185.173 266.693 185.856C266.693 186.539 266.512 187.141 266.149 187.664C265.797 188.187 265.269 188.587 264.565 188.864C265.344 189.163 265.957 189.6 266.405 190.176C266.864 190.752 267.093 191.392 267.093 192.096C267.093 192.811 266.901 193.445 266.517 194C266.133 194.565 265.595 195.003 264.901 195.312C264.208 195.632 263.408 195.792 262.501 195.792ZM262.501 188.384C263.451 188.384 264.197 188.16 264.741 187.712C265.285 187.264 265.557 186.677 265.557 185.952C265.557 185.216 265.285 184.624 264.741 184.176C264.197 183.728 263.451 183.504 262.501 183.504C261.552 183.504 260.805 183.728 260.261 184.176C259.728 184.624 259.461 185.216 259.461 185.952C259.461 186.677 259.733 187.264 260.277 187.712C260.821 188.16 261.563 188.384 262.501 188.384ZM262.501 194.736C263.568 194.736 264.405 194.491 265.013 194C265.632 193.509 265.941 192.864 265.941 192.064C265.941 191.563 265.797 191.109 265.509 190.704C265.232 190.299 264.832 189.984 264.309 189.76C263.787 189.525 263.184 189.408 262.501 189.408C261.819 189.408 261.216 189.525 260.693 189.76C260.171 189.984 259.765 190.299 259.477 190.704C259.2 191.109 259.061 191.563 259.061 192.064C259.061 192.864 259.365 193.509 259.973 194C260.592 194.491 261.435 194.736 262.501 194.736Z" fill="#292929"/>
<path d="M319.925 182.448C320.778 182.448 321.541 182.624 322.213 182.976C322.885 183.328 323.413 183.835 323.797 184.496C324.191 185.157 324.389 185.941 324.389 186.848V190.064C324.389 191.376 324.186 192.464 323.781 193.328C323.386 194.181 322.863 194.805 322.213 195.2C321.562 195.595 320.842 195.792 320.053 195.792C318.015 195.792 316.559 194.864 315.685 193.008L316.661 192.48C317.034 193.248 317.477 193.819 317.989 194.192C318.511 194.565 319.189 194.752 320.021 194.752C321.013 194.752 321.807 194.357 322.405 193.568C323.002 192.768 323.295 191.584 323.285 190.016V189.28C322.933 189.856 322.442 190.304 321.813 190.624C321.183 190.933 320.511 191.088 319.797 191.088C319.007 191.088 318.282 190.912 317.621 190.56C316.959 190.208 316.431 189.707 316.037 189.056C315.642 188.405 315.445 187.643 315.445 186.768C315.445 185.893 315.642 185.131 316.037 184.48C316.442 183.829 316.981 183.328 317.653 182.976C318.335 182.624 319.093 182.448 319.925 182.448ZM319.925 190.064C320.533 190.064 321.087 189.936 321.589 189.68C322.101 189.424 322.506 189.051 322.805 188.56C323.103 188.059 323.253 187.467 323.253 186.784C323.253 186.101 323.103 185.509 322.805 185.008C322.506 184.507 322.101 184.128 321.589 183.872C321.087 183.616 320.533 183.488 319.925 183.488C319.317 183.488 318.757 183.616 318.245 183.872C317.743 184.128 317.343 184.507 317.045 185.008C316.746 185.509 316.597 186.101 316.597 186.784C316.597 187.467 316.746 188.059 317.045 188.56C317.343 189.051 317.743 189.424 318.245 189.68C318.757 189.936 319.317 190.064 319.925 190.064Z" fill="#EA1A21"/>
<path d="M373.685 195.552H372.517V184.192L369.301 186.8L368.629 185.952L372.661 182.688H373.685V195.552ZM381.173 195.792C380.309 195.792 379.53 195.584 378.837 195.168C378.144 194.752 377.594 194.139 377.189 193.328C376.794 192.517 376.597 191.541 376.597 190.4V187.84C376.597 186.709 376.794 185.739 377.189 184.928C377.594 184.107 378.144 183.488 378.837 183.072C379.53 182.656 380.309 182.448 381.173 182.448C382.026 182.448 382.8 182.656 383.493 183.072C384.186 183.488 384.73 184.107 385.125 184.928C385.53 185.739 385.733 186.709 385.733 187.84V190.4C385.733 191.541 385.53 192.517 385.125 193.328C384.73 194.139 384.186 194.752 383.493 195.168C382.8 195.584 382.026 195.792 381.173 195.792ZM381.173 194.752C381.813 194.752 382.389 194.587 382.901 194.256C383.424 193.936 383.834 193.445 384.133 192.784C384.432 192.112 384.581 191.291 384.581 190.32V187.92C384.581 186.949 384.432 186.133 384.133 185.472C383.834 184.811 383.424 184.315 382.901 183.984C382.389 183.653 381.813 183.488 381.173 183.488C380.533 183.488 379.952 183.653 379.429 183.984C378.917 184.315 378.512 184.811 378.213 185.472C377.914 186.133 377.765 186.949 377.765 187.92V190.32C377.765 191.291 377.914 192.112 378.213 192.784C378.512 193.445 378.917 193.936 379.429 194.256C379.952 194.587 380.533 194.752 381.173 194.752Z" fill="#EA1A21"/>
<path d="M30.7239 243.552H29.5559V232.192L26.3399 234.8L25.6679 233.952L29.6999 230.688H30.7239V243.552ZM38.052 243.552H36.884V232.192L33.668 234.8L32.996 233.952L37.028 230.688H38.052V243.552Z" fill="#EA1A21"/>
<path d="M86.5051 243.552H85.3371V232.192L82.1211 234.8L81.4491 233.952L85.4811 230.688H86.5051V243.552ZM89.3213 243.552V242.656L94.1053 237.904C94.9266 237.083 95.5186 236.368 95.8813 235.76C96.2439 235.152 96.4253 234.523 96.4253 233.872C96.4253 233.147 96.1693 232.571 95.6573 232.144C95.1559 231.717 94.4626 231.504 93.5773 231.504C92.0839 231.504 91.0493 232.432 90.4733 234.288L89.3693 234.016C89.6573 232.992 90.1533 232.144 90.8573 231.472C91.5719 230.789 92.4786 230.448 93.5773 230.448C94.3666 230.448 95.0599 230.587 95.6573 230.864C96.2653 231.141 96.7346 231.541 97.0653 232.064C97.3959 232.576 97.5613 233.173 97.5613 233.856C97.5613 234.677 97.3479 235.451 96.9213 236.176C96.4946 236.891 95.8386 237.691 94.9533 238.576L91.0173 242.496H97.9133V243.552H89.3213Z" fill="#292929"/>
<path d="M143.872 243.552H142.704V232.192L139.488 234.8L138.816 233.952L142.848 230.688H143.872V243.552ZM147.6 240.304C147.867 241.029 148.283 241.616 148.848 242.064C149.424 242.512 150.182 242.736 151.12 242.736C152.123 242.736 152.918 242.496 153.504 242.016C154.102 241.547 154.4 240.923 154.4 240.144C154.4 239.344 154.096 238.693 153.488 238.192C152.88 237.68 152.011 237.424 150.88 237.424H149.312V236.4H150.88C151.904 236.4 152.694 236.171 153.248 235.712C153.803 235.243 154.08 234.629 154.08 233.872C154.08 233.136 153.808 232.56 153.264 232.144C152.731 231.717 152.011 231.504 151.104 231.504C149.632 231.504 148.587 232.261 147.968 233.776L146.928 233.392C147.238 232.549 147.739 231.851 148.432 231.296C149.136 230.731 150.027 230.448 151.104 230.448C151.904 230.448 152.614 230.587 153.232 230.864C153.862 231.141 154.352 231.536 154.704 232.048C155.056 232.56 155.232 233.152 155.232 233.824C155.232 234.592 155.024 235.248 154.608 235.792C154.203 236.325 153.67 236.693 153.008 236.896C153.766 237.12 154.374 237.52 154.832 238.096C155.302 238.672 155.536 239.365 155.536 240.176C155.536 240.88 155.35 241.504 154.976 242.048C154.614 242.603 154.096 243.029 153.424 243.328C152.752 243.637 151.984 243.792 151.12 243.792C149.926 243.792 148.939 243.493 148.16 242.896C147.392 242.309 146.854 241.563 146.544 240.656L147.6 240.304Z" fill="#292929"/>
<path d="M201.161 243.552H199.993V232.192L196.777 234.8L196.105 233.952L200.137 230.688H201.161V243.552ZM211.562 239.808H213.738V240.864H211.562V243.792H210.41V240.864H203.754V239.888L209.994 230.688H211.562V239.808ZM210.41 231.968L205.146 239.808H210.41V231.968Z" fill="#292929"/>
<path d="M258.997 243.552H257.829V232.192L254.613 234.8L253.941 233.952L257.973 230.688H258.997V243.552ZM266.229 235.392C267.051 235.392 267.776 235.573 268.405 235.936C269.045 236.288 269.536 236.784 269.877 237.424C270.229 238.064 270.405 238.789 270.405 239.6C270.405 240.411 270.219 241.136 269.845 241.776C269.483 242.405 268.965 242.896 268.293 243.248C267.632 243.611 266.869 243.792 266.005 243.792C265.067 243.792 264.208 243.584 263.429 243.168C262.661 242.763 262.101 242.171 261.749 241.392L262.741 240.848C263.008 241.467 263.429 241.936 264.005 242.256C264.592 242.576 265.248 242.736 265.973 242.736C266.613 242.736 267.184 242.608 267.685 242.352C268.187 242.096 268.576 241.733 268.853 241.264C269.131 240.784 269.269 240.229 269.269 239.6C269.269 238.64 268.976 237.877 268.389 237.312C267.813 236.747 267.045 236.464 266.085 236.464C265.392 236.464 264.8 236.645 264.309 237.008C263.829 237.371 263.467 237.872 263.221 238.512H262.117L262.965 230.688H269.941V231.744H263.957L263.397 236.704C263.717 236.277 264.123 235.952 264.613 235.728C265.115 235.504 265.653 235.392 266.229 235.392Z" fill="#292929"/>
<path d="M316.357 243.552H315.189V232.192L311.973 234.8L311.301 233.952L315.333 230.688H316.357V243.552ZM323.861 235.136C324.65 235.136 325.375 235.312 326.037 235.664C326.709 236.005 327.237 236.507 327.621 237.168C328.015 237.819 328.213 238.581 328.213 239.456C328.213 240.331 328.015 241.099 327.621 241.76C327.226 242.411 326.687 242.912 326.005 243.264C325.322 243.616 324.565 243.792 323.733 243.792C322.879 243.792 322.117 243.616 321.445 243.264C320.773 242.912 320.239 242.405 319.845 241.744C319.461 241.083 319.269 240.299 319.269 239.392V236.176C319.269 234.864 319.466 233.781 319.861 232.928C320.266 232.064 320.794 231.435 321.445 231.04C322.106 230.645 322.831 230.448 323.621 230.448C325.647 230.448 327.103 231.376 327.989 233.232L326.997 233.744C326.623 232.987 326.175 232.421 325.653 232.048C325.141 231.675 324.474 231.488 323.653 231.488C322.661 231.488 321.861 231.888 321.253 232.688C320.655 233.477 320.362 234.656 320.373 236.224V236.96C320.725 236.384 321.21 235.936 321.829 235.616C322.458 235.296 323.135 235.136 323.861 235.136ZM323.733 242.752C324.341 242.752 324.895 242.624 325.397 242.368C325.909 242.112 326.314 241.733 326.613 241.232C326.911 240.731 327.061 240.139 327.061 239.456C327.061 238.773 326.911 238.187 326.613 237.696C326.314 237.195 325.909 236.816 325.397 236.56C324.895 236.304 324.341 236.176 323.733 236.176C323.125 236.176 322.565 236.304 322.053 236.56C321.551 236.816 321.151 237.195 320.853 237.696C320.565 238.187 320.421 238.773 320.421 239.456C320.421 240.139 320.565 240.731 320.853 241.232C321.151 241.733 321.551 242.112 322.053 242.368C322.565 242.624 323.125 242.752 323.733 242.752Z" fill="#292929"/>
<path d="M374.341 243.552H373.173V232.192L369.957 234.8L369.285 233.952L373.317 230.688H374.341V243.552ZM376.853 230.688H385.557V231.744L379.061 243.792H377.749L384.261 231.744H376.853V230.688Z" fill="#292929"/>
<path d="M28.6614 291.552H27.4934V280.192L24.2774 282.8L23.6054 281.952L27.6374 278.688H28.6614V291.552ZM36.1655 291.792C35.2695 291.792 34.4695 291.632 33.7655 291.312C33.0722 291.003 32.5335 290.565 32.1495 290C31.7655 289.445 31.5735 288.811 31.5735 288.096C31.5735 287.392 31.7975 286.752 32.2455 286.176C32.7042 285.6 33.3228 285.163 34.1015 284.864C33.3975 284.587 32.8642 284.187 32.5015 283.664C32.1495 283.141 31.9735 282.539 31.9735 281.856C31.9735 281.173 32.1495 280.576 32.5015 280.064C32.8535 279.552 33.3442 279.157 33.9735 278.88C34.6135 278.592 35.3442 278.448 36.1655 278.448C36.9868 278.448 37.7122 278.592 38.3415 278.88C38.9815 279.157 39.4775 279.552 39.8295 280.064C40.1815 280.576 40.3575 281.173 40.3575 281.856C40.3575 282.539 40.1762 283.141 39.8135 283.664C39.4615 284.187 38.9335 284.587 38.2295 284.864C39.0082 285.163 39.6215 285.6 40.0695 286.176C40.5282 286.752 40.7575 287.392 40.7575 288.096C40.7575 288.811 40.5655 289.445 40.1815 290C39.7975 290.565 39.2588 291.003 38.5655 291.312C37.8722 291.632 37.0722 291.792 36.1655 291.792ZM36.1655 284.384C37.1148 284.384 37.8615 284.16 38.4055 283.712C38.9495 283.264 39.2215 282.677 39.2215 281.952C39.2215 281.216 38.9495 280.624 38.4055 280.176C37.8615 279.728 37.1148 279.504 36.1655 279.504C35.2162 279.504 34.4695 279.728 33.9255 280.176C33.3922 280.624 33.1255 281.216 33.1255 281.952C33.1255 282.677 33.3975 283.264 33.9415 283.712C34.4855 284.16 35.2268 284.384 36.1655 284.384ZM36.1655 290.736C37.2322 290.736 38.0695 290.491 38.6775 290C39.2962 289.509 39.6055 288.864 39.6055 288.064C39.6055 287.563 39.4615 287.109 39.1735 286.704C38.8962 286.299 38.4962 285.984 37.9735 285.76C37.4508 285.525 36.8482 285.408 36.1655 285.408C35.4828 285.408 34.8802 285.525 34.3575 285.76C33.8348 285.984 33.4295 286.299 33.1415 286.704C32.8642 287.109 32.7255 287.563 32.7255 288.064C32.7255 288.864 33.0295 289.509 33.6375 290C34.2562 290.491 35.0988 290.736 36.1655 290.736Z" fill="#EA1A21"/>
<path d="M86.3567 291.552H85.1887V280.192L81.9727 282.8L81.3007 281.952L85.3327 278.688H86.3567V291.552ZM93.5888 278.448C94.4421 278.448 95.2048 278.624 95.8768 278.976C96.5488 279.328 97.0768 279.835 97.4608 280.496C97.8555 281.157 98.0528 281.941 98.0528 282.848V286.064C98.0528 287.376 97.8501 288.464 97.4448 289.328C97.0501 290.181 96.5275 290.805 95.8768 291.2C95.2261 291.595 94.5061 291.792 93.7168 291.792C91.6795 291.792 90.2235 290.864 89.3488 289.008L90.3248 288.48C90.6981 289.248 91.1408 289.819 91.6528 290.192C92.1755 290.565 92.8528 290.752 93.6848 290.752C94.6768 290.752 95.4715 290.357 96.0688 289.568C96.6661 288.768 96.9595 287.584 96.9488 286.016V285.28C96.5968 285.856 96.1061 286.304 95.4768 286.624C94.8475 286.933 94.1755 287.088 93.4608 287.088C92.6715 287.088 91.9461 286.912 91.2848 286.56C90.6235 286.208 90.0955 285.707 89.7008 285.056C89.3061 284.405 89.1088 283.643 89.1088 282.768C89.1088 281.893 89.3061 281.131 89.7008 280.48C90.1061 279.829 90.6448 279.328 91.3168 278.976C91.9995 278.624 92.7568 278.448 93.5888 278.448ZM93.5888 286.064C94.1968 286.064 94.7515 285.936 95.2528 285.68C95.7648 285.424 96.1701 285.051 96.4688 284.56C96.7675 284.059 96.9168 283.467 96.9168 282.784C96.9168 282.101 96.7675 281.509 96.4688 281.008C96.1701 280.507 95.7648 280.128 95.2528 279.872C94.7515 279.616 94.1968 279.488 93.5888 279.488C92.9808 279.488 92.4208 279.616 91.9088 279.872C91.4075 280.128 91.0075 280.507 90.7088 281.008C90.4101 281.509 90.2608 282.101 90.2608 282.784C90.2608 283.467 90.4101 284.059 90.7088 284.56C91.0075 285.051 91.4075 285.424 91.9088 285.68C92.4208 285.936 92.9808 286.064 93.5888 286.064Z" fill="#292929"/>
<path d="M137.454 291.552V290.656L142.238 285.904C143.059 285.083 143.651 284.368 144.014 283.76C144.377 283.152 144.558 282.523 144.558 281.872C144.558 281.147 144.302 280.571 143.79 280.144C143.289 279.717 142.595 279.504 141.71 279.504C140.217 279.504 139.182 280.432 138.606 282.288L137.502 282.016C137.79 280.992 138.286 280.144 138.99 279.472C139.705 278.789 140.611 278.448 141.71 278.448C142.499 278.448 143.193 278.587 143.79 278.864C144.398 279.141 144.867 279.541 145.198 280.064C145.529 280.576 145.694 281.173 145.694 281.856C145.694 282.677 145.481 283.451 145.054 284.176C144.627 284.891 143.971 285.691 143.086 286.576L139.15 290.496H146.046V291.552H137.454ZM152.892 291.792C152.028 291.792 151.249 291.584 150.556 291.168C149.862 290.752 149.313 290.139 148.908 289.328C148.513 288.517 148.316 287.541 148.316 286.4V283.84C148.316 282.709 148.513 281.739 148.908 280.928C149.313 280.107 149.862 279.488 150.556 279.072C151.249 278.656 152.028 278.448 152.892 278.448C153.745 278.448 154.518 278.656 155.212 279.072C155.905 279.488 156.449 280.107 156.844 280.928C157.249 281.739 157.452 282.709 157.452 283.84V286.4C157.452 287.541 157.249 288.517 156.844 289.328C156.449 290.139 155.905 290.752 155.212 291.168C154.518 291.584 153.745 291.792 152.892 291.792ZM152.892 290.752C153.532 290.752 154.108 290.587 154.62 290.256C155.142 289.936 155.553 289.445 155.852 288.784C156.15 288.112 156.3 287.291 156.3 286.32V283.92C156.3 282.949 156.15 282.133 155.852 281.472C155.553 280.811 155.142 280.315 154.62 279.984C154.108 279.653 153.532 279.488 152.892 279.488C152.252 279.488 151.67 279.653 151.148 279.984C150.636 280.315 150.23 280.811 149.932 281.472C149.633 282.133 149.484 282.949 149.484 283.92V286.32C149.484 287.291 149.633 288.112 149.932 288.784C150.23 289.445 150.636 289.936 151.148 290.256C151.67 290.587 152.252 290.752 152.892 290.752Z" fill="#292929"/>
<path d="M196.993 291.552V290.656L201.777 285.904C202.598 285.083 203.19 284.368 203.553 283.76C203.916 283.152 204.097 282.523 204.097 281.872C204.097 281.147 203.841 280.571 203.329 280.144C202.828 279.717 202.134 279.504 201.249 279.504C199.756 279.504 198.721 280.432 198.145 282.288L197.041 282.016C197.329 280.992 197.825 280.144 198.529 279.472C199.244 278.789 200.15 278.448 201.249 278.448C202.038 278.448 202.732 278.587 203.329 278.864C203.937 279.141 204.406 279.541 204.737 280.064C205.068 280.576 205.233 281.173 205.233 281.856C205.233 282.677 205.02 283.451 204.593 284.176C204.166 284.891 203.51 285.691 202.625 286.576L198.689 290.496H205.585V291.552H196.993ZM212.271 291.552H211.103V280.192L207.887 282.8L207.215 281.952L211.247 278.688H212.271V291.552Z" fill="#292929"/>
<path d="M252.774 291.552V290.656L257.558 285.904C258.38 285.083 258.972 284.368 259.334 283.76C259.697 283.152 259.878 282.523 259.878 281.872C259.878 281.147 259.622 280.571 259.11 280.144C258.609 279.717 257.916 279.504 257.03 279.504C255.537 279.504 254.502 280.432 253.926 282.288L252.822 282.016C253.11 280.992 253.606 280.144 254.31 279.472C255.025 278.789 255.932 278.448 257.03 278.448C257.82 278.448 258.513 278.587 259.11 278.864C259.718 279.141 260.188 279.541 260.518 280.064C260.849 280.576 261.014 281.173 261.014 281.856C261.014 282.677 260.801 283.451 260.374 284.176C259.948 284.891 259.292 285.691 258.406 286.576L254.47 290.496H261.366V291.552H252.774ZM263.54 291.552V290.656L268.324 285.904C269.145 285.083 269.737 284.368 270.1 283.76C270.463 283.152 270.644 282.523 270.644 281.872C270.644 281.147 270.388 280.571 269.876 280.144C269.375 279.717 268.681 279.504 267.796 279.504C266.303 279.504 265.268 280.432 264.692 282.288L263.588 282.016C263.876 280.992 264.372 280.144 265.076 279.472C265.791 278.789 266.697 278.448 267.796 278.448C268.585 278.448 269.279 278.587 269.876 278.864C270.484 279.141 270.953 279.541 271.284 280.064C271.615 280.576 271.78 281.173 271.78 281.856C271.78 282.677 271.567 283.451 271.14 284.176C270.713 284.891 270.057 285.691 269.172 286.576L265.236 290.496H272.132V291.552H263.54Z" fill="white"/>
<path d="M310.142 291.552V290.656L314.926 285.904C315.747 285.083 316.339 284.368 316.702 283.76C317.064 283.152 317.246 282.523 317.246 281.872C317.246 281.147 316.99 280.571 316.478 280.144C315.976 279.717 315.283 279.504 314.398 279.504C312.904 279.504 311.87 280.432 311.294 282.288L310.19 282.016C310.478 280.992 310.974 280.144 311.678 279.472C312.392 278.789 313.299 278.448 314.398 278.448C315.187 278.448 315.88 278.587 316.478 278.864C317.086 279.141 317.555 279.541 317.886 280.064C318.216 280.576 318.382 281.173 318.382 281.856C318.382 282.677 318.168 283.451 317.742 284.176C317.315 284.891 316.659 285.691 315.774 286.576L311.838 290.496H318.734V291.552H310.142ZM321.819 288.304C322.086 289.029 322.502 289.616 323.067 290.064C323.643 290.512 324.401 290.736 325.339 290.736C326.342 290.736 327.137 290.496 327.723 290.016C328.321 289.547 328.619 288.923 328.619 288.144C328.619 287.344 328.315 286.693 327.707 286.192C327.099 285.68 326.23 285.424 325.099 285.424H323.531V284.4H325.099C326.123 284.4 326.913 284.171 327.467 283.712C328.022 283.243 328.299 282.629 328.299 281.872C328.299 281.136 328.027 280.56 327.483 280.144C326.95 279.717 326.23 279.504 325.323 279.504C323.851 279.504 322.806 280.261 322.187 281.776L321.147 281.392C321.457 280.549 321.958 279.851 322.651 279.296C323.355 278.731 324.246 278.448 325.323 278.448C326.123 278.448 326.833 278.587 327.451 278.864C328.081 279.141 328.571 279.536 328.923 280.048C329.275 280.56 329.451 281.152 329.451 281.824C329.451 282.592 329.243 283.248 328.827 283.792C328.422 284.325 327.889 284.693 327.227 284.896C327.985 285.12 328.593 285.52 329.051 286.096C329.521 286.672 329.755 287.365 329.755 288.176C329.755 288.88 329.569 289.504 329.195 290.048C328.833 290.603 328.315 291.029 327.643 291.328C326.971 291.637 326.203 291.792 325.339 291.792C324.145 291.792 323.158 291.493 322.379 290.896C321.611 290.309 321.073 289.563 320.763 288.656L321.819 288.304Z" fill="#292929"/>
<path d="M367.673 291.552V290.656L372.457 285.904C373.278 285.083 373.87 284.368 374.233 283.76C374.595 283.152 374.777 282.523 374.777 281.872C374.777 281.147 374.521 280.571 374.009 280.144C373.507 279.717 372.814 279.504 371.929 279.504C370.435 279.504 369.401 280.432 368.825 282.288L367.721 282.016C368.009 280.992 368.505 280.144 369.209 279.472C369.923 278.789 370.83 278.448 371.929 278.448C372.718 278.448 373.411 278.587 374.009 278.864C374.617 279.141 375.086 279.541 375.417 280.064C375.747 280.576 375.913 281.173 375.913 281.856C375.913 282.677 375.699 283.451 375.273 284.176C374.846 284.891 374.19 285.691 373.305 286.576L369.369 290.496H376.265V291.552H367.673ZM385.538 287.808H387.714V288.864H385.538V291.792H384.386V288.864H377.73V287.888L383.97 278.688H385.538V287.808ZM384.386 279.968L379.122 287.808H384.386V279.968Z" fill="#292929"/>
<path d="M22.7666 339.552V338.656L27.5506 333.904C28.3719 333.083 28.9639 332.368 29.3266 331.76C29.6892 331.152 29.8706 330.523 29.8706 329.872C29.8706 329.147 29.6146 328.571 29.1026 328.144C28.6012 327.717 27.9079 327.504 27.0226 327.504C25.5292 327.504 24.4946 328.432 23.9186 330.288L22.8146 330.016C23.1026 328.992 23.5986 328.144 24.3026 327.472C25.0172 326.789 25.9239 326.448 27.0226 326.448C27.8119 326.448 28.5052 326.587 29.1026 326.864C29.7106 327.141 30.1799 327.541 30.5106 328.064C30.8412 328.576 31.0066 329.173 31.0066 329.856C31.0066 330.677 30.7932 331.451 30.3666 332.176C29.9399 332.891 29.2839 333.691 28.3986 334.576L24.4626 338.496H31.3586V339.552H22.7666ZM37.9482 331.392C38.7695 331.392 39.4949 331.573 40.1242 331.936C40.7642 332.288 41.2549 332.784 41.5962 333.424C41.9482 334.064 42.1242 334.789 42.1242 335.6C42.1242 336.411 41.9375 337.136 41.5642 337.776C41.2015 338.405 40.6842 338.896 40.0122 339.248C39.3509 339.611 38.5882 339.792 37.7242 339.792C36.7855 339.792 35.9269 339.584 35.1482 339.168C34.3802 338.763 33.8202 338.171 33.4682 337.392L34.4602 336.848C34.7269 337.467 35.1482 337.936 35.7242 338.256C36.3109 338.576 36.9669 338.736 37.6922 338.736C38.3322 338.736 38.9029 338.608 39.4042 338.352C39.9055 338.096 40.2949 337.733 40.5722 337.264C40.8495 336.784 40.9882 336.229 40.9882 335.6C40.9882 334.64 40.6949 333.877 40.1082 333.312C39.5322 332.747 38.7642 332.464 37.8042 332.464C37.1109 332.464 36.5189 332.645 36.0282 333.008C35.5482 333.371 35.1855 333.872 34.9402 334.512H33.8362L34.6842 326.688H41.6602V327.744H35.6762L35.1162 332.704C35.4362 332.277 35.8415 331.952 36.3322 331.728C36.8335 331.504 37.3722 331.392 37.9482 331.392Z" fill="#EA1A21"/>
<path d="M80.1259 339.552V338.656L84.9099 333.904C85.7313 333.083 86.3233 332.368 86.6859 331.76C87.0486 331.152 87.2299 330.523 87.2299 329.872C87.2299 329.147 86.9739 328.571 86.4619 328.144C85.9606 327.717 85.2673 327.504 84.3819 327.504C82.8886 327.504 81.8539 328.432 81.2779 330.288L80.1739 330.016C80.4619 328.992 80.9579 328.144 81.6619 327.472C82.3766 326.789 83.2833 326.448 84.3819 326.448C85.1713 326.448 85.8646 326.587 86.4619 326.864C87.0699 327.141 87.5393 327.541 87.8699 328.064C88.2006 328.576 88.3659 329.173 88.3659 329.856C88.3659 330.677 88.1526 331.451 87.7259 332.176C87.2993 332.891 86.6433 333.691 85.7579 334.576L81.8219 338.496H88.7179V339.552H80.1259ZM95.5796 331.136C96.3689 331.136 97.0942 331.312 97.7556 331.664C98.4276 332.005 98.9556 332.507 99.3396 333.168C99.7342 333.819 99.9316 334.581 99.9316 335.456C99.9316 336.331 99.7342 337.099 99.3396 337.76C98.9449 338.411 98.4062 338.912 97.7236 339.264C97.0409 339.616 96.2836 339.792 95.4516 339.792C94.5982 339.792 93.8356 339.616 93.1636 339.264C92.4916 338.912 91.9582 338.405 91.5636 337.744C91.1796 337.083 90.9876 336.299 90.9876 335.392V332.176C90.9876 330.864 91.1849 329.781 91.5796 328.928C91.9849 328.064 92.5129 327.435 93.1636 327.04C93.8249 326.645 94.5502 326.448 95.3396 326.448C97.3662 326.448 98.8222 327.376 99.7076 329.232L98.7156 329.744C98.3422 328.987 97.8942 328.421 97.3716 328.048C96.8596 327.675 96.1929 327.488 95.3716 327.488C94.3796 327.488 93.5796 327.888 92.9716 328.688C92.3742 329.477 92.0809 330.656 92.0916 332.224V332.96C92.4436 332.384 92.9289 331.936 93.5476 331.616C94.1769 331.296 94.8542 331.136 95.5796 331.136ZM95.4516 338.752C96.0596 338.752 96.6142 338.624 97.1156 338.368C97.6276 338.112 98.0329 337.733 98.3316 337.232C98.6302 336.731 98.7796 336.139 98.7796 335.456C98.7796 334.773 98.6302 334.187 98.3316 333.696C98.0329 333.195 97.6276 332.816 97.1156 332.56C96.6142 332.304 96.0596 332.176 95.4516 332.176C94.8436 332.176 94.2836 332.304 93.7716 332.56C93.2702 332.816 92.8702 333.195 92.5716 333.696C92.2836 334.187 92.1396 334.773 92.1396 335.456C92.1396 336.139 92.2836 336.731 92.5716 337.232C92.8702 337.733 93.2702 338.112 93.7716 338.368C94.2836 338.624 94.8436 338.752 95.4516 338.752Z" fill="#292929"/>
<path d="M138.11 339.552V338.656L142.894 333.904C143.716 333.083 144.308 332.368 144.67 331.76C145.033 331.152 145.214 330.523 145.214 329.872C145.214 329.147 144.958 328.571 144.446 328.144C143.945 327.717 143.252 327.504 142.366 327.504C140.873 327.504 139.838 328.432 139.262 330.288L138.158 330.016C138.446 328.992 138.942 328.144 139.646 327.472C140.361 326.789 141.268 326.448 142.366 326.448C143.156 326.448 143.849 326.587 144.446 326.864C145.054 327.141 145.524 327.541 145.854 328.064C146.185 328.576 146.35 329.173 146.35 329.856C146.35 330.677 146.137 331.451 145.71 332.176C145.284 332.891 144.628 333.691 143.742 334.576L139.806 338.496H146.702V339.552H138.11ZM148.572 326.688H157.276V327.744L150.78 339.792H149.468L155.98 327.744H148.572V326.688Z" fill="#292929"/>
<path d="M194.931 339.552V338.656L199.715 333.904C200.536 333.083 201.128 332.368 201.491 331.76C201.853 331.152 202.035 330.523 202.035 329.872C202.035 329.147 201.779 328.571 201.267 328.144C200.765 327.717 200.072 327.504 199.187 327.504C197.693 327.504 196.659 328.432 196.083 330.288L194.979 330.016C195.267 328.992 195.763 328.144 196.467 327.472C197.181 326.789 198.088 326.448 199.187 326.448C199.976 326.448 200.669 326.587 201.267 326.864C201.875 327.141 202.344 327.541 202.675 328.064C203.005 328.576 203.171 329.173 203.171 329.856C203.171 330.677 202.957 331.451 202.531 332.176C202.104 332.891 201.448 333.691 200.563 334.576L196.627 338.496H203.523V339.552H194.931ZM210.384 339.792C209.488 339.792 208.688 339.632 207.984 339.312C207.291 339.003 206.752 338.565 206.368 338C205.984 337.445 205.792 336.811 205.792 336.096C205.792 335.392 206.016 334.752 206.464 334.176C206.923 333.6 207.542 333.163 208.32 332.864C207.616 332.587 207.083 332.187 206.72 331.664C206.368 331.141 206.192 330.539 206.192 329.856C206.192 329.173 206.368 328.576 206.72 328.064C207.072 327.552 207.563 327.157 208.192 326.88C208.832 326.592 209.563 326.448 210.384 326.448C211.206 326.448 211.931 326.592 212.56 326.88C213.2 327.157 213.696 327.552 214.048 328.064C214.4 328.576 214.576 329.173 214.576 329.856C214.576 330.539 214.395 331.141 214.032 331.664C213.68 332.187 213.152 332.587 212.448 332.864C213.227 333.163 213.84 333.6 214.288 334.176C214.747 334.752 214.976 335.392 214.976 336.096C214.976 336.811 214.784 337.445 214.4 338C214.016 338.565 213.478 339.003 212.784 339.312C212.091 339.632 211.291 339.792 210.384 339.792ZM210.384 332.384C211.334 332.384 212.08 332.16 212.624 331.712C213.168 331.264 213.44 330.677 213.44 329.952C213.44 329.216 213.168 328.624 212.624 328.176C212.08 327.728 211.334 327.504 210.384 327.504C209.435 327.504 208.688 327.728 208.144 328.176C207.611 328.624 207.344 329.216 207.344 329.952C207.344 330.677 207.616 331.264 208.16 331.712C208.704 332.16 209.446 332.384 210.384 332.384ZM210.384 338.736C211.451 338.736 212.288 338.491 212.896 338C213.515 337.509 213.824 336.864 213.824 336.064C213.824 335.563 213.68 335.109 213.392 334.704C213.115 334.299 212.715 333.984 212.192 333.76C211.67 333.525 211.067 333.408 210.384 333.408C209.702 333.408 209.099 333.525 208.576 333.76C208.054 333.984 207.648 334.299 207.36 334.704C207.083 335.109 206.944 335.563 206.944 336.064C206.944 336.864 207.248 337.509 207.856 338C208.475 338.491 209.318 338.736 210.384 338.736Z" fill="#292929"/>
<path d="M252.626 339.552V338.656L257.41 333.904C258.231 333.083 258.823 332.368 259.186 331.76C259.549 331.152 259.73 330.523 259.73 329.872C259.73 329.147 259.474 328.571 258.962 328.144C258.461 327.717 257.767 327.504 256.882 327.504C255.389 327.504 254.354 328.432 253.778 330.288L252.674 330.016C252.962 328.992 253.458 328.144 254.162 327.472C254.877 326.789 255.783 326.448 256.882 326.448C257.671 326.448 258.365 326.587 258.962 326.864C259.57 327.141 260.039 327.541 260.37 328.064C260.701 328.576 260.866 329.173 260.866 329.856C260.866 330.677 260.653 331.451 260.226 332.176C259.799 332.891 259.143 333.691 258.258 334.576L254.322 338.496H261.218V339.552H252.626ZM267.808 326.448C268.661 326.448 269.424 326.624 270.096 326.976C270.768 327.328 271.296 327.835 271.68 328.496C272.074 329.157 272.272 329.941 272.272 330.848V334.064C272.272 335.376 272.069 336.464 271.664 337.328C271.269 338.181 270.746 338.805 270.096 339.2C269.445 339.595 268.725 339.792 267.936 339.792C265.898 339.792 264.442 338.864 263.568 337.008L264.544 336.48C264.917 337.248 265.36 337.819 265.872 338.192C266.394 338.565 267.072 338.752 267.904 338.752C268.896 338.752 269.69 338.357 270.288 337.568C270.885 336.768 271.178 335.584 271.168 334.016V333.28C270.816 333.856 270.325 334.304 269.696 334.624C269.066 334.933 268.394 335.088 267.68 335.088C266.89 335.088 266.165 334.912 265.504 334.56C264.842 334.208 264.314 333.707 263.92 333.056C263.525 332.405 263.328 331.643 263.328 330.768C263.328 329.893 263.525 329.131 263.92 328.48C264.325 327.829 264.864 327.328 265.536 326.976C266.218 326.624 266.976 326.448 267.808 326.448ZM267.808 334.064C268.416 334.064 268.97 333.936 269.472 333.68C269.984 333.424 270.389 333.051 270.688 332.56C270.986 332.059 271.136 331.467 271.136 330.784C271.136 330.101 270.986 329.509 270.688 329.008C270.389 328.507 269.984 328.128 269.472 327.872C268.97 327.616 268.416 327.488 267.808 327.488C267.2 327.488 266.64 327.616 266.128 327.872C265.626 328.128 265.226 328.507 264.928 329.008C264.629 329.509 264.48 330.101 264.48 330.784C264.48 331.467 264.629 332.059 264.928 332.56C265.226 333.051 265.626 333.424 266.128 333.68C266.64 333.936 267.2 334.064 267.808 334.064Z" fill="#292929"/>
<path d="M321.888 339.552H320.72V328.192L317.504 330.8L316.832 329.952L320.864 326.688H321.888V339.552Z" fill="#D9D9D9"/>
<path d="M373.157 339.552V338.656L377.941 333.904C378.763 333.083 379.355 332.368 379.717 331.76C380.08 331.152 380.261 330.523 380.261 329.872C380.261 329.147 380.005 328.571 379.493 328.144C378.992 327.717 378.299 327.504 377.413 327.504C375.92 327.504 374.885 328.432 374.309 330.288L373.205 330.016C373.493 328.992 373.989 328.144 374.693 327.472C375.408 326.789 376.315 326.448 377.413 326.448C378.203 326.448 378.896 326.587 379.493 326.864C380.101 327.141 380.571 327.541 380.901 328.064C381.232 328.576 381.397 329.173 381.397 329.856C381.397 330.677 381.184 331.451 380.757 332.176C380.331 332.891 379.675 333.691 378.789 334.576L374.853 338.496H381.749V339.552H373.157Z" fill="#D9D9D9"/>
<path d="M21.32 81V79.44L27.26 73.54C28.2067 72.6067 28.8867 71.8 29.3 71.12C29.7133 70.4267 29.92 69.7133 29.92 68.98C29.92 68.1533 29.6333 67.5 29.06 67.02C28.5 66.54 27.7133 66.3 26.7 66.3C24.98 66.3 23.7933 67.38 23.14 69.54L21.24 69.08C21.6 67.7733 22.24 66.6867 23.16 65.82C24.0933 64.94 25.2733 64.5 26.7 64.5C27.74 64.5 28.6467 64.68 29.42 65.04C30.2067 65.3867 30.8133 65.8933 31.24 66.56C31.68 67.2267 31.9 68.0067 31.9 68.9C31.9 69.9267 31.6467 70.8733 31.14 71.74C30.6333 72.6067 29.8467 73.5667 28.78 74.62L24.2 79.16H32.28V81H21.32ZM40.8728 81.3C39.7661 81.3 38.7661 81.04 37.8728 80.52C36.9928 80 36.2928 79.2267 35.7728 78.2C35.2528 77.16 34.9928 75.9133 34.9928 74.46V71.32C34.9928 69.88 35.2528 68.6467 35.7728 67.62C36.2928 66.5933 36.9928 65.82 37.8728 65.3C38.7661 64.7667 39.7661 64.5 40.8728 64.5C41.9795 64.5 42.9795 64.7667 43.8728 65.3C44.7661 65.82 45.4728 66.5933 45.9928 67.62C46.5128 68.6467 46.7728 69.88 46.7728 71.32V74.46C46.7728 75.9133 46.5128 77.16 45.9928 78.2C45.4728 79.2267 44.7661 80 43.8728 80.52C42.9795 81.04 41.9795 81.3 40.8728 81.3ZM40.8728 79.5C42.0195 79.5 42.9528 79.0667 43.6728 78.2C44.3928 77.32 44.7528 76.04 44.7528 74.36V71.44C44.7528 69.76 44.3928 68.4867 43.6728 67.62C42.9528 66.74 42.0195 66.3 40.8728 66.3C39.7261 66.3 38.7928 66.74 38.0728 67.62C37.3528 68.4867 36.9928 69.76 36.9928 71.44V74.36C36.9928 76.04 37.3528 77.32 38.0728 78.2C38.7928 79.0667 39.7261 79.5 40.8728 79.5ZM49.4255 81V79.44L55.3655 73.54C56.3121 72.6067 56.9921 71.8 57.4055 71.12C57.8188 70.4267 58.0255 69.7133 58.0255 68.98C58.0255 68.1533 57.7388 67.5 57.1655 67.02C56.6055 66.54 55.8188 66.3 54.8055 66.3C53.0855 66.3 51.8988 67.38 51.2455 69.54L49.3455 69.08C49.7055 67.7733 50.3455 66.6867 51.2655 65.82C52.1988 64.94 53.3788 64.5 54.8055 64.5C55.8455 64.5 56.7521 64.68 57.5255 65.04C58.3121 65.3867 58.9188 65.8933 59.3455 66.56C59.7855 67.2267 60.0055 68.0067 60.0055 68.9C60.0055 69.9267 59.7521 70.8733 59.2455 71.74C58.7388 72.6067 57.9521 73.5667 56.8855 74.62L52.3055 79.16H60.3855V81H49.4255ZM72.2128 75.96H74.7128V77.8H72.2128V81.3H70.2328V77.8H62.0928V76.16L69.5328 64.8H72.2128V75.96ZM70.2328 67.08L64.4928 75.96H70.2328V67.08ZM92.1292 77.42H90.1492V71.04H85.6292V69.46H90.1492V67.44H85.6292V65.86H90.1492V63.52H92.1292V77.42ZM87.2092 73.6C85.0759 73.9733 82.8026 74.16 80.3892 74.16H77.4292V64.5H79.4292V72.34H80.7092C82.6426 72.34 84.7359 72.1733 86.9892 71.84L87.2092 73.6ZM81.8492 76.26V80.26H92.9092V82.08H79.8492V76.26H81.8492ZM100.636 81V79.44L106.576 73.54C107.523 72.6067 108.203 71.8 108.616 71.12C109.03 70.4267 109.236 69.7133 109.236 68.98C109.236 68.1533 108.95 67.5 108.376 67.02C107.816 66.54 107.03 66.3 106.016 66.3C104.296 66.3 103.11 67.38 102.456 69.54L100.556 69.08C100.916 67.7733 101.556 66.6867 102.476 65.82C103.41 64.94 104.59 64.5 106.016 64.5C107.056 64.5 107.963 64.68 108.736 65.04C109.523 65.3867 110.13 65.8933 110.556 66.56C110.996 67.2267 111.216 68.0067 111.216 68.9C111.216 69.9267 110.963 70.8733 110.456 71.74C109.95 72.6067 109.163 73.5667 108.096 74.62L103.516 79.16H111.596V81H100.636ZM122.449 73.44V72.06H127.609V63.52H129.609V74.04H127.609V73.44H122.449ZM119.809 69.16C118.343 69.16 117.143 68.9267 116.209 68.46C115.276 67.98 114.809 67.3267 114.809 66.5V66.38C114.809 65.54 115.269 64.8933 116.189 64.44C117.123 63.9733 118.329 63.74 119.809 63.74C121.276 63.74 122.469 63.9733 123.389 64.44C124.323 64.8933 124.789 65.54 124.789 66.38V66.5C124.789 67.3267 124.323 67.98 123.389 68.46C122.456 68.9267 121.263 69.16 119.809 69.16ZM116.709 66.46C116.709 66.82 116.989 67.1067 117.549 67.32C118.123 67.52 118.876 67.62 119.809 67.62C120.729 67.62 121.469 67.52 122.029 67.32C122.603 67.1067 122.889 66.82 122.889 66.46V66.4C122.889 66.0533 122.603 65.78 122.029 65.58C121.469 65.3667 120.729 65.26 119.809 65.26C118.876 65.26 118.123 65.3667 117.549 65.58C116.989 65.78 116.709 66.0533 116.709 66.4V66.46ZM118.609 71.64C118.249 71.6533 117.743 71.66 117.089 71.66H113.969L113.889 70.18H117.249C118.449 70.18 119.869 70.1333 121.509 70.04C123.163 69.9333 124.696 69.7933 126.109 69.62L126.289 71.06C124.716 71.2733 122.803 71.44 120.549 71.56C120.456 72.8133 120.383 73.7 120.329 74.22L118.389 74.1C118.443 73.6333 118.516 72.8133 118.609 71.64ZM119.089 79.26V80.6H130.289V82.18H117.149V77.72H127.669V76.46H117.049V74.9H129.609V79.26H119.089Z" fill="#565659"/>
<circle cx="148" cy="351" r="7" fill="#EA1A21"/>
<rect x="146.25" y="345.75" width="3.5" height="10.5" rx="1" fill="white"/>
<rect x="153.25" y="349.25" width="3.5" height="10.5" rx="1" transform="rotate(90 153.25 349.25)" fill="white"/>
<circle cx="254" cy="303" r="7" fill="#EA1A21"/>
<rect x="252.25" y="297.75" width="3.5" height="10.5" rx="1" fill="white"/>
<rect x="259.25" y="301.25" width="3.5" height="10.5" rx="1" transform="rotate(90 259.25 301.25)" fill="white"/>
<circle cx="270" cy="303" r="7" fill="#A5D15B"/>
<path fill-rule="evenodd" clip-rule="evenodd" d="M274.725 299.665C275.021 299.955 275.025 300.429 274.735 300.725L270.043 305.509C269.302 306.265 268.064 306.194 267.413 305.359L265.208 302.528C264.954 302.201 265.012 301.729 265.339 301.475C265.666 301.22 266.137 301.279 266.392 301.606L268.597 304.437C268.69 304.557 268.867 304.567 268.973 304.459L273.664 299.675C273.954 299.379 274.429 299.375 274.725 299.665Z" fill="white"/>
<circle cx="90" cy="207" r="7" fill="#EA1A21"/>
<rect x="88.25" y="201.75" width="3.5" height="10.5" rx="1" fill="white"/>
<rect x="95.25" y="205.25" width="3.5" height="10.5" rx="1" transform="rotate(90 95.25 205.25)" fill="white"/>
<circle cx="263" cy="204" r="7" fill="#A5D15B"/>
<path fill-rule="evenodd" clip-rule="evenodd" d="M267.725 200.665C268.021 200.955 268.025 201.429 267.735 201.725L263.043 206.509C262.302 207.265 261.064 207.194 260.413 206.359L258.208 203.528C257.954 203.201 258.012 202.729 258.339 202.475C258.666 202.22 259.137 202.279 259.392 202.606L261.597 205.437C261.69 205.557 261.867 205.567 261.973 205.459L266.664 200.675C266.954 200.379 267.429 200.375 267.725 200.665Z" fill="white"/>
<rect x="150" y="20" width="100" height="22" rx="10" fill="#6B85DA"/>
<path d="M169.354 36.358V35.574L173.54 31.416C174.259 30.6973 174.777 30.072 175.094 29.54C175.412 29.008 175.57 28.4573 175.57 27.888C175.57 27.2533 175.346 26.7493 174.898 26.376C174.46 26.0027 173.853 25.816 173.078 25.816C171.772 25.816 170.866 26.628 170.362 28.252L169.396 28.014C169.648 27.118 170.082 26.376 170.698 25.788C171.324 25.1907 172.117 24.892 173.078 24.892C173.769 24.892 174.376 25.0133 174.898 25.256C175.43 25.4987 175.841 25.8487 176.13 26.306C176.42 26.754 176.564 27.2767 176.564 27.874C176.564 28.5927 176.378 29.2693 176.004 29.904C175.631 30.5293 175.057 31.2293 174.282 32.004L170.838 35.434H176.872V36.358H169.354ZM182.862 36.568C182.106 36.568 181.425 36.386 180.818 36.022C180.212 35.658 179.731 35.1213 179.376 34.412C179.031 33.7027 178.858 32.8487 178.858 31.85V29.61C178.858 28.6207 179.031 27.7713 179.376 27.062C179.731 26.3433 180.212 25.802 180.818 25.438C181.425 25.074 182.106 24.892 182.862 24.892C183.609 24.892 184.286 25.074 184.892 25.438C185.499 25.802 185.975 26.3433 186.32 27.062C186.675 27.7713 186.852 28.6207 186.852 29.61V31.85C186.852 32.8487 186.675 33.7027 186.32 34.412C185.975 35.1213 185.499 35.658 184.892 36.022C184.286 36.386 183.609 36.568 182.862 36.568ZM182.862 35.658C183.422 35.658 183.926 35.5133 184.374 35.224C184.832 34.944 185.191 34.5147 185.452 33.936C185.714 33.348 185.844 32.6293 185.844 31.78V29.68C185.844 28.8307 185.714 28.1167 185.452 27.538C185.191 26.9593 184.832 26.5253 184.374 26.236C183.926 25.9467 183.422 25.802 182.862 25.802C182.302 25.802 181.794 25.9467 181.336 26.236C180.888 26.5253 180.534 26.9593 180.272 27.538C180.011 28.1167 179.88 28.8307 179.88 29.68V31.78C179.88 32.6293 180.011 33.348 180.272 33.936C180.534 34.5147 180.888 34.944 181.336 35.224C181.794 35.5133 182.302 35.658 182.862 35.658ZM188.755 36.358V35.574L192.941 31.416C193.659 30.6973 194.177 30.072 194.495 29.54C194.812 29.008 194.971 28.4573 194.971 27.888C194.971 27.2533 194.747 26.7493 194.299 26.376C193.86 26.0027 193.253 25.816 192.479 25.816C191.172 25.816 190.267 26.628 189.763 28.252L188.797 28.014C189.049 27.118 189.483 26.376 190.099 25.788C190.724 25.1907 191.517 24.892 192.479 24.892C193.169 24.892 193.776 25.0133 194.299 25.256C194.831 25.4987 195.241 25.8487 195.531 26.306C195.82 26.754 195.965 27.2767 195.965 27.874C195.965 28.5927 195.778 29.2693 195.405 29.904C195.031 30.5293 194.457 31.2293 193.683 32.004L190.239 35.434H196.273V36.358H188.755ZM204.387 33.082H206.291V34.006H204.387V36.568H203.379V34.006H197.555V33.152L203.015 25.102H204.387V33.082ZM203.379 26.222L198.773 33.082H203.379V26.222ZM218.384 33.992H217.39V29.232H213.96V28.392H217.39V26.796H213.96V25.97H217.39V24.178H218.384V33.992ZM215.29 31.108C213.564 31.388 211.87 31.528 210.208 31.528H208.36V24.948H209.368V30.604H210.376C211.076 30.604 211.851 30.5713 212.7 30.506C213.55 30.4313 214.371 30.338 215.164 30.226L215.29 31.108ZM211.076 33.166V36.176H218.986V37.1H210.082V33.166H211.076ZM228.4 36.358H227.378V26.418L224.564 28.7L223.976 27.958L227.504 25.102H228.4V36.358ZM236.534 30.982V30.226H240.454V24.178H241.462V31.528H240.454V30.982H236.534ZM234.784 28.07C233.804 28.07 232.997 27.9113 232.362 27.594C231.727 27.2767 231.41 26.838 231.41 26.278V26.18C231.41 25.62 231.727 25.186 232.362 24.878C232.997 24.5607 233.804 24.402 234.784 24.402C235.764 24.402 236.571 24.5607 237.206 24.878C237.841 25.186 238.158 25.62 238.158 26.18V26.278C238.158 26.838 237.841 27.2767 237.206 27.594C236.571 27.9113 235.764 28.07 234.784 28.07ZM232.376 26.25C232.376 26.5487 232.6 26.7913 233.048 26.978C233.496 27.1553 234.075 27.244 234.784 27.244C235.493 27.244 236.072 27.1553 236.52 26.978C236.977 26.7913 237.206 26.5487 237.206 26.25V26.208C237.206 25.9187 236.977 25.6807 236.52 25.494C236.072 25.3073 235.493 25.214 234.784 25.214C234.075 25.214 233.496 25.3073 233.048 25.494C232.6 25.6807 232.376 25.9187 232.376 26.208V26.25ZM234.14 29.764C233.869 29.7733 233.477 29.778 232.964 29.778H230.71L230.668 28.966H233.02C233.86 28.966 234.863 28.9333 236.03 28.868C237.197 28.7933 238.265 28.6953 239.236 28.574L239.334 29.344C237.971 29.5213 236.571 29.6473 235.134 29.722L235.106 30.058C235.069 30.4873 235.017 31.0333 234.952 31.696L233.972 31.612C234.037 31.1173 234.093 30.5013 234.14 29.764ZM234 35.084V36.33H242.008V37.17H233.02V34.258H240.468V33.054H232.95V32.228H241.462V35.084H234Z" fill="white"/>
<path d="M165 34L161.416 28.624C161.218 28.3272 160.782 28.3272 160.584 28.624L157 34" stroke="white" stroke-linecap="round"/>
<rect x="153" y="381" width="104" height="22" rx="10" fill="#6B85DA"/>
<path d="M171.91 397.358V396.574L176.096 392.416C176.815 391.697 177.333 391.072 177.65 390.54C177.967 390.008 178.126 389.457 178.126 388.888C178.126 388.253 177.902 387.749 177.454 387.376C177.015 387.003 176.409 386.816 175.634 386.816C174.327 386.816 173.422 387.628 172.918 389.252L171.952 389.014C172.204 388.118 172.638 387.376 173.254 386.788C173.879 386.191 174.673 385.892 175.634 385.892C176.325 385.892 176.931 386.013 177.454 386.256C177.986 386.499 178.397 386.849 178.686 387.306C178.975 387.754 179.12 388.277 179.12 388.874C179.12 389.593 178.933 390.269 178.56 390.904C178.187 391.529 177.613 392.229 176.838 393.004L173.394 396.434H179.428V397.358H171.91ZM185.418 397.568C184.662 397.568 183.981 397.386 183.374 397.022C182.767 396.658 182.287 396.121 181.932 395.412C181.587 394.703 181.414 393.849 181.414 392.85V390.61C181.414 389.621 181.587 388.771 181.932 388.062C182.287 387.343 182.767 386.802 183.374 386.438C183.981 386.074 184.662 385.892 185.418 385.892C186.165 385.892 186.841 386.074 187.448 386.438C188.055 386.802 188.531 387.343 188.876 388.062C189.231 388.771 189.408 389.621 189.408 390.61V392.85C189.408 393.849 189.231 394.703 188.876 395.412C188.531 396.121 188.055 396.658 187.448 397.022C186.841 397.386 186.165 397.568 185.418 397.568ZM185.418 396.658C185.978 396.658 186.482 396.513 186.93 396.224C187.387 395.944 187.747 395.515 188.008 394.936C188.269 394.348 188.4 393.629 188.4 392.78V390.68C188.4 389.831 188.269 389.117 188.008 388.538C187.747 387.959 187.387 387.525 186.93 387.236C186.482 386.947 185.978 386.802 185.418 386.802C184.858 386.802 184.349 386.947 183.892 387.236C183.444 387.525 183.089 387.959 182.828 388.538C182.567 389.117 182.436 389.831 182.436 390.68V392.78C182.436 393.629 182.567 394.348 182.828 394.936C183.089 395.515 183.444 395.944 183.892 396.224C184.349 396.513 184.858 396.658 185.418 396.658ZM191.31 397.358V396.574L195.496 392.416C196.215 391.697 196.733 391.072 197.05 390.54C197.368 390.008 197.526 389.457 197.526 388.888C197.526 388.253 197.302 387.749 196.854 387.376C196.416 387.003 195.809 386.816 195.034 386.816C193.728 386.816 192.822 387.628 192.318 389.252L191.352 389.014C191.604 388.118 192.038 387.376 192.654 386.788C193.28 386.191 194.073 385.892 195.034 385.892C195.725 385.892 196.332 386.013 196.854 386.256C197.386 386.499 197.797 386.849 198.086 387.306C198.376 387.754 198.52 388.277 198.52 388.874C198.52 389.593 198.334 390.269 197.96 390.904C197.587 391.529 197.013 392.229 196.238 393.004L192.794 396.434H198.828V397.358H191.31ZM206.942 394.082H208.846V395.006H206.942V397.568H205.934V395.006H200.11V394.152L205.57 386.102H206.942V394.082ZM205.934 387.222L201.328 394.082H205.934V387.222ZM220.94 394.992H219.946V390.232H216.516V389.392H219.946V387.796H216.516V386.97H219.946V385.178H220.94V394.992ZM217.846 392.108C216.119 392.388 214.425 392.528 212.764 392.528H210.916V385.948H211.924V391.604H212.932C213.632 391.604 214.407 391.571 215.256 391.506C216.105 391.431 216.927 391.338 217.72 391.226L217.846 392.108ZM213.632 394.166V397.176H221.542V398.1H212.638V394.166H213.632ZM227.806 394.516C228.039 395.151 228.403 395.664 228.898 396.056C229.402 396.448 230.064 396.644 230.886 396.644C231.763 396.644 232.458 396.434 232.972 396.014C233.494 395.603 233.756 395.057 233.756 394.376C233.756 393.676 233.49 393.107 232.958 392.668C232.426 392.22 231.665 391.996 230.676 391.996H229.304V391.1H230.676C231.572 391.1 232.262 390.899 232.748 390.498C233.233 390.087 233.476 389.551 233.476 388.888C233.476 388.244 233.238 387.74 232.762 387.376C232.295 387.003 231.665 386.816 230.872 386.816C229.584 386.816 228.669 387.479 228.128 388.804L227.218 388.468C227.488 387.731 227.927 387.119 228.534 386.634C229.15 386.139 229.929 385.892 230.872 385.892C231.572 385.892 232.192 386.013 232.734 386.256C233.284 386.499 233.714 386.844 234.022 387.292C234.33 387.74 234.484 388.258 234.484 388.846C234.484 389.518 234.302 390.092 233.938 390.568C233.583 391.035 233.116 391.357 232.538 391.534C233.2 391.73 233.732 392.08 234.134 392.584C234.544 393.088 234.75 393.695 234.75 394.404C234.75 395.02 234.586 395.566 234.26 396.042C233.942 396.527 233.49 396.901 232.902 397.162C232.314 397.433 231.642 397.568 230.886 397.568C229.84 397.568 228.977 397.307 228.296 396.784C227.624 396.271 227.152 395.617 226.882 394.824L227.806 394.516ZM242.33 391.982V391.226H246.25V385.178H247.258V392.528H246.25V391.982H242.33ZM240.58 389.07C239.6 389.07 238.793 388.911 238.158 388.594C237.523 388.277 237.206 387.838 237.206 387.278V387.18C237.206 386.62 237.523 386.186 238.158 385.878C238.793 385.561 239.6 385.402 240.58 385.402C241.56 385.402 242.367 385.561 243.002 385.878C243.637 386.186 243.954 386.62 243.954 387.18V387.278C243.954 387.838 243.637 388.277 243.002 388.594C242.367 388.911 241.56 389.07 240.58 389.07ZM238.172 387.25C238.172 387.549 238.396 387.791 238.844 387.978C239.292 388.155 239.871 388.244 240.58 388.244C241.289 388.244 241.868 388.155 242.316 387.978C242.773 387.791 243.002 387.549 243.002 387.25V387.208C243.002 386.919 242.773 386.681 242.316 386.494C241.868 386.307 241.289 386.214 240.58 386.214C239.871 386.214 239.292 386.307 238.844 386.494C238.396 386.681 238.172 386.919 238.172 387.208V387.25ZM239.936 390.764C239.665 390.773 239.273 390.778 238.76 390.778H236.506L236.464 389.966H238.816C239.656 389.966 240.659 389.933 241.826 389.868C242.993 389.793 244.061 389.695 245.032 389.574L245.13 390.344C243.767 390.521 242.367 390.647 240.93 390.722L240.902 391.058C240.865 391.487 240.813 392.033 240.748 392.696L239.768 392.612C239.833 392.117 239.889 391.501 239.936 390.764ZM239.796 396.084V397.33H247.804V398.17H238.816V395.258H246.264V394.054H238.746V393.228H247.258V396.084H239.796Z" fill="white"/>
<path d="M168 389L164.416 394.376C164.218 394.673 163.782 394.673 163.584 394.376L160 389" stroke="white" stroke-linecap="round"/>
<line x1="20" y1="51.5" x2="390" y2="51.5" stroke="#D9D9D9"/>
<line x1="20" y1="370.5" x2="390" y2="370.5" stroke="#D9D9D9"/>
<path d="M21.32 472V470.44L27.26 464.54C28.2067 463.607 28.8867 462.8 29.3 462.12C29.7133 461.427 29.92 460.713 29.92 459.98C29.92 459.153 29.6333 458.5 29.06 458.02C28.5 457.54 27.7133 457.3 26.7 457.3C24.98 457.3 23.7933 458.38 23.14 460.54L21.24 460.08C21.6 458.773 22.24 457.687 23.16 456.82C24.0933 455.94 25.2733 455.5 26.7 455.5C27.74 455.5 28.6467 455.68 29.42 456.04C30.2067 456.387 30.8133 456.893 31.24 457.56C31.68 458.227 31.9 459.007 31.9 459.9C31.9 460.927 31.6467 461.873 31.14 462.74C30.6333 463.607 29.8467 464.567 28.78 465.62L24.2 470.16H32.28V472H21.32ZM43.1328 464.44V463.06H48.2928V454.52H50.2928V465.04H48.2928V464.44H43.1328ZM40.4928 460.16C39.0261 460.16 37.8261 459.927 36.8928 459.46C35.9595 458.98 35.4928 458.327 35.4928 457.5V457.38C35.4928 456.54 35.9528 455.893 36.8728 455.44C37.8061 454.973 39.0128 454.74 40.4928 454.74C41.9595 454.74 43.1528 454.973 44.0728 455.44C45.0061 455.893 45.4728 456.54 45.4728 457.38V457.5C45.4728 458.327 45.0061 458.98 44.0728 459.46C43.1395 459.927 41.9461 460.16 40.4928 460.16ZM37.3928 457.46C37.3928 457.82 37.6728 458.107 38.2328 458.32C38.8061 458.52 39.5595 458.62 40.4928 458.62C41.4128 458.62 42.1528 458.52 42.7128 458.32C43.2861 458.107 43.5728 457.82 43.5728 457.46V457.4C43.5728 457.053 43.2861 456.78 42.7128 456.58C42.1528 456.367 41.4128 456.26 40.4928 456.26C39.5595 456.26 38.8061 456.367 38.2328 456.58C37.6728 456.78 37.3928 457.053 37.3928 457.4V457.46ZM39.2928 462.64C38.9328 462.653 38.4261 462.66 37.7728 462.66H34.6528L34.5728 461.18H37.9328C39.1328 461.18 40.5528 461.133 42.1928 461.04C43.8461 460.933 45.3795 460.793 46.7928 460.62L46.9728 462.06C45.3995 462.273 43.4861 462.44 41.2328 462.56C41.1395 463.813 41.0661 464.7 41.0128 465.22L39.0728 465.1C39.1261 464.633 39.1995 463.813 39.2928 462.64ZM39.7728 470.26V471.6H50.9728V473.18H37.8328V468.72H48.3528V467.46H37.7328V465.9H50.2928V470.26H39.7728ZM58.82 472V470.44L64.76 464.54C65.7067 463.607 66.3867 462.8 66.8 462.12C67.2133 461.427 67.42 460.713 67.42 459.98C67.42 459.153 67.1333 458.5 66.56 458.02C66 457.54 65.2133 457.3 64.2 457.3C62.48 457.3 61.2933 458.38 60.64 460.54L58.74 460.08C59.1 458.773 59.74 457.687 60.66 456.82C61.5933 455.94 62.7733 455.5 64.2 455.5C65.24 455.5 66.1467 455.68 66.92 456.04C67.7067 456.387 68.3133 456.893 68.74 457.56C69.18 458.227 69.4 459.007 69.4 459.9C69.4 460.927 69.1467 461.873 68.64 462.74C68.1333 463.607 67.3467 464.567 66.28 465.62L61.7 470.16H69.78V472H58.82ZM72.4528 472V470.44L78.3928 464.54C79.3395 463.607 80.0195 462.8 80.4328 462.12C80.8461 461.427 81.0528 460.713 81.0528 459.98C81.0528 459.153 80.7661 458.5 80.1928 458.02C79.6328 457.54 78.8461 457.3 77.8328 457.3C76.1128 457.3 74.9261 458.38 74.2728 460.54L72.3728 460.08C72.7328 458.773 73.3728 457.687 74.2928 456.82C75.2261 455.94 76.4061 455.5 77.8328 455.5C78.8728 455.5 79.7795 455.68 80.5528 456.04C81.3395 456.387 81.9461 456.893 82.3728 457.56C82.8128 458.227 83.0328 459.007 83.0328 459.9C83.0328 460.927 82.7795 461.873 82.2728 462.74C81.7661 463.607 80.9795 464.567 79.9128 465.62L75.3328 470.16H83.4128V472H72.4528ZM101.426 463.58H99.4456V454.52H101.426V463.58ZM91.2256 463.16C89.759 463.16 88.559 462.813 87.6256 462.12C86.7056 461.427 86.2456 460.433 86.2456 459.14V458.84C86.2456 457.547 86.7056 456.553 87.6256 455.86C88.559 455.167 89.759 454.82 91.2256 454.82C92.679 454.82 93.8656 455.167 94.7856 455.86C95.719 456.553 96.1856 457.547 96.1856 458.84V459.14C96.1856 460.433 95.719 461.427 94.7856 462.12C93.8656 462.813 92.679 463.16 91.2256 463.16ZM91.2256 461.4C92.1056 461.4 92.819 461.2 93.3656 460.8C93.9123 460.4 94.1856 459.833 94.1856 459.1V458.88C94.1856 458.147 93.9123 457.58 93.3656 457.18C92.819 456.78 92.1056 456.58 91.2256 456.58C90.3323 456.58 89.6123 456.78 89.0656 457.18C88.519 457.58 88.2456 458.147 88.2456 458.88V459.1C88.2456 459.833 88.519 460.4 89.0656 460.8C89.6123 461.2 90.3323 461.4 91.2256 461.4ZM102.126 473.18H89.1656V468.08H99.4456V466.4H89.0656V464.74H101.426V469.72H91.1656V471.48H102.126V473.18ZM125.293 463.58H123.313V454.52H125.293V463.58ZM115.093 463.16C113.626 463.16 112.426 462.813 111.493 462.12C110.573 461.427 110.113 460.433 110.113 459.14V458.84C110.113 457.547 110.573 456.553 111.493 455.86C112.426 455.167 113.626 454.82 115.093 454.82C116.546 454.82 117.733 455.167 118.653 455.86C119.586 456.553 120.053 457.547 120.053 458.84V459.14C120.053 460.433 119.586 461.427 118.653 462.12C117.733 462.813 116.546 463.16 115.093 463.16ZM115.093 461.4C115.973 461.4 116.686 461.2 117.233 460.8C117.779 460.4 118.053 459.833 118.053 459.1V458.88C118.053 458.147 117.779 457.58 117.233 457.18C116.686 456.78 115.973 456.58 115.093 456.58C114.199 456.58 113.479 456.78 112.933 457.18C112.386 457.58 112.113 458.147 112.113 458.88V459.1C112.113 459.833 112.386 460.4 112.933 460.8C113.479 461.2 114.199 461.4 115.093 461.4ZM125.993 473.18H113.033V468.08H123.313V466.4H112.933V464.74H125.293V469.72H115.033V471.48H125.993V473.18ZM138.638 460.26V458.54H142.258V454.52H144.258V464.64H142.258V460.26H138.638ZM133.978 461.22C133.071 462.513 131.578 463.72 129.498 464.84L128.558 463.24C130.184 462.32 131.378 461.387 132.138 460.44C132.911 459.48 133.298 458.393 133.298 457.18H129.298V455.4H139.298V457.18H135.238C135.238 458.047 135.098 458.86 134.818 459.62L140.018 462.9L139.018 464.54L133.978 461.22ZM140.058 465.62C140.951 465.62 141.731 465.787 142.398 466.12C143.064 466.44 143.578 466.893 143.938 467.48C144.311 468.053 144.498 468.707 144.498 469.44C144.498 470.187 144.311 470.847 143.938 471.42C143.578 472.007 143.064 472.46 142.398 472.78C141.731 473.113 140.951 473.28 140.058 473.28H136.018C135.138 473.28 134.358 473.113 133.678 472.78C133.011 472.46 132.498 472.007 132.138 471.42C131.778 470.847 131.598 470.187 131.598 469.44C131.598 468.707 131.778 468.053 132.138 467.48C132.498 466.893 133.011 466.44 133.678 466.12C134.358 465.787 135.138 465.62 136.018 465.62H140.058ZM139.758 471.48C140.651 471.48 141.331 471.293 141.798 470.92C142.264 470.547 142.498 470.053 142.498 469.44C142.498 468.827 142.264 468.333 141.798 467.96C141.331 467.587 140.651 467.4 139.758 467.4H136.338C135.444 467.4 134.758 467.587 134.278 467.96C133.811 468.333 133.578 468.827 133.578 469.44C133.578 470.053 133.811 470.547 134.278 470.92C134.758 471.293 135.444 471.48 136.338 471.48H139.758Z" fill="#565659"/>
<circle cx="32" cy="501" r="12" fill="#EA1A21"/>
<rect x="29" y="492" width="6" height="18" rx="1" fill="white"/>
<rect x="41" y="498" width="6" height="18" rx="1" transform="rotate(90 41 498)" fill="white"/>
<path d="M60.904 507.6H59.304V496.752L56.36 499.104L55.448 497.904L59.544 494.64H60.904V507.6ZM71.489 503.568H73.489V505.04H71.489V507.84H69.905V505.04H63.393V503.728L69.345 494.64H71.489V503.568ZM69.905 496.464L65.313 503.568H69.905V496.464ZM76.4621 498.352C76.1635 498.352 75.9021 498.245 75.6781 498.032C75.4648 497.808 75.3581 497.547 75.3581 497.248C75.3581 496.949 75.4648 496.693 75.6781 496.48C75.8915 496.267 76.1528 496.16 76.4621 496.16C76.7715 496.16 77.0275 496.267 77.2301 496.48C77.4435 496.683 77.5501 496.939 77.5501 497.248C77.5501 497.557 77.4435 497.819 77.2301 498.032C77.0168 498.245 76.7608 498.352 76.4621 498.352ZM76.4621 506.08C76.1635 506.08 75.9021 505.973 75.6781 505.76C75.4648 505.536 75.3581 505.275 75.3581 504.976C75.3581 504.677 75.4648 504.421 75.6781 504.208C75.8915 503.995 76.1528 503.888 76.4621 503.888C76.7715 503.888 77.0275 503.995 77.2301 504.208C77.4435 504.411 77.5501 504.667 77.5501 504.976C77.5501 505.285 77.4435 505.547 77.2301 505.76C77.0168 505.973 76.7608 506.08 76.4621 506.08ZM84.6201 507.84C83.7348 507.84 82.9348 507.632 82.2201 507.216C81.5161 506.8 80.9561 506.181 80.5401 505.36C80.1241 504.528 79.9161 503.531 79.9161 502.368V499.856C79.9161 498.704 80.1241 497.717 80.5401 496.896C80.9561 496.075 81.5161 495.456 82.2201 495.04C82.9348 494.613 83.7348 494.4 84.6201 494.4C85.5055 494.4 86.3055 494.613 87.0201 495.04C87.7348 495.456 88.3001 496.075 88.7161 496.896C89.1321 497.717 89.3401 498.704 89.3401 499.856V502.368C89.3401 503.531 89.1321 504.528 88.7161 505.36C88.3001 506.181 87.7348 506.8 87.0201 507.216C86.3055 507.632 85.5055 507.84 84.6201 507.84ZM84.6201 506.4C85.5375 506.4 86.2841 506.053 86.8601 505.36C87.4361 504.656 87.7241 503.632 87.7241 502.288V499.952C87.7241 498.608 87.4361 497.589 86.8601 496.896C86.2841 496.192 85.5375 495.84 84.6201 495.84C83.7028 495.84 82.9561 496.192 82.3801 496.896C81.8041 497.589 81.5161 498.608 81.5161 499.952V502.288C81.5161 503.632 81.8041 504.656 82.3801 505.36C82.9561 506.053 83.7028 506.4 84.6201 506.4ZM96.1983 507.84C95.3129 507.84 94.5129 507.632 93.7983 507.216C93.0943 506.8 92.5343 506.181 92.1183 505.36C91.7023 504.528 91.4943 503.531 91.4943 502.368V499.856C91.4943 498.704 91.7023 497.717 92.1183 496.896C92.5343 496.075 93.0943 495.456 93.7983 495.04C94.5129 494.613 95.3129 494.4 96.1983 494.4C97.0836 494.4 97.8836 494.613 98.5983 495.04C99.3129 495.456 99.8783 496.075 100.294 496.896C100.71 497.717 100.918 498.704 100.918 499.856V502.368C100.918 503.531 100.71 504.528 100.294 505.36C99.8783 506.181 99.3129 506.8 98.5983 507.216C97.8836 507.632 97.0836 507.84 96.1983 507.84ZM96.1983 506.4C97.1156 506.4 97.8623 506.053 98.4383 505.36C99.0143 504.656 99.3023 503.632 99.3023 502.288V499.952C99.3023 498.608 99.0143 497.589 98.4383 496.896C97.8623 496.192 97.1156 495.84 96.1983 495.84C95.2809 495.84 94.5343 496.192 93.9583 496.896C93.3823 497.589 93.0943 498.608 93.0943 499.952V502.288C93.0943 503.632 93.3823 504.656 93.9583 505.36C94.5343 506.053 95.2809 506.4 96.1983 506.4Z" fill="#292929"/>
<path d="M122.728 510.344H118.408V493.88H122.728V495.304H119.928V508.92H122.728V510.344ZM135.228 494.616H136.812V505.736H135.228V494.616ZM128.732 500.536C127.996 501.752 126.78 502.893 125.084 503.96L124.268 502.712C125.602 501.827 126.583 500.931 127.212 500.024C127.852 499.107 128.172 498.083 128.172 496.952V496.824H124.844V495.4H133.084V496.824H129.724V496.952C129.724 497.752 129.607 498.499 129.372 499.192L133.66 502.392L132.796 503.64L128.732 500.536ZM128.588 504.808V508.008H137.436V509.464H126.988V504.808H128.588ZM140.976 498.984H149.92V497.048H140.896V495.608H151.52V500.392H142.576V502.392H151.824V503.8H140.976V498.984ZM149.504 504.664V506.888H153.216V508.36H139.264V506.888H142.992V504.664H144.544V506.888H147.952V504.664H149.504ZM158.916 510.344H154.596V508.92H157.38V495.304H154.596V493.88H158.916V510.344ZM172.938 501.192C172.64 501.885 172.176 502.413 171.546 502.776C170.917 503.128 170.192 503.304 169.37 503.304C168.624 503.304 167.952 503.155 167.354 502.856C166.757 502.557 166.282 502.109 165.93 501.512C165.589 500.915 165.418 500.184 165.418 499.32V499.016C165.418 498.141 165.589 497.405 165.93 496.808C166.282 496.2 166.757 495.752 167.354 495.464C167.952 495.165 168.624 495.016 169.37 495.016C170.106 495.016 170.762 495.16 171.338 495.448C171.925 495.725 172.384 496.147 172.714 496.712H175.978V494.616H177.578V505.736H175.978V501.192H172.938ZM167.018 499.288C167.018 500.131 167.237 500.776 167.674 501.224C168.112 501.672 168.677 501.896 169.37 501.896C170.053 501.896 170.608 501.672 171.034 501.224C171.472 500.776 171.69 500.131 171.69 499.288V499.032C171.69 498.189 171.472 497.544 171.034 497.096C170.608 496.648 170.053 496.424 169.37 496.424C168.677 496.424 168.112 496.648 167.674 497.096C167.237 497.544 167.018 498.189 167.018 499.032V499.288ZM175.978 498.008H173.194C173.258 498.307 173.29 498.643 173.29 499.016V499.32C173.29 499.448 173.28 499.64 173.258 499.896H175.978V498.008ZM169.354 504.648V508.008H178.202V509.464H167.754V504.648H169.354ZM191.406 509.464V494.616H192.958V509.464H191.406ZM185.822 499.736H188.19V494.84H189.71V509.16H188.19V501.192H185.822V499.736ZM184.318 497.448C184.318 498.717 184.201 499.907 183.966 501.016L187.278 506.376L185.998 507.288L183.406 503.064C182.852 504.621 182.057 506.083 181.022 507.448L179.806 506.488C180.82 505.133 181.572 503.72 182.062 502.248C182.553 500.776 182.798 499.176 182.798 497.448V495.48H184.318V497.448ZM207.906 509.464H206.306V494.616H207.906V509.464ZM200.05 503.496C199.293 503.496 198.61 503.352 198.002 503.064C197.405 502.765 196.93 502.323 196.578 501.736C196.226 501.149 196.05 500.424 196.05 499.56V499.272C196.05 498.408 196.226 497.683 196.578 497.096C196.93 496.499 197.405 496.056 198.002 495.768C198.61 495.469 199.293 495.32 200.05 495.32C200.807 495.32 201.485 495.469 202.082 495.768C202.69 496.056 203.165 496.499 203.506 497.096C203.858 497.683 204.034 498.408 204.034 499.272V499.56C204.034 500.424 203.858 501.149 203.506 501.736C203.165 502.323 202.69 502.765 202.082 503.064C201.485 503.352 200.807 503.496 200.05 503.496ZM200.05 502.04C200.754 502.04 201.33 501.827 201.778 501.4C202.226 500.973 202.45 500.355 202.45 499.544V499.272C202.45 498.461 202.226 497.843 201.778 497.416C201.33 496.989 200.754 496.776 200.05 496.776C199.335 496.776 198.754 496.989 198.306 497.416C197.869 497.843 197.65 498.461 197.65 499.272V499.544C197.65 500.355 197.869 500.973 198.306 501.4C198.754 501.827 199.335 502.04 200.05 502.04ZM195.41 507.16L195.33 505.704H198.018C198.925 505.704 200.034 505.661 201.346 505.576C202.658 505.491 203.895 505.379 205.058 505.24L205.234 506.648C204.135 506.808 202.914 506.931 201.57 507.016C200.237 507.112 199.005 507.16 197.874 507.16H195.41ZM217.35 505.176V503.96H221.494V494.616H223.078V506.44H221.494V505.176H217.35ZM215.238 500.584C214.065 500.584 213.105 500.349 212.358 499.88C211.611 499.4 211.238 498.728 211.238 497.864V497.672C211.238 496.797 211.611 496.125 212.358 495.656C213.105 495.176 214.065 494.936 215.238 494.936C216.411 494.936 217.366 495.176 218.102 495.656C218.849 496.125 219.222 496.797 219.222 497.672V497.864C219.222 498.728 218.849 499.4 218.102 499.88C217.355 500.349 216.401 500.584 215.238 500.584ZM212.758 497.832C212.758 498.28 212.987 498.632 213.446 498.888C213.905 499.144 214.502 499.272 215.238 499.272C215.974 499.272 216.566 499.144 217.014 498.888C217.473 498.632 217.702 498.28 217.702 497.832V497.704C217.702 497.245 217.473 496.888 217.014 496.632C216.566 496.376 215.974 496.248 215.238 496.248C214.502 496.248 213.905 496.376 213.446 496.632C212.987 496.888 212.758 497.245 212.758 497.704V497.832ZM214.07 505.4C214.102 505.112 214.155 504.515 214.23 503.608L214.278 503.096C213.99 503.107 213.585 503.112 213.062 503.112H210.582L210.518 501.768H213.19C214.129 501.768 215.254 501.725 216.566 501.64C217.878 501.555 219.11 501.443 220.262 501.304L220.422 502.616C219.014 502.808 217.478 502.947 215.814 503.032C215.761 503.96 215.691 504.787 215.606 505.512L214.07 505.4ZM214.694 506.04V508.008H223.702V509.464H213.11V506.04H214.694ZM240.588 502.632V494.616H242.172V502.632H240.588ZM237.66 496.216C237.66 499.203 235.356 501.384 230.748 502.76L230.156 501.336C231.926 500.824 233.324 500.173 234.348 499.384C235.382 498.584 235.942 497.741 236.028 496.856H230.492V495.4H237.66V496.216ZM242.172 509.464H232.348V503.576H242.172V509.464ZM240.588 504.984H233.948V508.024H240.588V504.984ZM257.36 505.736H255.76V494.616H257.36V505.736ZM252.72 502.904H245.36V495.4H252.72V502.904ZM246.912 496.808V501.496H251.168V496.808H246.912ZM257.984 509.464H247.536V504.808H249.136V508.008H257.984V509.464ZM270.916 509.464V494.616H272.516V509.464H270.916ZM265.428 497.864C265.428 498.973 265.289 500.051 265.012 501.096L269.364 506.232L268.196 507.288L264.404 502.776C263.7 504.333 262.596 505.891 261.092 507.448L259.956 506.376C261.278 505 262.26 503.651 262.9 502.328C263.54 500.995 263.86 499.507 263.86 497.864V497.24H260.548V495.784H268.772V497.24H265.428V497.864ZM291.609 505.736H290.025V499.304H286.809V497.88H290.025V494.616H291.609V505.736ZM283.353 500.216C282.628 501.421 281.492 502.536 279.945 503.56L279.049 502.328C280.351 501.453 281.305 500.531 281.913 499.56C282.532 498.589 282.841 497.507 282.841 496.312V495.176H284.409V496.312C284.409 497.219 284.276 498.056 284.009 498.824L288.153 502.136L287.241 503.336L283.353 500.216ZM283.385 504.808V508.008H292.233V509.464H281.801V504.808H283.385ZM305.485 499.144H303.645V502.568H302.157V494.776H303.645V497.736H305.485V494.616H307.005V502.712H305.485V499.144ZM300.573 502.36L297.597 499.768C297 500.813 296.082 501.784 294.845 502.68L293.933 501.48C295.97 499.987 296.989 498.195 296.989 496.104V495.096H298.525V496.104C298.525 496.883 298.418 497.635 298.205 498.36L301.501 501.208L300.573 502.36ZM303.645 503.496C304.36 503.496 304.984 503.629 305.517 503.896C306.05 504.152 306.461 504.515 306.749 504.984C307.048 505.443 307.197 505.965 307.197 506.552C307.197 507.149 307.048 507.677 306.749 508.136C306.461 508.605 306.05 508.968 305.517 509.224C304.984 509.491 304.36 509.624 303.645 509.624H300.285C299.57 509.624 298.946 509.491 298.413 509.224C297.88 508.968 297.464 508.605 297.165 508.136C296.877 507.677 296.733 507.149 296.733 506.552C296.733 505.965 296.877 505.443 297.165 504.984C297.464 504.515 297.88 504.152 298.413 503.896C298.946 503.629 299.57 503.496 300.285 503.496H303.645ZM303.389 508.184C304.114 508.184 304.664 508.035 305.037 507.736C305.421 507.437 305.613 507.043 305.613 506.552C305.613 506.061 305.421 505.667 305.037 505.368C304.664 505.069 304.114 504.92 303.389 504.92H300.541C299.816 504.92 299.261 505.069 298.877 505.368C298.504 505.667 298.317 506.061 298.317 506.552C298.317 507.043 298.504 507.437 298.877 507.736C299.261 508.035 299.816 508.184 300.541 508.184H303.389ZM321.953 502.632H320.369V494.616H321.953V502.632ZM310.193 502.12V495.32H311.809V500.664H313.041C313.894 500.664 314.822 500.621 315.825 500.536C316.828 500.451 317.804 500.333 318.753 500.184L318.945 501.592C318.017 501.752 317.014 501.88 315.937 501.976C314.87 502.072 313.814 502.12 312.769 502.12H310.193ZM321.953 509.464H312.145V503.576H321.953V509.464ZM313.729 504.984V508.024H320.369V504.984H313.729Z" fill="#292929"/>
<circle cx="32" cy="540" r="12" fill="#A5D15B"/>
<path fill-rule="evenodd" clip-rule="evenodd" d="M40.1002 534.282C40.6072 534.779 40.6151 535.593 40.1179 536.1L32.0747 544.301C30.8035 545.597 28.6815 545.476 27.566 544.044L23.7856 539.19C23.3493 538.63 23.4497 537.822 24.0099 537.386C24.5701 536.949 25.378 537.05 25.8143 537.61L29.5947 542.464C29.7541 542.669 30.0572 542.686 30.2388 542.501L38.282 534.3C38.7792 533.793 39.5932 533.785 40.1002 534.282Z" fill="white"/>
<path d="M60.904 546.6H59.304V535.752L56.36 538.104L55.448 536.904L59.544 533.64H60.904V546.6ZM68.577 538.088C69.3557 538.088 70.0757 538.269 70.737 538.632C71.3983 538.995 71.9263 539.507 72.321 540.168C72.7263 540.829 72.929 541.597 72.929 542.472C72.929 543.347 72.7263 544.115 72.321 544.776C71.9157 545.437 71.361 545.944 70.657 546.296C69.953 546.659 69.169 546.84 68.305 546.84C67.4197 546.84 66.6303 546.664 65.937 546.312C65.2437 545.96 64.6997 545.443 64.305 544.76C63.9103 544.077 63.713 543.267 63.713 542.328V539.096C63.713 537.816 63.9157 536.749 64.321 535.896C64.737 535.043 65.281 534.413 65.953 534.008C66.6357 533.603 67.3717 533.4 68.161 533.4C70.273 533.4 71.777 534.333 72.673 536.2L71.345 536.904C70.9823 536.2 70.561 535.677 70.081 535.336C69.601 534.995 68.9823 534.824 68.225 534.824C67.3183 534.824 66.5823 535.187 66.017 535.912C65.4623 536.637 65.1903 537.72 65.201 539.16V539.784C65.5423 539.24 66.0117 538.824 66.609 538.536C67.217 538.237 67.873 538.088 68.577 538.088ZM68.305 545.416C68.8703 545.416 69.3823 545.293 69.841 545.048C70.3103 544.813 70.6783 544.472 70.945 544.024C71.2117 543.576 71.345 543.048 71.345 542.44C71.345 541.843 71.2117 541.32 70.945 540.872C70.6783 540.424 70.3103 540.083 69.841 539.848C69.3823 539.613 68.8703 539.496 68.305 539.496C67.7503 539.496 67.2437 539.613 66.785 539.848C66.3263 540.083 65.9637 540.424 65.697 540.872C65.4303 541.32 65.297 541.843 65.297 542.44C65.297 543.048 65.4303 543.576 65.697 544.024C65.9637 544.472 66.3263 544.813 66.785 545.048C67.2437 545.293 67.7503 545.416 68.305 545.416ZM76.2278 537.352C75.9291 537.352 75.6678 537.245 75.4438 537.032C75.2304 536.808 75.1238 536.547 75.1238 536.248C75.1238 535.949 75.2304 535.693 75.4438 535.48C75.6571 535.267 75.9184 535.16 76.2278 535.16C76.5371 535.16 76.7931 535.267 76.9958 535.48C77.2091 535.683 77.3158 535.939 77.3158 536.248C77.3158 536.557 77.2091 536.819 76.9958 537.032C76.7824 537.245 76.5264 537.352 76.2278 537.352ZM76.2278 545.08C75.9291 545.08 75.6678 544.973 75.4438 544.76C75.2304 544.536 75.1238 544.275 75.1238 543.976C75.1238 543.677 75.2304 543.421 75.4438 543.208C75.6571 542.995 75.9184 542.888 76.2278 542.888C76.5371 542.888 76.7931 542.995 76.9958 543.208C77.2091 543.411 77.3158 543.667 77.3158 543.976C77.3158 544.285 77.2091 544.547 76.9958 544.76C76.7824 544.973 76.5264 545.08 76.2278 545.08ZM84.3858 546.84C83.5004 546.84 82.7004 546.632 81.9858 546.216C81.2818 545.8 80.7218 545.181 80.3058 544.36C79.8898 543.528 79.6818 542.531 79.6818 541.368V538.856C79.6818 537.704 79.8898 536.717 80.3058 535.896C80.7218 535.075 81.2818 534.456 81.9858 534.04C82.7004 533.613 83.5004 533.4 84.3858 533.4C85.2711 533.4 86.0711 533.613 86.7858 534.04C87.5004 534.456 88.0658 535.075 88.4818 535.896C88.8978 536.717 89.1058 537.704 89.1058 538.856V541.368C89.1058 542.531 88.8978 543.528 88.4818 544.36C88.0658 545.181 87.5004 545.8 86.7858 546.216C86.0711 546.632 85.2711 546.84 84.3858 546.84ZM84.3858 545.4C85.3031 545.4 86.0498 545.053 86.6258 544.36C87.2018 543.656 87.4898 542.632 87.4898 541.288V538.952C87.4898 537.608 87.2018 536.589 86.6258 535.896C86.0498 535.192 85.3031 534.84 84.3858 534.84C83.4684 534.84 82.7218 535.192 82.1458 535.896C81.5698 536.589 81.2818 537.608 81.2818 538.952V541.288C81.2818 542.632 81.5698 543.656 82.1458 544.36C82.7218 545.053 83.4684 545.4 84.3858 545.4ZM95.9639 546.84C95.0785 546.84 94.2785 546.632 93.5639 546.216C92.8599 545.8 92.2999 545.181 91.8839 544.36C91.4679 543.528 91.2599 542.531 91.2599 541.368V538.856C91.2599 537.704 91.4679 536.717 91.8839 535.896C92.2999 535.075 92.8599 534.456 93.5639 534.04C94.2785 533.613 95.0785 533.4 95.9639 533.4C96.8492 533.4 97.6492 533.613 98.3639 534.04C99.0785 534.456 99.6439 535.075 100.06 535.896C100.476 536.717 100.684 537.704 100.684 538.856V541.368C100.684 542.531 100.476 543.528 100.06 544.36C99.6439 545.181 99.0785 545.8 98.3639 546.216C97.6492 546.632 96.8492 546.84 95.9639 546.84ZM95.9639 545.4C96.8812 545.4 97.6279 545.053 98.2039 544.36C98.7799 543.656 99.0679 542.632 99.0679 541.288V538.952C99.0679 537.608 98.7799 536.589 98.2039 535.896C97.6279 535.192 96.8812 534.84 95.9639 534.84C95.0465 534.84 94.2999 535.192 93.7239 535.896C93.1479 536.589 92.8599 537.608 92.8599 538.952V541.288C92.8599 542.632 93.1479 543.656 93.7239 544.36C94.2999 545.053 95.0465 545.4 95.9639 545.4Z" fill="#292929"/>
<path d="M122.728 549.344H118.408V532.88H122.728V534.304H119.928V547.92H122.728V549.344ZM136.812 540.864H135.228V533.616H136.812V540.864ZM128.652 540.528C127.479 540.528 126.519 540.251 125.772 539.696C125.036 539.141 124.668 538.347 124.668 537.312V537.072C124.668 536.037 125.036 535.243 125.772 534.688C126.519 534.133 127.479 533.856 128.652 533.856C129.815 533.856 130.764 534.133 131.5 534.688C132.247 535.243 132.62 536.037 132.62 537.072V537.312C132.62 538.347 132.247 539.141 131.5 539.696C130.764 540.251 129.815 540.528 128.652 540.528ZM128.652 539.12C129.356 539.12 129.927 538.96 130.364 538.64C130.802 538.32 131.02 537.867 131.02 537.28V537.104C131.02 536.517 130.802 536.064 130.364 535.744C129.927 535.424 129.356 535.264 128.652 535.264C127.938 535.264 127.362 535.424 126.924 535.744C126.487 536.064 126.268 536.517 126.268 537.104V537.28C126.268 537.867 126.487 538.32 126.924 538.64C127.362 538.96 127.938 539.12 128.652 539.12ZM137.372 548.544H127.004V544.464H135.228V543.12H126.924V541.792H136.812V545.776H128.604V547.184H137.372V548.544ZM147.488 538.208V536.832H150.384V533.616H151.984V541.712H150.384V538.208H147.488ZM143.76 538.976C143.035 540.011 141.84 540.976 140.176 541.872L139.424 540.592C140.726 539.856 141.68 539.109 142.288 538.352C142.907 537.584 143.216 536.715 143.216 535.744H140.016V534.32H148.016V535.744H144.768C144.768 536.437 144.656 537.088 144.432 537.696L148.592 540.32L147.792 541.632L143.76 538.976ZM148.624 542.496C149.339 542.496 149.963 542.629 150.496 542.896C151.03 543.152 151.44 543.515 151.728 543.984C152.027 544.443 152.176 544.965 152.176 545.552C152.176 546.149 152.027 546.677 151.728 547.136C151.44 547.605 151.03 547.968 150.496 548.224C149.963 548.491 149.339 548.624 148.624 548.624H145.392C144.688 548.624 144.064 548.491 143.52 548.224C142.987 547.968 142.576 547.605 142.288 547.136C142 546.677 141.856 546.149 141.856 545.552C141.856 544.965 142 544.443 142.288 543.984C142.576 543.515 142.987 543.152 143.52 542.896C144.064 542.629 144.688 542.496 145.392 542.496H148.624ZM148.384 547.184C149.099 547.184 149.643 547.035 150.016 546.736C150.39 546.437 150.576 546.043 150.576 545.552C150.576 545.061 150.39 544.667 150.016 544.368C149.643 544.069 149.099 543.92 148.384 543.92H145.648C144.934 543.92 144.384 544.069 144 544.368C143.627 544.667 143.44 545.061 143.44 545.552C143.44 546.043 143.627 546.437 144 546.736C144.384 547.035 144.934 547.184 145.648 547.184H148.384ZM158.916 549.344H154.596V547.92H157.38V534.304H154.596V532.88H158.916V549.344ZM172.618 542.416V545.888H178.794V547.36H164.842V545.888H171.034V542.416H166.554V534.608H177.098V542.416H172.618ZM175.498 536.064H168.154V540.976H175.498V536.064ZM192.734 541.632H191.134V533.616H192.734V541.632ZM184.558 541.136C183.385 541.136 182.425 540.837 181.678 540.24C180.942 539.643 180.574 538.784 180.574 537.664V537.424C180.574 536.293 180.942 535.429 181.678 534.832C182.425 534.235 183.385 533.936 184.558 533.936C185.721 533.936 186.67 534.235 187.406 534.832C188.153 535.429 188.526 536.293 188.526 537.424V537.664C188.526 538.784 188.153 539.643 187.406 540.24C186.67 540.837 185.721 541.136 184.558 541.136ZM184.558 539.744C185.262 539.744 185.833 539.563 186.27 539.2C186.718 538.837 186.942 538.315 186.942 537.632V537.44C186.942 536.757 186.724 536.24 186.286 535.888C185.849 535.525 185.273 535.344 184.558 535.344C183.844 535.344 183.268 535.525 182.83 535.888C182.393 536.24 182.174 536.757 182.174 537.44V537.632C182.174 538.315 182.393 538.837 182.83 539.2C183.278 539.563 183.854 539.744 184.558 539.744ZM192.734 548.464H182.91V542.576H192.734V548.464ZM184.51 543.984V547.024H191.134V543.984H184.51Z" fill="#292929"/>
</g>
<defs>
<clipPath id="clip0_9_1937">
<rect width="410" height="728" fill="white"/>
</clipPath>
</defs>
</svg>
