<svg width="30" height="30" viewBox="0 0 30 30" fill="none" xmlns="http://www.w3.org/2000/svg">
<circle cx="15" cy="15" r="13.8462" fill="white" stroke="#D9D9D9" stroke-width="0.5"/>
<path fill-rule="evenodd" clip-rule="evenodd" d="M14.5607 12.6569V11.9116H15.6166V12.6569L24.2017 17.4263C24.733 17.7215 25.1343 18.2051 25.3265 18.7817L25.3332 18.8016C25.566 19.5002 25.4633 20.2673 25.0548 20.88C24.6122 21.5439 23.8671 21.9427 23.0692 21.9427H6.72716C5.81817 21.9427 5.01117 21.361 4.72373 20.4987C4.57923 20.0652 4.57923 19.5965 4.72373 19.163L4.80041 18.933C5.02505 18.2591 5.49415 17.6939 6.11512 17.3489L14.5607 12.6569ZM15.0887 13.5715L6.62791 18.2719C6.23787 18.4886 5.94322 18.8436 5.80213 19.2669L5.72544 19.497C5.65319 19.7137 5.65319 19.948 5.72544 20.1648C5.86916 20.5959 6.27267 20.8868 6.72716 20.8868H23.0692C23.5141 20.8868 23.9295 20.6644 24.1763 20.2943C24.404 19.9527 24.4613 19.525 24.3314 19.1355L24.3248 19.1156C24.2161 18.7896 23.9892 18.5162 23.6889 18.3493L15.0887 13.5715Z" fill="#D9D9D9"/>
<path fill-rule="evenodd" clip-rule="evenodd" d="M15.4191 7.4747C14.9805 7.32852 14.497 7.44266 14.1702 7.76952C14.0362 7.90349 13.9353 8.06681 13.8754 8.24655L13.4779 9.43885C13.3857 9.71546 13.0867 9.86496 12.8101 9.77275C12.5335 9.68055 12.384 9.38156 12.4762 9.10494L12.8736 7.91264C12.9854 7.57739 13.1737 7.27276 13.4235 7.02288C14.0332 6.41322 14.935 6.20033 15.753 6.47298L15.9576 6.54118C16.2682 6.64474 16.5505 6.8192 16.7821 7.05075C17.0136 7.28231 17.1881 7.56459 17.2916 7.87525L17.3275 7.98291C17.62 8.86028 17.3916 9.82757 16.7377 10.4815L16.6917 10.5275C16.5366 10.6826 16.3575 10.8117 16.1613 10.9098C15.8276 11.0766 15.6168 11.4177 15.6168 11.7908V12.9675C15.6168 13.2591 15.3804 13.4955 15.0889 13.4955C14.7973 13.4955 14.5609 13.2591 14.5609 12.9675V11.7908C14.5609 11.0178 14.9977 10.3111 15.6891 9.96538C15.7838 9.91803 15.8702 9.85573 15.9451 9.78088L15.991 9.73489C16.3622 9.36374 16.4918 8.81476 16.3258 8.31682L16.2899 8.20916C16.2382 8.05401 16.1511 7.91303 16.0354 7.79739C15.9198 7.68174 15.7788 7.59462 15.6237 7.5429L15.4191 7.4747Z" fill="#D9D9D9"/>
<path fill-rule="evenodd" clip-rule="evenodd" d="M20.8959 9.27203C21.1874 9.27203 21.4238 9.5084 21.4238 9.79998V10.8559H22.4797C22.7713 10.8559 23.0077 11.0923 23.0077 11.3838C23.0077 11.6754 22.7713 11.9118 22.4797 11.9118H21.4238V12.9677C21.4238 13.2593 21.1874 13.4956 20.8959 13.4956C20.6043 13.4956 20.3679 13.2593 20.3679 12.9677V11.9118H19.312C19.0204 11.9118 18.7841 11.6754 18.7841 11.3838C18.7841 11.0923 19.0204 10.8559 19.312 10.8559H20.3679V9.79998C20.3679 9.5084 20.6043 9.27203 20.8959 9.27203Z" fill="#D9D9D9"/>
</svg>
