<svg width="25" height="20" viewBox="0 0 25 20" fill="none" xmlns="http://www.w3.org/2000/svg">
<path fill-rule="evenodd" clip-rule="evenodd" d="M11.9305 8.20959V7.31558H13.1971V8.20959L23.4957 13.931C24.1331 14.2851 24.6146 14.8653 24.8451 15.5569L24.8531 15.5808C25.1324 16.4189 25.0092 17.339 24.5192 18.0741C23.9883 18.8705 23.0944 19.3488 22.1373 19.3488H2.53332C1.4429 19.3488 0.474821 18.6511 0.130001 17.6166C-0.0433338 17.0966 -0.0433338 16.5344 0.130001 16.0144L0.221993 15.7384C0.491469 14.93 1.0542 14.252 1.79912 13.8381L11.9305 8.20959ZM12.5638 9.30674L2.41426 14.9454C1.94637 15.2053 1.59291 15.6312 1.42365 16.139L1.33166 16.415C1.24499 16.675 1.24499 16.9561 1.33166 17.2161C1.50407 17.7333 1.98811 18.0822 2.53332 18.0822H22.1373C22.6709 18.0822 23.1693 17.8155 23.4653 17.3714C23.7385 16.9616 23.8072 16.4486 23.6514 15.9814L23.6435 15.9575C23.5131 15.5665 23.2409 15.2385 22.8806 15.0383L12.5638 9.30674Z" fill="#292929"/>
<path fill-rule="evenodd" clip-rule="evenodd" d="M12.9599 1.99302C12.4338 1.81767 11.8538 1.95458 11.4617 2.34669C11.301 2.5074 11.1799 2.70332 11.1081 2.91893L10.6313 4.34921C10.5207 4.68104 10.162 4.86038 9.8302 4.74977C9.49837 4.63916 9.31904 4.28049 9.42964 3.94866L9.90641 2.51838C10.0405 2.11621 10.2663 1.75078 10.5661 1.45102C11.2974 0.719668 12.3792 0.464291 13.3604 0.791363L13.6059 0.873176C13.9785 0.997399 14.3172 1.20668 14.5949 1.48445C14.8727 1.76223 15.082 2.10086 15.2062 2.47352L15.2493 2.60268C15.6001 3.65516 15.3262 4.81553 14.5417 5.60001L14.4865 5.65517C14.3005 5.84124 14.0856 5.99609 13.8503 6.11377C13.45 6.31392 13.1971 6.72304 13.1971 7.17058V8.58224C13.1971 8.93202 12.9136 9.21557 12.5638 9.21557C12.214 9.21557 11.9305 8.93202 11.9305 8.58224V7.17058C11.9305 6.24327 12.4544 5.39555 13.2838 4.98084C13.3974 4.92405 13.5011 4.84931 13.5909 4.75951L13.646 4.70434C14.0913 4.25912 14.2467 3.60056 14.0476 3.00323L14.0046 2.87408C13.9425 2.68796 13.838 2.51884 13.6993 2.38012C13.5606 2.24139 13.3914 2.13687 13.2053 2.07483L12.9599 1.99302Z" fill="#292929"/>
</svg>
