<svg width="88" height="21" viewBox="0 0 88 21" fill="none" xmlns="http://www.w3.org/2000/svg">
<path d="M81.4299 15.3604C81.3324 15.5643 81.2349 15.8037 81.1374 16.0785C81.0487 16.3445 81.0044 16.5839 81.0044 16.7967C81.0044 16.9297 81.031 17.0361 81.0842 17.1159C81.1374 17.1957 81.2393 17.2355 81.39 17.2355C81.5762 17.2355 81.8067 17.1824 82.0816 17.076C82.3653 16.9607 82.6667 16.8144 82.9859 16.6371C83.314 16.4509 83.6509 16.2425 83.9967 16.012C84.3513 15.7726 84.7015 15.5288 85.0473 15.2806C85.3931 15.0235 85.7211 14.7708 86.0314 14.5225C86.3506 14.2654 86.6343 14.0305 86.8826 13.8177C86.9535 13.7556 87.0377 13.7113 87.1352 13.6847C87.2328 13.6581 87.317 13.6448 87.3879 13.6448C87.5652 13.6448 87.7115 13.7069 87.8268 13.831C87.942 13.9551 87.9997 14.1191 87.9997 14.323C87.9997 14.5092 87.9376 14.7176 87.8135 14.9481C87.6894 15.1786 87.4721 15.4047 87.1618 15.6264C86.5944 16.1495 86.0225 16.646 85.4463 17.1159C84.87 17.5858 84.2937 18.0025 83.7174 18.366C83.1499 18.7206 82.5825 19.0043 82.0151 19.2171C81.4565 19.4299 80.9113 19.5363 80.3793 19.5363C80.0158 19.5363 79.7099 19.4875 79.4617 19.39C79.2223 19.2925 79.0272 19.1595 78.8765 18.991C78.7347 18.8226 78.6327 18.6231 78.5706 18.3926C78.5086 18.1621 78.4775 17.9182 78.4775 17.6611C78.4775 17.2267 78.5396 16.7834 78.6637 16.3312C78.7967 15.8702 78.9519 15.449 79.1292 15.0678C79.4395 14.3762 79.7543 13.6891 80.0734 13.0064C80.3926 12.3238 80.6852 11.6987 80.9512 11.1313L84.9808 2.55337C85.1404 2.20759 85.3532 1.96377 85.6191 1.82192C85.894 1.68006 86.1688 1.60913 86.4437 1.60913C86.7185 1.60913 86.9668 1.68449 87.1884 1.83522C87.419 1.98594 87.5342 2.22975 87.5342 2.56666C87.5342 2.72625 87.4943 2.89471 87.4145 3.07203C87.3436 3.24935 87.2505 3.43997 87.1352 3.64389C86.9136 4.06059 86.6476 4.57039 86.3373 5.17328C86.0358 5.77618 85.7078 6.43226 85.3532 7.14155C85.0074 7.85083 84.6483 8.59115 84.2759 9.36249C83.9124 10.125 83.5534 10.8697 83.1987 11.5967C82.8529 12.3238 82.5249 13.0153 82.2146 13.6714C81.9131 14.3186 81.6516 14.8816 81.4299 15.3604Z" fill="#565659"/>
<path d="M81.0183 16.0253C80.6282 16.4686 80.1716 16.9031 79.6485 17.3287C79.1343 17.7454 78.6023 18.1177 78.0526 18.4458C77.5029 18.7738 76.9621 19.0354 76.4301 19.2304C75.8982 19.4343 75.4194 19.5363 74.9938 19.5363C74.5682 19.5363 74.2225 19.4166 73.9565 19.1772C73.6905 18.9378 73.5575 18.53 73.5575 17.9537C73.5575 17.5459 73.6284 17.0715 73.7703 16.5307C73.5398 16.8765 73.2516 17.2267 72.9059 17.5813C72.5601 17.936 72.1655 18.2596 71.7222 18.5522C71.2789 18.8447 70.7824 19.0797 70.2327 19.257C69.6831 19.4432 69.0846 19.5363 68.4374 19.5363C68.1448 19.5363 67.8611 19.5053 67.5862 19.4432C67.3202 19.3811 67.0853 19.2748 66.8814 19.124C66.6775 18.9733 66.5134 18.7738 66.3893 18.5256C66.2652 18.2685 66.2031 17.9493 66.2031 17.568C66.2031 17.5592 66.2209 17.4262 66.2563 17.1691C66.2918 16.9031 66.4026 16.4908 66.5888 15.9323C66.7839 15.3648 67.0809 14.6334 67.4798 13.7379C67.8788 12.8424 68.4418 11.7563 69.1688 10.4796C69.355 10.1427 69.5678 9.90333 69.8072 9.76148C70.0554 9.61076 70.3214 9.53539 70.6051 9.53539C70.7292 9.53539 70.8578 9.55313 70.9908 9.58859C71.1238 9.61519 71.2479 9.66395 71.3632 9.73488C71.4784 9.79694 71.5715 9.88117 71.6424 9.98756C71.7134 10.0851 71.7488 10.2003 71.7488 10.3333C71.7488 10.422 71.7355 10.5062 71.7089 10.586C71.6646 10.7367 71.5671 10.9362 71.4164 11.1845C71.2745 11.4239 71.1061 11.7031 70.911 12.0223C70.7159 12.3326 70.5076 12.6695 70.2859 13.0331C70.0732 13.3966 69.8737 13.7734 69.6875 14.1635C69.5013 14.5536 69.3417 14.9526 69.2087 15.3604C69.0757 15.7594 69.0004 16.1495 68.9826 16.5307C68.9826 16.6903 69.027 16.8366 69.1156 16.9696C69.2043 17.1026 69.3506 17.1691 69.5545 17.1691C70.1308 17.1691 70.6805 17.0095 71.2036 16.6903C71.7267 16.3711 72.2099 15.9766 72.6532 15.5067C73.0965 15.0279 73.4955 14.5181 73.8501 13.9773C74.2136 13.4276 74.515 12.9267 74.7544 12.4745C74.9229 12.173 75.0692 11.8494 75.1933 11.5037C75.3263 11.1579 75.4681 10.8387 75.6189 10.5461C75.7696 10.2535 75.9425 10.0097 76.1375 9.81467C76.3326 9.61962 76.5764 9.52209 76.869 9.52209C77.1882 9.52209 77.4408 9.62405 77.627 9.82797C77.8132 10.0319 77.9063 10.2757 77.9063 10.5594C77.9063 10.719 77.8443 10.9407 77.7201 11.2244C77.6049 11.4992 77.4541 11.8184 77.268 12.1819C77.0906 12.5366 76.8956 12.9178 76.6828 13.3256C76.47 13.7335 76.2705 14.1502 76.0843 14.5757C75.907 14.9924 75.7563 15.4047 75.6322 15.8126C75.5169 16.2115 75.4593 16.5839 75.4593 16.9297C75.4593 17.2489 75.6543 17.4084 76.0444 17.4084C76.3193 17.4084 76.6606 17.3287 77.0685 17.1691C77.4763 17.0095 77.9019 16.7878 78.3452 16.5041C78.7974 16.2115 79.2451 15.8702 79.6884 15.4801C80.1406 15.09 80.5395 14.6688 80.8853 14.2167L81.0183 16.0253Z" fill="#565659"/>
<path d="M62.9847 11.3574C62.9404 11.3485 62.9005 11.3441 62.865 11.3441C62.8295 11.3441 62.7896 11.3441 62.7453 11.3441C62.4084 11.3441 62.0937 11.4106 61.8011 11.5436C61.5085 11.6765 61.2381 11.8539 60.9898 12.0755C60.7504 12.2883 60.5332 12.5321 60.3382 12.807C60.152 13.0818 59.9835 13.3567 59.8328 13.6315C59.6821 13.8975 59.5535 14.1546 59.4471 14.4029C59.3496 14.6511 59.2743 14.8595 59.2211 15.0279C59.5314 14.8683 59.8505 14.6866 60.1786 14.4827C60.5155 14.2787 60.8302 14.0837 61.1228 13.8975C61.4154 13.7113 61.6681 13.5428 61.8809 13.3921C62.1025 13.2414 62.2577 13.1394 62.3463 13.0862C62.7453 12.838 63.0202 12.6075 63.1709 12.3947C63.3216 12.173 63.397 11.9824 63.397 11.8228C63.397 11.6898 63.3526 11.5835 63.264 11.5037C63.1842 11.4239 63.0911 11.3751 62.9847 11.3574ZM63.4635 9.52209C64.1993 9.52209 64.749 9.69942 65.1125 10.0541C65.4761 10.4087 65.6578 10.9008 65.6578 11.5303C65.6578 11.9026 65.5603 12.2927 65.3652 12.7006C65.1702 13.1084 64.8333 13.5251 64.3545 13.9507C63.8757 14.3674 63.2329 14.7974 62.4261 15.2407C61.6282 15.6751 60.6263 16.114 59.4205 16.5573C59.4649 16.8144 59.6023 17.0183 59.8328 17.1691C60.0633 17.3109 60.3692 17.3818 60.7504 17.3818C61.1583 17.3818 61.5927 17.3242 62.0538 17.209C62.5237 17.0848 62.9847 16.9297 63.4369 16.7435C63.8979 16.5573 64.3456 16.3578 64.7801 16.145C65.2145 15.9234 65.6046 15.715 65.9504 15.52C66.305 15.3249 66.5976 15.1565 66.8281 15.0146C67.0675 14.8728 67.2271 14.7841 67.3069 14.7486C67.3867 14.6954 67.4576 14.6644 67.5197 14.6555C67.5906 14.6467 67.6527 14.6422 67.7059 14.6422C67.8123 14.6422 67.9009 14.6688 67.9718 14.722C68.0428 14.7664 68.1004 14.824 68.1447 14.8949C68.1979 14.957 68.2334 15.0279 68.2511 15.1077C68.2689 15.1786 68.2777 15.2407 68.2777 15.2939C68.2777 15.3737 68.2689 15.4712 68.2511 15.5865C68.2334 15.6929 68.1669 15.817 68.0516 15.9588C68.0073 16.0032 67.8566 16.1229 67.5995 16.3179C67.3512 16.513 67.0276 16.7435 66.6286 17.0095C66.2297 17.2755 65.7642 17.5592 65.2322 17.8606C64.7091 18.1532 64.1506 18.4236 63.5566 18.6719C62.9714 18.9201 62.3596 19.124 61.7213 19.2836C61.0829 19.4521 60.4534 19.5363 59.8328 19.5363C59.3008 19.5363 58.8265 19.4343 58.4098 19.2304C58.002 19.0265 57.6518 18.7517 57.3592 18.4059C57.0755 18.0601 56.8583 17.6611 56.7075 17.209C56.5568 16.7568 56.4814 16.2825 56.4814 15.786C56.4814 15.4047 56.5568 14.988 56.7075 14.5358C56.8583 14.0748 57.0755 13.6138 57.3592 13.1527C57.6429 12.6917 57.9887 12.244 58.3965 11.8095C58.8132 11.3662 59.2787 10.9761 59.7929 10.6392C60.3071 10.3023 60.8701 10.0319 61.4819 9.82797C62.1025 9.62405 62.763 9.52209 63.4635 9.52209Z" fill="#565659"/>
<path d="M47.3053 11.7963C47.5624 11.7963 47.7486 11.9027 47.8639 12.1155C47.988 12.3194 48.05 12.5543 48.05 12.8203C48.05 12.9533 48.0367 13.0686 48.0101 13.1661C47.9836 13.2636 47.9304 13.3567 47.8506 13.4454C47.7708 13.5252 47.6644 13.605 47.5314 13.6848C47.3984 13.7557 47.2255 13.8355 47.0127 13.9241C46.5162 14.1369 46.1261 14.394 45.8424 14.6955C45.5587 14.9881 45.4168 15.2806 45.4168 15.5732C45.4168 15.7594 45.4789 15.9367 45.603 16.1052C45.7271 16.2736 45.9222 16.4244 46.1882 16.5574C46.4542 16.6815 46.7955 16.7834 47.2122 16.8632C47.6378 16.9342 48.1476 16.9696 48.7416 16.9696C49.3534 16.9696 49.9341 16.8987 50.4838 16.7568C51.0335 16.6061 51.5122 16.3978 51.9201 16.1318C52.3368 15.8658 52.6648 15.5511 52.9042 15.1876C53.1525 14.824 53.2766 14.4295 53.2766 14.0039C53.2766 13.6848 53.1436 13.3523 52.8776 13.0065C52.6116 12.6607 52.1905 12.3017 51.6142 11.9293C50.5946 11.2643 49.8188 10.7279 49.2869 10.3201C48.7638 9.91225 48.4402 9.65514 48.316 9.54875C47.6511 8.96358 47.1546 8.40059 46.8265 7.85976C46.4985 7.31893 46.3345 6.75594 46.3345 6.17078C46.3345 5.62995 46.463 5.10242 46.7201 4.58819C46.9861 4.07396 47.3408 3.59076 47.7841 3.13859C48.2274 2.68642 48.7372 2.26972 49.3135 1.88848C49.8986 1.49837 50.5059 1.16589 51.1354 0.891045C51.7738 0.616197 52.4121 0.403412 53.0505 0.252689C53.6977 0.0931001 54.3095 0.0133057 54.8858 0.0133057C55.3202 0.0133057 55.7192 0.062069 56.0827 0.159596C56.4551 0.257122 56.7787 0.412278 57.0535 0.625063C57.3284 0.828982 57.5412 1.09496 57.6919 1.42301C57.8515 1.75105 57.9313 2.14559 57.9313 2.60663C57.9313 3.27158 57.7406 3.9055 57.3594 4.50839C56.9782 5.11129 56.3974 5.67428 55.6172 6.19738C55.2714 6.43676 54.9523 6.55645 54.6597 6.55645C54.3582 6.55645 54.1189 6.45006 53.9415 6.23727C53.7642 6.01562 53.6756 5.75851 53.6756 5.46593C53.6756 5.21768 53.7465 4.96943 53.8883 4.72118C54.0391 4.47293 54.2784 4.26014 54.6065 4.08282C54.8636 3.94983 55.0897 3.77251 55.2847 3.55086C55.4887 3.32034 55.5906 3.09869 55.5906 2.88591C55.5906 2.68199 55.5197 2.549 55.3778 2.48693C55.2448 2.42487 55.0808 2.39384 54.8858 2.39384C54.5134 2.39384 54.1056 2.4426 53.6623 2.54013C53.2278 2.62879 52.789 2.75292 52.3456 2.9125C51.9112 3.07209 51.4856 3.26271 51.0689 3.48436C50.6611 3.70602 50.2976 3.9454 49.9784 4.20252C49.6681 4.45963 49.4154 4.73448 49.2204 5.02706C49.0342 5.31077 48.9411 5.59449 48.9411 5.8782C48.9411 6.07325 48.981 6.25501 49.0608 6.42346C49.1406 6.59192 49.2558 6.76037 49.4066 6.92883C49.5661 7.09728 49.7568 7.2746 49.9784 7.46079C50.2001 7.63811 50.4572 7.83316 50.7498 8.04595L53.8617 10.3467C54.2607 10.6393 54.6154 10.9274 54.9257 11.2111C55.2448 11.486 55.5108 11.7653 55.7236 12.049C55.9364 12.3238 56.1004 12.6031 56.2157 12.8868C56.3309 13.1705 56.3886 13.472 56.3886 13.7912C56.3886 14.5004 56.2024 15.1964 55.83 15.8791C55.4665 16.5529 54.9434 17.1558 54.2607 17.6878C53.5869 18.2197 52.7712 18.6497 51.8137 18.9778C50.865 19.3058 49.81 19.4699 48.6485 19.4699C47.5668 19.4699 46.6448 19.3812 45.8823 19.2039C45.1287 19.0354 44.5081 18.8049 44.0204 18.5123C43.5328 18.2109 43.1782 17.8695 42.9565 17.4883C42.7348 17.0982 42.624 16.6903 42.624 16.2648C42.624 15.8215 42.7348 15.3737 42.9565 14.9216C43.187 14.4605 43.5062 14.0261 43.914 13.6183C44.3307 13.2104 44.8272 12.8469 45.4035 12.5277C45.9798 12.2086 46.6137 11.9647 47.3053 11.7963Z" fill="#565659"/>
<path d="M24.6702 11.1313C24.8476 10.75 25.0692 10.4663 25.3352 10.2801C25.6012 10.094 25.8627 10.0009 26.1198 10.0009C26.3326 10.0009 26.5232 10.0807 26.6917 10.2403C26.8602 10.391 26.9444 10.6171 26.9444 10.9185C26.9444 11.0338 26.9311 11.1579 26.9045 11.2909C26.8779 11.4239 26.8291 11.5657 26.7582 11.7164C26.9533 11.4682 27.2325 11.2155 27.596 10.9584C27.9595 10.6924 28.3585 10.4575 28.793 10.2536C29.2363 10.0408 29.6884 9.86788 30.1495 9.73489C30.6194 9.6019 31.0627 9.5354 31.4794 9.5354C31.9493 9.5354 32.3394 9.65066 32.6497 9.88118C32.9689 10.1028 33.1285 10.4841 33.1285 11.0249C33.1285 11.3441 33.0797 11.6766 32.9822 12.0223C32.8846 12.3681 32.7561 12.7139 32.5965 13.0597C32.4458 13.4054 32.2729 13.7468 32.0778 14.0837C31.8916 14.4117 31.7055 14.722 31.5193 15.0146C31.3331 15.3072 31.1602 15.5776 31.0006 15.8259C30.8499 16.0652 30.7302 16.2647 30.6415 16.4243C30.5263 16.5662 30.4686 16.7302 30.4686 16.9164C30.4686 16.9873 30.4908 17.0494 30.5351 17.1026C30.5795 17.1558 30.6504 17.1824 30.7479 17.1824C30.81 17.1824 30.8809 17.1779 30.9607 17.1691C31.0405 17.1513 31.138 17.1026 31.2533 17.0228C31.7321 16.8455 32.2197 16.6238 32.7162 16.3578C33.2215 16.0918 33.7048 15.8126 34.1658 15.52C34.6268 15.2185 35.048 14.9215 35.4292 14.6289C35.8193 14.3275 36.1429 14.0571 36.4 13.8177C36.471 13.7556 36.5419 13.7113 36.6128 13.6847C36.6837 13.6581 36.7502 13.6448 36.8123 13.6448C36.963 13.6448 37.0783 13.7024 37.1581 13.8177C37.2467 13.933 37.2911 14.0793 37.2911 14.2566C37.2911 14.5314 37.2024 14.8373 37.0251 15.1742C36.8566 15.5111 36.5862 15.8259 36.2138 16.1184C35.7085 16.482 35.243 16.8144 34.8174 17.1159C34.4007 17.4173 33.9707 17.701 33.5274 17.967C33.093 18.2241 32.6231 18.4679 32.1177 18.6985C31.6212 18.9201 31.0361 19.1285 30.3622 19.3235C30.1317 19.3945 29.9189 19.4476 29.7239 19.4831C29.5377 19.5186 29.3648 19.5363 29.2052 19.5363C28.7353 19.5363 28.3896 19.4077 28.1679 19.1506C27.9551 18.8847 27.8487 18.5167 27.8487 18.0468C27.8487 17.9847 27.8487 17.9271 27.8487 17.8739C27.8576 17.8119 27.8665 17.7454 27.8753 17.6744C27.8931 17.3996 27.964 17.0981 28.0881 16.7701C28.2211 16.4421 28.3763 16.1051 28.5536 15.7594C28.7398 15.4136 28.9348 15.0722 29.1387 14.7353C29.3427 14.3896 29.5288 14.066 29.6973 13.7645C29.8746 13.4542 30.0209 13.1793 30.1362 12.94C30.2514 12.7006 30.3091 12.5055 30.3091 12.3548C30.3091 12.2218 30.2692 12.111 30.1894 12.0223C30.1184 11.9248 30.0076 11.876 29.8569 11.876C29.2895 11.876 28.7486 12.0445 28.2344 12.3814C27.729 12.7183 27.2547 13.135 26.8114 13.6315C26.3681 14.1191 25.9603 14.6378 25.5879 15.1875C25.2155 15.7372 24.8875 16.2293 24.6037 16.6637C24.4264 16.9563 24.2624 17.271 24.1117 17.6079C23.9698 17.936 23.8191 18.2463 23.6595 18.5389C23.4999 18.8226 23.3182 19.0575 23.1142 19.2437C22.9192 19.4388 22.6709 19.5363 22.3695 19.5363C22.0592 19.5363 21.8154 19.4388 21.6381 19.2437C21.4607 19.0487 21.3721 18.8093 21.3721 18.5256C21.3721 18.3749 21.4341 18.131 21.5583 17.7941C21.6824 17.4572 21.842 17.0671 22.037 16.6238C22.2321 16.1805 22.4493 15.7062 22.6887 15.2008C22.9369 14.6866 23.1807 14.1812 23.4201 13.6847C23.6684 13.1793 23.9033 12.705 24.125 12.2617C24.3466 11.8184 24.5284 11.4416 24.6702 11.1313Z" fill="#565659"/>
<path d="M24.364 16.0253C23.9739 16.4686 23.5173 16.9031 22.9942 17.3287C22.48 17.7454 21.948 18.1177 21.3983 18.4458C20.8486 18.7738 20.3078 19.0354 19.7758 19.2304C19.2439 19.4343 18.7651 19.5363 18.3395 19.5363C17.9139 19.5363 17.5682 19.4166 17.3022 19.1772C17.0362 18.9378 16.9032 18.53 16.9032 17.9537C16.9032 17.5459 16.9741 17.0715 17.116 16.5307C16.8855 16.8765 16.5973 17.2267 16.2516 17.5813C15.9058 17.936 15.5112 18.2596 15.0679 18.5522C14.6246 18.8447 14.1281 19.0797 13.5784 19.257C13.0288 19.4432 12.4303 19.5363 11.7831 19.5363C11.4905 19.5363 11.2068 19.5053 10.9319 19.4432C10.666 19.3811 10.431 19.2748 10.2271 19.124C10.0232 18.9733 9.85914 18.7738 9.73502 18.5256C9.61089 18.2685 9.54883 17.9493 9.54883 17.568C9.54883 17.5592 9.56656 17.4262 9.60202 17.1691C9.63749 16.9031 9.74831 16.4908 9.9345 15.9323C10.1296 15.3648 10.4266 14.6334 10.8255 13.7379C11.2245 12.8424 11.7875 11.7563 12.5145 10.4796C12.7007 10.1427 12.9135 9.90333 13.1529 9.76148C13.4011 9.61076 13.6671 9.53539 13.9508 9.53539C14.0749 9.53539 14.2035 9.55313 14.3365 9.58859C14.4695 9.61519 14.5936 9.66395 14.7089 9.73488C14.8241 9.79694 14.9172 9.88117 14.9882 9.98756C15.0591 10.0851 15.0945 10.2003 15.0945 10.3333C15.0945 10.422 15.0812 10.5062 15.0546 10.586C15.0103 10.7367 14.9128 10.9362 14.7621 11.1845C14.6202 11.4239 14.4518 11.7031 14.2567 12.0223C14.0616 12.3326 13.8533 12.6695 13.6316 13.0331C13.4189 13.3966 13.2194 13.7734 13.0332 14.1635C12.847 14.5536 12.6874 14.9526 12.5544 15.3604C12.4214 15.7594 12.3461 16.1495 12.3283 16.5307C12.3283 16.6903 12.3727 16.8366 12.4613 16.9696C12.55 17.1026 12.6963 17.1691 12.9002 17.1691C13.4765 17.1691 14.0262 17.0095 14.5493 16.6903C15.0724 16.3711 15.5556 15.9766 15.9989 15.5067C16.4422 15.0279 16.8412 14.5181 17.1958 13.9773C17.5593 13.4276 17.8608 12.9267 18.1001 12.4745C18.2686 12.173 18.4149 11.8494 18.539 11.5037C18.672 11.1579 18.8139 10.8387 18.9646 10.5461C19.1153 10.2535 19.2882 10.0097 19.4832 9.81467C19.6783 9.61962 19.9221 9.52209 20.2147 9.52209C20.5339 9.52209 20.7865 9.62405 20.9727 9.82797C21.1589 10.0319 21.252 10.2757 21.252 10.5594C21.252 10.719 21.19 10.9407 21.0658 11.2244C20.9506 11.4992 20.7998 11.8184 20.6137 12.1819C20.4363 12.5366 20.2413 12.9178 20.0285 13.3256C19.8157 13.7335 19.6162 14.1502 19.43 14.5757C19.2527 14.9924 19.102 15.4047 18.9779 15.8126C18.8626 16.2115 18.805 16.5839 18.805 16.9297C18.805 17.2489 19 17.4084 19.3901 17.4084C19.665 17.4084 20.0063 17.3287 20.4142 17.1691C20.822 17.0095 21.2476 16.7878 21.6909 16.5041C22.1431 16.2115 22.5908 15.8702 23.0341 15.4801C23.4863 15.09 23.8852 14.6688 24.231 14.2167L24.364 16.0253Z" fill="#565659"/>
<path d="M4.3887 10.36C3.85673 9.73936 3.37797 9.06111 2.95239 8.32522C2.52682 7.58934 2.22095 6.79583 2.03476 5.94469C1.88404 5.43046 1.77764 4.95169 1.71558 4.50839C1.66238 4.06508 1.63579 3.65281 1.63579 3.27157C1.63579 2.76621 1.69785 2.30961 1.82197 1.90177C1.95496 1.49393 2.12785 1.15259 2.34064 0.877739C2.56229 0.594025 2.81497 0.376807 3.09868 0.226084C3.3824 0.0753614 3.68384 0 4.00302 0C4.65024 0 4.97385 0.341343 4.97385 1.02403C4.97385 1.14815 4.94726 1.30774 4.89406 1.5028C4.84973 1.68898 4.80097 1.89734 4.74777 2.12785C4.69457 2.35837 4.64138 2.60219 4.58818 2.8593C4.54385 3.11642 4.52169 3.3691 4.52169 3.61735C4.52169 4.14045 4.57932 4.66354 4.69457 5.18664C4.8187 5.70974 4.98272 6.21067 5.18664 6.68944C5.39943 7.1682 5.63881 7.61594 5.90479 8.03264C6.17077 8.44048 6.45005 8.79512 6.74263 9.09657L7.72676 8.45821C8.24986 8.1213 8.76852 7.77109 9.28276 7.40759C9.80585 7.04408 10.2758 6.65841 10.6925 6.25057C11.0205 5.86046 11.3086 5.47922 11.5569 5.10685C11.814 4.73447 12.0312 4.38426 12.2086 4.05622C12.3947 3.72817 12.541 3.43116 12.6474 3.16518C12.7538 2.8992 12.8292 2.67755 12.8735 2.50023C12.9533 2.12785 13.0331 1.80867 13.1129 1.54269C13.1927 1.27671 13.3079 1.05949 13.4587 0.891038C13.6094 0.722583 13.8177 0.598459 14.0837 0.518664C14.3586 0.43887 14.7265 0.398972 15.1875 0.398972C15.6131 0.398972 15.8259 0.700418 15.8259 1.30331C15.8259 1.33877 15.8082 1.49393 15.7727 1.76878C15.7372 2.04363 15.6308 2.416 15.4535 2.8859C15.2851 3.3558 15.0191 3.90993 14.6556 4.54829C14.3009 5.18664 13.8 5.88263 13.1528 6.63624C12.7361 7.03521 12.2928 7.41645 11.8229 7.77996C11.3618 8.14347 10.8786 8.49368 10.3733 8.83059C9.87678 9.15863 9.37142 9.47781 8.85719 9.78812C8.34295 10.0984 7.83316 10.4043 7.32779 10.7058L6.74263 11.0515L4.05622 16.1318C3.7991 16.6283 3.61292 17.0095 3.49766 17.2755C3.39126 17.5326 3.3292 17.7099 3.31147 17.8075C3.31147 18.2774 3.24054 18.6808 3.09868 19.0177C2.96569 19.3546 2.79281 19.6339 2.58002 19.8555C2.3761 20.086 2.15002 20.2545 1.90177 20.3609C1.65352 20.4673 1.41857 20.5205 1.19692 20.5205C0.868873 20.5205 0.585159 20.423 0.345776 20.2279C0.115259 20.0328 0 19.7447 0 19.3635C0 19.2216 0.00443303 19.1063 0.0132991 19.0177C0.0221651 18.929 0.0531963 18.8138 0.106393 18.6719C0.159589 18.53 0.243816 18.3394 0.359075 18.1C0.4832 17.8518 0.656088 17.4927 0.877739 17.0228L4.3887 10.36Z" fill="#565659"/>
</svg>
